G04 #@! TF.GenerationSoftware,KiCad,Pcbnew,8.0.2*
G04 #@! TF.CreationDate,2024-06-23T21:23:38-04:00*
G04 #@! TF.ProjectId,Homodyne,486f6d6f-6479-46e6-952e-6b696361645f,rev?*
G04 #@! TF.SameCoordinates,Original*
G04 #@! TF.FileFunction,Copper,L1,Top*
G04 #@! TF.FilePolarity,Positive*
%FSLAX46Y46*%
G04 Gerber Fmt 4.6, Leading zero omitted, Abs format (unit mm)*
G04 Created by KiCad (PCBNEW 8.0.2) date 2024-06-23 21:23:38*
%MOMM*%
%LPD*%
G01*
G04 APERTURE LIST*
G04 Aperture macros list*
%AMRoundRect*
0 Rectangle with rounded corners*
0 $1 Rounding radius*
0 $2 $3 $4 $5 $6 $7 $8 $9 X,Y pos of 4 corners*
0 Add a 4 corners polygon primitive as box body*
4,1,4,$2,$3,$4,$5,$6,$7,$8,$9,$2,$3,0*
0 Add four circle primitives for the rounded corners*
1,1,$1+$1,$2,$3*
1,1,$1+$1,$4,$5*
1,1,$1+$1,$6,$7*
1,1,$1+$1,$8,$9*
0 Add four rect primitives between the rounded corners*
20,1,$1+$1,$2,$3,$4,$5,0*
20,1,$1+$1,$4,$5,$6,$7,0*
20,1,$1+$1,$6,$7,$8,$9,0*
20,1,$1+$1,$8,$9,$2,$3,0*%
G04 Aperture macros list end*
G04 #@! TA.AperFunction,Conductor*
%ADD10C,0.650000*%
G04 #@! TD*
G04 #@! TA.AperFunction,SMDPad,CuDef*
%ADD11RoundRect,0.375000X-0.625000X-0.375000X0.625000X-0.375000X0.625000X0.375000X-0.625000X0.375000X0*%
G04 #@! TD*
G04 #@! TA.AperFunction,SMDPad,CuDef*
%ADD12RoundRect,0.500000X-0.500000X-1.400000X0.500000X-1.400000X0.500000X1.400000X-0.500000X1.400000X0*%
G04 #@! TD*
G04 #@! TA.AperFunction,SMDPad,CuDef*
%ADD13RoundRect,0.250000X0.375000X0.625000X-0.375000X0.625000X-0.375000X-0.625000X0.375000X-0.625000X0*%
G04 #@! TD*
G04 #@! TA.AperFunction,ComponentPad*
%ADD14C,2.600000*%
G04 #@! TD*
G04 #@! TA.AperFunction,ComponentPad*
%ADD15C,2.500000*%
G04 #@! TD*
G04 #@! TA.AperFunction,SMDPad,CuDef*
%ADD16RoundRect,0.250000X-0.375000X-0.625000X0.375000X-0.625000X0.375000X0.625000X-0.375000X0.625000X0*%
G04 #@! TD*
G04 #@! TA.AperFunction,SMDPad,CuDef*
%ADD17R,2.000000X1.500000*%
G04 #@! TD*
G04 #@! TA.AperFunction,SMDPad,CuDef*
%ADD18R,2.000000X3.800000*%
G04 #@! TD*
G04 #@! TA.AperFunction,ComponentPad*
%ADD19R,1.700000X1.700000*%
G04 #@! TD*
G04 #@! TA.AperFunction,ComponentPad*
%ADD20O,1.700000X1.700000*%
G04 #@! TD*
G04 #@! TA.AperFunction,SMDPad,CuDef*
%ADD21RoundRect,0.250000X-0.625000X0.375000X-0.625000X-0.375000X0.625000X-0.375000X0.625000X0.375000X0*%
G04 #@! TD*
G04 #@! TA.AperFunction,SMDPad,CuDef*
%ADD22RoundRect,0.250000X0.625000X-0.375000X0.625000X0.375000X-0.625000X0.375000X-0.625000X-0.375000X0*%
G04 #@! TD*
G04 #@! TA.AperFunction,SMDPad,CuDef*
%ADD23RoundRect,0.150000X0.150000X-0.825000X0.150000X0.825000X-0.150000X0.825000X-0.150000X-0.825000X0*%
G04 #@! TD*
G04 #@! TA.AperFunction,ComponentPad*
%ADD24O,1.600000X1.200000*%
G04 #@! TD*
G04 #@! TA.AperFunction,ComponentPad*
%ADD25O,1.200000X1.200000*%
G04 #@! TD*
G04 #@! TA.AperFunction,SMDPad,CuDef*
%ADD26R,1.600000X1.000000*%
G04 #@! TD*
G04 #@! TA.AperFunction,SMDPad,CuDef*
%ADD27R,1.000000X1.600000*%
G04 #@! TD*
G04 #@! TA.AperFunction,SMDPad,CuDef*
%ADD28RoundRect,0.250000X-0.312500X-0.625000X0.312500X-0.625000X0.312500X0.625000X-0.312500X0.625000X0*%
G04 #@! TD*
G04 #@! TA.AperFunction,SMDPad,CuDef*
%ADD29RoundRect,0.250000X0.312500X0.625000X-0.312500X0.625000X-0.312500X-0.625000X0.312500X-0.625000X0*%
G04 #@! TD*
G04 #@! TA.AperFunction,SMDPad,CuDef*
%ADD30RoundRect,0.250000X0.625000X-0.312500X0.625000X0.312500X-0.625000X0.312500X-0.625000X-0.312500X0*%
G04 #@! TD*
G04 #@! TA.AperFunction,ViaPad*
%ADD31C,1.500000*%
G04 #@! TD*
G04 #@! TA.AperFunction,ViaPad*
%ADD32C,0.800000*%
G04 #@! TD*
G04 #@! TA.AperFunction,Conductor*
%ADD33C,0.250000*%
G04 #@! TD*
G04 APERTURE END LIST*
D10*
X153400000Y-94800000D02*
X153400000Y-89800000D01*
X153300000Y-101400000D02*
X153300000Y-97700000D01*
D11*
X136790000Y-96600000D03*
X136790000Y-98900000D03*
X136790000Y-101200000D03*
D12*
X143090000Y-98900000D03*
D13*
X181490000Y-104020000D03*
X178690000Y-104020000D03*
D14*
X150620000Y-86420000D03*
X150620000Y-91500000D03*
X155700000Y-86420000D03*
X155700000Y-91500000D03*
D15*
X153260000Y-88885000D03*
D16*
X124450000Y-101190000D03*
X127250000Y-101190000D03*
D17*
X166310000Y-101590000D03*
X166310000Y-103890000D03*
D18*
X172610000Y-103890000D03*
D17*
X166310000Y-106190000D03*
D19*
X155700000Y-79850000D03*
D20*
X153160000Y-79850000D03*
X150620000Y-79850000D03*
D21*
X161350000Y-103590000D03*
X161350000Y-106390000D03*
D22*
X129200000Y-99100000D03*
X129200000Y-96300000D03*
X161380000Y-101640000D03*
X161380000Y-98840000D03*
D23*
X150735000Y-106455000D03*
X152005000Y-106455000D03*
X153275000Y-106455000D03*
X154545000Y-106455000D03*
X154545000Y-101505000D03*
X153275000Y-101505000D03*
X152005000Y-101505000D03*
X150735000Y-101505000D03*
D13*
X156260000Y-109450000D03*
X153460000Y-109450000D03*
D22*
X165100000Y-111300000D03*
X165100000Y-108500000D03*
D13*
X179180000Y-115840000D03*
X176380000Y-115840000D03*
D22*
X164840000Y-118230000D03*
X164840000Y-115430000D03*
D11*
X131860000Y-115780000D03*
X131860000Y-118080000D03*
X131860000Y-120380000D03*
D12*
X138160000Y-118080000D03*
D13*
X129286000Y-118059200D03*
X126486000Y-118059200D03*
D17*
X167540000Y-113460000D03*
X167540000Y-115760000D03*
D18*
X173840000Y-115760000D03*
D17*
X167540000Y-118060000D03*
D22*
X126542800Y-115598400D03*
X126542800Y-112798400D03*
D21*
X123952000Y-117573600D03*
X123952000Y-120373600D03*
D24*
X147320000Y-116700000D03*
D25*
X148590000Y-117970000D03*
X149860000Y-116700000D03*
D26*
X176240000Y-110532500D03*
X176240000Y-113532500D03*
X179070000Y-110490000D03*
X179070000Y-113490000D03*
X127101600Y-120343800D03*
X127101600Y-123343800D03*
D27*
X156440000Y-111760000D03*
X153440000Y-111760000D03*
D26*
X160300000Y-117900000D03*
X160300000Y-120900000D03*
X143510000Y-118110000D03*
X143510000Y-121110000D03*
X129500000Y-101140000D03*
X129500000Y-104140000D03*
X176000000Y-99060000D03*
X176000000Y-102060000D03*
D27*
X163300000Y-113400000D03*
X160300000Y-113400000D03*
D26*
X156540000Y-103680000D03*
X156540000Y-106680000D03*
X162500000Y-118100000D03*
X162500000Y-121100000D03*
X140680000Y-118110000D03*
X140680000Y-121110000D03*
X163830000Y-101600000D03*
X163830000Y-98600000D03*
X146050000Y-99060000D03*
X146050000Y-102060000D03*
X148590000Y-99060000D03*
X148590000Y-102060000D03*
X159020000Y-106680000D03*
X159020000Y-103680000D03*
X134620000Y-96520000D03*
X134620000Y-93520000D03*
X129006600Y-115622200D03*
X129006600Y-112622200D03*
X132080000Y-101140000D03*
X132080000Y-104140000D03*
D22*
X132080000Y-96400000D03*
X132080000Y-93600000D03*
D26*
X176000000Y-107500000D03*
X176000000Y-104500000D03*
D24*
X154700000Y-116700000D03*
D25*
X155970000Y-117970000D03*
X157240000Y-116700000D03*
D26*
X129463800Y-120343800D03*
X129463800Y-123343800D03*
D22*
X133000000Y-126500000D03*
X133000000Y-123700000D03*
D21*
X174000000Y-121000000D03*
X174000000Y-123800000D03*
D28*
X137000000Y-126500000D03*
X139925000Y-126500000D03*
D29*
X172925000Y-127000000D03*
X170000000Y-127000000D03*
D30*
X153500000Y-97925000D03*
X153500000Y-95000000D03*
D31*
X156500000Y-129000000D03*
X142000000Y-74000000D03*
X129000000Y-111000000D03*
X161000000Y-83000000D03*
X179000000Y-124000000D03*
X169000000Y-84000000D03*
X133000000Y-91000000D03*
X124000000Y-84000000D03*
X182000000Y-119000000D03*
X163500000Y-126000000D03*
X143000000Y-91000000D03*
X140000000Y-129000000D03*
X140000000Y-107000000D03*
X175000000Y-92000000D03*
X135000000Y-109000000D03*
X137000000Y-124000000D03*
X171000000Y-110000000D03*
X171000000Y-124000000D03*
X168000000Y-96000000D03*
X167000000Y-75000000D03*
X163000000Y-93000000D03*
X143000000Y-112000000D03*
X175000000Y-97000000D03*
X150000000Y-124500000D03*
X138430000Y-86360000D03*
D32*
X153275000Y-101500000D03*
X152025000Y-106425000D03*
D10*
X176160000Y-115890000D02*
X176190000Y-115860000D01*
X176090000Y-115760000D02*
X176190000Y-115860000D01*
X173840000Y-115760000D02*
X176090000Y-115760000D01*
X178797500Y-113532500D02*
X179070000Y-113260000D01*
X176380000Y-115840000D02*
X176380000Y-113672500D01*
X176240000Y-113532500D02*
X178797500Y-113532500D01*
X173840000Y-115760000D02*
X173840000Y-120840000D01*
X173840000Y-120840000D02*
X174000000Y-121000000D01*
X176380000Y-113672500D02*
X176240000Y-113532500D01*
X167540000Y-115760000D02*
X173840000Y-115760000D01*
X131860000Y-120380000D02*
X131860000Y-122560000D01*
X132110000Y-120380000D02*
X127137800Y-120380000D01*
X131860000Y-122560000D02*
X133000000Y-123700000D01*
X127101600Y-120343800D02*
X123981800Y-120343800D01*
X123981800Y-120343800D02*
X123952000Y-120373600D01*
X127137800Y-120380000D02*
X127101600Y-120343800D01*
X153275000Y-106455000D02*
X153275000Y-111355000D01*
X153275000Y-106455000D02*
X153275000Y-109255000D01*
D33*
X167170000Y-118430000D02*
X167540000Y-118060000D01*
X167290000Y-118060000D02*
X167540000Y-118060000D01*
X164210000Y-118300000D02*
X164340000Y-118430000D01*
D10*
X167370000Y-118230000D02*
X167540000Y-118060000D01*
X167530000Y-118050000D02*
X167540000Y-118060000D01*
X164840000Y-118230000D02*
X167370000Y-118230000D01*
X164610000Y-118000000D02*
X164840000Y-118230000D01*
X160970000Y-118000000D02*
X164610000Y-118000000D01*
X157570000Y-116840000D02*
X159810000Y-116840000D01*
X159810000Y-116840000D02*
X160970000Y-118000000D01*
X140240000Y-118080000D02*
X137910000Y-118080000D01*
X140250000Y-118090000D02*
X140240000Y-118080000D01*
X144480000Y-118090000D02*
X145870000Y-116700000D01*
X140250000Y-118090000D02*
X144480000Y-118090000D01*
X145870000Y-116700000D02*
X147320000Y-116700000D01*
X132090000Y-118060000D02*
X132110000Y-118080000D01*
X132110000Y-118080000D02*
X129306800Y-118080000D01*
X129306800Y-118080000D02*
X129286000Y-118059200D01*
X137040000Y-101200000D02*
X131513926Y-101200000D01*
X131513926Y-101200000D02*
X127500000Y-101200000D01*
X178210000Y-104500000D02*
X178690000Y-104020000D01*
X176000000Y-104500000D02*
X173220000Y-104500000D01*
X176000000Y-104500000D02*
X178210000Y-104500000D01*
X166310000Y-103890000D02*
X172610000Y-103890000D01*
X178350000Y-103680000D02*
X178690000Y-104020000D01*
X176000000Y-102060000D02*
X176000000Y-104500000D01*
X173220000Y-104500000D02*
X172610000Y-103890000D01*
D33*
X164470000Y-115500000D02*
X164340000Y-115630000D01*
D10*
X164800000Y-113400000D02*
X163300000Y-113400000D01*
X164820000Y-115410000D02*
X164840000Y-115430000D01*
X165100000Y-113120000D02*
X165100000Y-111300000D01*
X164820000Y-113400000D02*
X164880000Y-113460000D01*
X164810000Y-113410000D02*
X164800000Y-113400000D01*
X164810000Y-113410000D02*
X165100000Y-113120000D01*
X164820000Y-113400000D02*
X164820000Y-115410000D01*
X164880000Y-113460000D02*
X167540000Y-113460000D01*
X164810000Y-113410000D02*
X164820000Y-113400000D01*
X129400000Y-98900000D02*
X129200000Y-99100000D01*
X137040000Y-98900000D02*
X129400000Y-98900000D01*
X161285000Y-106455000D02*
X161350000Y-106390000D01*
X161350000Y-106390000D02*
X166110000Y-106390000D01*
X154545000Y-106455000D02*
X161285000Y-106455000D01*
X158975000Y-106455000D02*
X159020000Y-106410000D01*
X161350000Y-101670000D02*
X161380000Y-101640000D01*
X166310000Y-101590000D02*
X161430000Y-101590000D01*
X161350000Y-103590000D02*
X161350000Y-101670000D01*
X150670000Y-98900000D02*
X150735000Y-98965000D01*
X150735000Y-98965000D02*
X150735000Y-101505000D01*
X152005000Y-100235000D02*
X150670000Y-98900000D01*
X152005000Y-101505000D02*
X152005000Y-100235000D01*
X150670000Y-98900000D02*
X142840000Y-98900000D01*
X154960000Y-116770000D02*
X155030000Y-116840000D01*
X154800000Y-116770000D02*
X154840000Y-116810000D01*
X154830000Y-116700000D02*
X151980000Y-116700000D01*
X151980000Y-116700000D02*
X152005000Y-116675000D01*
X152005000Y-116675000D02*
X152005000Y-106455000D01*
X149860000Y-116700000D02*
X151980000Y-116700000D01*
D33*
X134130000Y-96620000D02*
X134550000Y-96620000D01*
D10*
X137040000Y-96600000D02*
X129500000Y-96600000D01*
X129500000Y-96600000D02*
X129200000Y-96300000D01*
X132110000Y-115780000D02*
X126724400Y-115780000D01*
X126486000Y-115655200D02*
X126542800Y-115598400D01*
X126724400Y-115780000D02*
X126542800Y-115598400D01*
X126486000Y-118059200D02*
X126486000Y-115655200D01*
X174000000Y-123800000D02*
X174000000Y-125925000D01*
X174000000Y-125925000D02*
X172925000Y-127000000D01*
X133000000Y-126500000D02*
X137000000Y-126500000D01*
X181400000Y-90200000D02*
X171050000Y-79850000D01*
X181400000Y-114345000D02*
X181400000Y-90200000D01*
X171050000Y-79850000D02*
X155700000Y-79850000D01*
X179180000Y-115840000D02*
X179905000Y-115840000D01*
X179905000Y-115840000D02*
X181400000Y-114345000D01*
X124570000Y-90140000D02*
X124570000Y-96360000D01*
X134860000Y-79850000D02*
X124570000Y-90140000D01*
D33*
X124570000Y-95385000D02*
X124570000Y-96360000D01*
X124440000Y-96490000D02*
X124570000Y-96360000D01*
D10*
X151370000Y-79850000D02*
X134860000Y-79850000D01*
X124450000Y-101190000D02*
X124450000Y-100215000D01*
X124570000Y-100095000D02*
X124570000Y-96360000D01*
X124450000Y-100215000D02*
X124570000Y-100095000D01*
X123952000Y-117573600D02*
X123952000Y-101688000D01*
X123952000Y-101688000D02*
X124450000Y-101190000D01*
G04 #@! TA.AperFunction,Conductor*
G36*
X184917539Y-70045185D02*
G01*
X184963294Y-70097989D01*
X184974500Y-70149500D01*
X184974500Y-134850500D01*
X184954815Y-134917539D01*
X184902011Y-134963294D01*
X184850500Y-134974500D01*
X120149500Y-134974500D01*
X120082461Y-134954815D01*
X120036706Y-134902011D01*
X120025500Y-134850500D01*
X120025500Y-129878711D01*
X123149500Y-129878711D01*
X123149500Y-130121288D01*
X123181161Y-130361785D01*
X123243947Y-130596104D01*
X123277303Y-130676632D01*
X123336776Y-130820212D01*
X123458064Y-131030289D01*
X123458066Y-131030292D01*
X123458067Y-131030293D01*
X123605733Y-131222736D01*
X123605739Y-131222743D01*
X123777256Y-131394260D01*
X123777262Y-131394265D01*
X123969711Y-131541936D01*
X124179788Y-131663224D01*
X124403900Y-131756054D01*
X124638211Y-131818838D01*
X124818586Y-131842584D01*
X124878711Y-131850500D01*
X124878712Y-131850500D01*
X125121289Y-131850500D01*
X125169388Y-131844167D01*
X125361789Y-131818838D01*
X125596100Y-131756054D01*
X125820212Y-131663224D01*
X126030289Y-131541936D01*
X126222738Y-131394265D01*
X126394265Y-131222738D01*
X126541936Y-131030289D01*
X126663224Y-130820212D01*
X126756054Y-130596100D01*
X126818838Y-130361789D01*
X126850500Y-130121288D01*
X126850500Y-129878712D01*
X126848344Y-129862332D01*
X177899500Y-129862332D01*
X177899500Y-130137667D01*
X177899501Y-130137684D01*
X177935438Y-130410655D01*
X177935439Y-130410660D01*
X177935440Y-130410666D01*
X177935441Y-130410668D01*
X178006704Y-130676630D01*
X178112075Y-130931017D01*
X178112080Y-130931028D01*
X178194861Y-131074407D01*
X178249751Y-131169479D01*
X178249753Y-131169482D01*
X178249754Y-131169483D01*
X178417370Y-131387926D01*
X178417376Y-131387933D01*
X178612066Y-131582623D01*
X178612072Y-131582628D01*
X178830521Y-131750249D01*
X178983778Y-131838732D01*
X179068971Y-131887919D01*
X179068976Y-131887921D01*
X179068979Y-131887923D01*
X179323368Y-131993295D01*
X179589334Y-132064560D01*
X179862326Y-132100500D01*
X179862333Y-132100500D01*
X180137667Y-132100500D01*
X180137674Y-132100500D01*
X180410666Y-132064560D01*
X180676632Y-131993295D01*
X180931021Y-131887923D01*
X181169479Y-131750249D01*
X181387928Y-131582628D01*
X181582628Y-131387928D01*
X181750249Y-131169479D01*
X181887923Y-130931021D01*
X181993295Y-130676632D01*
X182064560Y-130410666D01*
X182100500Y-130137674D01*
X182100500Y-129862326D01*
X182064560Y-129589334D01*
X181993295Y-129323368D01*
X181887923Y-129068979D01*
X181887921Y-129068976D01*
X181887919Y-129068971D01*
X181838732Y-128983778D01*
X181750249Y-128830521D01*
X181582628Y-128612072D01*
X181582623Y-128612066D01*
X181387933Y-128417376D01*
X181387926Y-128417370D01*
X181169483Y-128249754D01*
X181169482Y-128249753D01*
X181169479Y-128249751D01*
X181050678Y-128181161D01*
X180931028Y-128112080D01*
X180931017Y-128112075D01*
X180676630Y-128006704D01*
X180543649Y-127971072D01*
X180410666Y-127935440D01*
X180410660Y-127935439D01*
X180410655Y-127935438D01*
X180137684Y-127899501D01*
X180137679Y-127899500D01*
X180137674Y-127899500D01*
X179862326Y-127899500D01*
X179862320Y-127899500D01*
X179862315Y-127899501D01*
X179589344Y-127935438D01*
X179589337Y-127935439D01*
X179589334Y-127935440D01*
X179556925Y-127944124D01*
X179323369Y-128006704D01*
X179068982Y-128112075D01*
X179068971Y-128112080D01*
X178830516Y-128249754D01*
X178612073Y-128417370D01*
X178612066Y-128417376D01*
X178417376Y-128612066D01*
X178417370Y-128612073D01*
X178249754Y-128830516D01*
X178112080Y-129068971D01*
X178112075Y-129068982D01*
X178006704Y-129323369D01*
X177935441Y-129589331D01*
X177935438Y-129589344D01*
X177899501Y-129862315D01*
X177899500Y-129862332D01*
X126848344Y-129862332D01*
X126818838Y-129638211D01*
X126756054Y-129403900D01*
X126663224Y-129179788D01*
X126541936Y-128969711D01*
X126394265Y-128777262D01*
X126394260Y-128777256D01*
X126222743Y-128605739D01*
X126222736Y-128605733D01*
X126030293Y-128458067D01*
X126030292Y-128458066D01*
X126030289Y-128458064D01*
X125820212Y-128336776D01*
X125820205Y-128336773D01*
X125596104Y-128243947D01*
X125361785Y-128181161D01*
X125121289Y-128149500D01*
X125121288Y-128149500D01*
X124878712Y-128149500D01*
X124878711Y-128149500D01*
X124638214Y-128181161D01*
X124403895Y-128243947D01*
X124179794Y-128336773D01*
X124179785Y-128336777D01*
X123969706Y-128458067D01*
X123777263Y-128605733D01*
X123777256Y-128605739D01*
X123605739Y-128777256D01*
X123605733Y-128777263D01*
X123458067Y-128969706D01*
X123336777Y-129179785D01*
X123336773Y-129179794D01*
X123243947Y-129403895D01*
X123181161Y-129638214D01*
X123149500Y-129878711D01*
X120025500Y-129878711D01*
X120025500Y-126074447D01*
X131616500Y-126074447D01*
X131616500Y-126925537D01*
X131616501Y-126925553D01*
X131627113Y-127029427D01*
X131670085Y-127159109D01*
X131682885Y-127197738D01*
X131775970Y-127348652D01*
X131901348Y-127474030D01*
X132052262Y-127567115D01*
X132220574Y-127622887D01*
X132324455Y-127633500D01*
X133675544Y-127633499D01*
X133779426Y-127622887D01*
X133947738Y-127567115D01*
X134098652Y-127474030D01*
X134202864Y-127369818D01*
X134264187Y-127336334D01*
X134290545Y-127333500D01*
X135867990Y-127333500D01*
X135935029Y-127353185D01*
X135980784Y-127405989D01*
X135985693Y-127418491D01*
X135995385Y-127447738D01*
X136088470Y-127598652D01*
X136213848Y-127724030D01*
X136364762Y-127817115D01*
X136533074Y-127872887D01*
X136636955Y-127883500D01*
X137363044Y-127883499D01*
X137466926Y-127872887D01*
X137635238Y-127817115D01*
X137786152Y-127724030D01*
X137911530Y-127598652D01*
X138004615Y-127447738D01*
X138060387Y-127279426D01*
X138071000Y-127175545D01*
X138071000Y-127174986D01*
X138862501Y-127174986D01*
X138872994Y-127277697D01*
X138928141Y-127444119D01*
X138928143Y-127444124D01*
X139020184Y-127593345D01*
X139144154Y-127717315D01*
X139293375Y-127809356D01*
X139293380Y-127809358D01*
X139459802Y-127864505D01*
X139459809Y-127864506D01*
X139562519Y-127874999D01*
X139674999Y-127874999D01*
X140175000Y-127874999D01*
X140287472Y-127874999D01*
X140287486Y-127874998D01*
X140390197Y-127864505D01*
X140556619Y-127809358D01*
X140556624Y-127809356D01*
X140705845Y-127717315D01*
X140748174Y-127674986D01*
X168937501Y-127674986D01*
X168947994Y-127777697D01*
X169003141Y-127944119D01*
X169003143Y-127944124D01*
X169095184Y-128093345D01*
X169219154Y-128217315D01*
X169368375Y-128309356D01*
X169368380Y-128309358D01*
X169534802Y-128364505D01*
X169534809Y-128364506D01*
X169637519Y-128374999D01*
X169749999Y-128374999D01*
X170250000Y-128374999D01*
X170362472Y-128374999D01*
X170362486Y-128374998D01*
X170465197Y-128364505D01*
X170631619Y-128309358D01*
X170631624Y-128309356D01*
X170780845Y-128217315D01*
X170904815Y-128093345D01*
X170996856Y-127944124D01*
X170996858Y-127944119D01*
X171052005Y-127777697D01*
X171052006Y-127777690D01*
X171062499Y-127674986D01*
X171062500Y-127674973D01*
X171062500Y-127250000D01*
X170250000Y-127250000D01*
X170250000Y-128374999D01*
X169749999Y-128374999D01*
X169750000Y-128374998D01*
X169750000Y-127250000D01*
X168937501Y-127250000D01*
X168937501Y-127674986D01*
X140748174Y-127674986D01*
X140829815Y-127593345D01*
X140921856Y-127444124D01*
X140921858Y-127444119D01*
X140977005Y-127277697D01*
X140977006Y-127277690D01*
X140987499Y-127174986D01*
X140987500Y-127174973D01*
X140987500Y-126750000D01*
X140175000Y-126750000D01*
X140175000Y-127874999D01*
X139674999Y-127874999D01*
X139675000Y-127874998D01*
X139675000Y-126750000D01*
X138862501Y-126750000D01*
X138862501Y-127174986D01*
X138071000Y-127174986D01*
X138070999Y-126325013D01*
X168937500Y-126325013D01*
X168937500Y-126750000D01*
X169750000Y-126750000D01*
X170250000Y-126750000D01*
X171062499Y-126750000D01*
X171062499Y-126325028D01*
X171062498Y-126325013D01*
X171062440Y-126324447D01*
X171854000Y-126324447D01*
X171854000Y-127675537D01*
X171854001Y-127675553D01*
X171864613Y-127779427D01*
X171892805Y-127864505D01*
X171920385Y-127947738D01*
X172013470Y-128098652D01*
X172138848Y-128224030D01*
X172289762Y-128317115D01*
X172458074Y-128372887D01*
X172561955Y-128383500D01*
X173288044Y-128383499D01*
X173391926Y-128372887D01*
X173560238Y-128317115D01*
X173711152Y-128224030D01*
X173836530Y-128098652D01*
X173929615Y-127947738D01*
X173985387Y-127779426D01*
X173996000Y-127675545D01*
X173995999Y-127159108D01*
X174015683Y-127092070D01*
X174032318Y-127071428D01*
X174647419Y-126456328D01*
X174647419Y-126456327D01*
X174647422Y-126456325D01*
X174693335Y-126387609D01*
X174738637Y-126319812D01*
X174779027Y-126222302D01*
X174801469Y-126168123D01*
X174833500Y-126007093D01*
X174833500Y-125842907D01*
X174833500Y-124994510D01*
X174853185Y-124927471D01*
X174905989Y-124881716D01*
X174918492Y-124876805D01*
X174947738Y-124867115D01*
X175098652Y-124774030D01*
X175224030Y-124648652D01*
X175317115Y-124497738D01*
X175372887Y-124329426D01*
X175383500Y-124225545D01*
X175383499Y-123374456D01*
X175372887Y-123270574D01*
X175317115Y-123102262D01*
X175224030Y-122951348D01*
X175098652Y-122825970D01*
X175004898Y-122768142D01*
X174947740Y-122732886D01*
X174947735Y-122732884D01*
X174779427Y-122677113D01*
X174675545Y-122666500D01*
X173324462Y-122666500D01*
X173324446Y-122666501D01*
X173220572Y-122677113D01*
X173052264Y-122732884D01*
X173052259Y-122732886D01*
X172901346Y-122825971D01*
X172775971Y-122951346D01*
X172682886Y-123102259D01*
X172682884Y-123102264D01*
X172627113Y-123270572D01*
X172616500Y-123374447D01*
X172616500Y-124225537D01*
X172616501Y-124225553D01*
X172627113Y-124329427D01*
X172682884Y-124497735D01*
X172682885Y-124497738D01*
X172775970Y-124648652D01*
X172901348Y-124774030D01*
X173052262Y-124867115D01*
X173081502Y-124876803D01*
X173138947Y-124916574D01*
X173165772Y-124981089D01*
X173166500Y-124994510D01*
X173166500Y-125492500D01*
X173146815Y-125559539D01*
X173094011Y-125605294D01*
X173042500Y-125616500D01*
X172561962Y-125616500D01*
X172561946Y-125616501D01*
X172458072Y-125627113D01*
X172289764Y-125682884D01*
X172289759Y-125682886D01*
X172138846Y-125775971D01*
X172013471Y-125901346D01*
X171920386Y-126052259D01*
X171920384Y-126052264D01*
X171864613Y-126220572D01*
X171854000Y-126324447D01*
X171062440Y-126324447D01*
X171052005Y-126222302D01*
X170996858Y-126055880D01*
X170996856Y-126055875D01*
X170904815Y-125906654D01*
X170780845Y-125782684D01*
X170631624Y-125690643D01*
X170631619Y-125690641D01*
X170465197Y-125635494D01*
X170465190Y-125635493D01*
X170362486Y-125625000D01*
X170250000Y-125625000D01*
X170250000Y-126750000D01*
X169750000Y-126750000D01*
X169750000Y-125625000D01*
X169637527Y-125625000D01*
X169637512Y-125625001D01*
X169534802Y-125635494D01*
X169368380Y-125690641D01*
X169368375Y-125690643D01*
X169219154Y-125782684D01*
X169095184Y-125906654D01*
X169003143Y-126055875D01*
X169003141Y-126055880D01*
X168947994Y-126222302D01*
X168947993Y-126222309D01*
X168937500Y-126325013D01*
X138070999Y-126325013D01*
X138070999Y-125825013D01*
X138862500Y-125825013D01*
X138862500Y-126250000D01*
X139675000Y-126250000D01*
X140175000Y-126250000D01*
X140987499Y-126250000D01*
X140987499Y-125825028D01*
X140987498Y-125825013D01*
X140977005Y-125722302D01*
X140921858Y-125555880D01*
X140921856Y-125555875D01*
X140829815Y-125406654D01*
X140705845Y-125282684D01*
X140556624Y-125190643D01*
X140556619Y-125190641D01*
X140390197Y-125135494D01*
X140390190Y-125135493D01*
X140287486Y-125125000D01*
X140175000Y-125125000D01*
X140175000Y-126250000D01*
X139675000Y-126250000D01*
X139675000Y-125125000D01*
X139562527Y-125125000D01*
X139562512Y-125125001D01*
X139459802Y-125135494D01*
X139293380Y-125190641D01*
X139293375Y-125190643D01*
X139144154Y-125282684D01*
X139020184Y-125406654D01*
X138928143Y-125555875D01*
X138928141Y-125555880D01*
X138872994Y-125722302D01*
X138872993Y-125722309D01*
X138862500Y-125825013D01*
X138070999Y-125825013D01*
X138070999Y-125824456D01*
X138060387Y-125720574D01*
X138004615Y-125552262D01*
X137911530Y-125401348D01*
X137786152Y-125275970D01*
X137647816Y-125190643D01*
X137635240Y-125182886D01*
X137635235Y-125182884D01*
X137466927Y-125127113D01*
X137363046Y-125116500D01*
X136636962Y-125116500D01*
X136636946Y-125116501D01*
X136533072Y-125127113D01*
X136364764Y-125182884D01*
X136364759Y-125182886D01*
X136213846Y-125275971D01*
X136088471Y-125401346D01*
X135995386Y-125552259D01*
X135995383Y-125552266D01*
X135985696Y-125581503D01*
X135945924Y-125638948D01*
X135881409Y-125665772D01*
X135867990Y-125666500D01*
X134290545Y-125666500D01*
X134223506Y-125646815D01*
X134202864Y-125630182D01*
X134152435Y-125579753D01*
X134098652Y-125525970D01*
X133947738Y-125432885D01*
X133852558Y-125401346D01*
X133779427Y-125377113D01*
X133675545Y-125366500D01*
X132324462Y-125366500D01*
X132324446Y-125366501D01*
X132220572Y-125377113D01*
X132052264Y-125432884D01*
X132052259Y-125432886D01*
X131901346Y-125525971D01*
X131775971Y-125651346D01*
X131682886Y-125802259D01*
X131682884Y-125802264D01*
X131627113Y-125970572D01*
X131616500Y-126074447D01*
X120025500Y-126074447D01*
X120025500Y-123891644D01*
X125801600Y-123891644D01*
X125808001Y-123951172D01*
X125808003Y-123951179D01*
X125858245Y-124085886D01*
X125858249Y-124085893D01*
X125944409Y-124200987D01*
X125944412Y-124200990D01*
X126059506Y-124287150D01*
X126059513Y-124287154D01*
X126194220Y-124337396D01*
X126194227Y-124337398D01*
X126253755Y-124343799D01*
X126253772Y-124343800D01*
X126851600Y-124343800D01*
X127351600Y-124343800D01*
X127949428Y-124343800D01*
X127949444Y-124343799D01*
X128008972Y-124337398D01*
X128008979Y-124337396D01*
X128143686Y-124287154D01*
X128143693Y-124287150D01*
X128208389Y-124238719D01*
X128273853Y-124214301D01*
X128342126Y-124229152D01*
X128357011Y-124238719D01*
X128421706Y-124287150D01*
X128421713Y-124287154D01*
X128556420Y-124337396D01*
X128556427Y-124337398D01*
X128615955Y-124343799D01*
X128615972Y-124343800D01*
X129213800Y-124343800D01*
X129713800Y-124343800D01*
X130311628Y-124343800D01*
X130311644Y-124343799D01*
X130371172Y-124337398D01*
X130371179Y-124337396D01*
X130505886Y-124287154D01*
X130505893Y-124287150D01*
X130620987Y-124200990D01*
X130620990Y-124200987D01*
X130707150Y-124085893D01*
X130707154Y-124085886D01*
X130757396Y-123951179D01*
X130757398Y-123951172D01*
X130763799Y-123891644D01*
X130763800Y-123891627D01*
X130763800Y-123593800D01*
X129713800Y-123593800D01*
X129713800Y-124343800D01*
X129213800Y-124343800D01*
X129213800Y-123593800D01*
X127351600Y-123593800D01*
X127351600Y-124343800D01*
X126851600Y-124343800D01*
X126851600Y-123593800D01*
X125801600Y-123593800D01*
X125801600Y-123891644D01*
X120025500Y-123891644D01*
X120025500Y-122795955D01*
X125801600Y-122795955D01*
X125801600Y-123093800D01*
X126851600Y-123093800D01*
X127351600Y-123093800D01*
X129213800Y-123093800D01*
X129713800Y-123093800D01*
X130763800Y-123093800D01*
X130763800Y-122795972D01*
X130763799Y-122795955D01*
X130757398Y-122736427D01*
X130757396Y-122736420D01*
X130707154Y-122601713D01*
X130707150Y-122601706D01*
X130620990Y-122486612D01*
X130620987Y-122486609D01*
X130505893Y-122400449D01*
X130505886Y-122400445D01*
X130371179Y-122350203D01*
X130371172Y-122350201D01*
X130311644Y-122343800D01*
X129713800Y-122343800D01*
X129713800Y-123093800D01*
X129213800Y-123093800D01*
X129213800Y-122343800D01*
X128615955Y-122343800D01*
X128556427Y-122350201D01*
X128556420Y-122350203D01*
X128421713Y-122400445D01*
X128421710Y-122400447D01*
X128357011Y-122448881D01*
X128291546Y-122473298D01*
X128223273Y-122458446D01*
X128208389Y-122448881D01*
X128143689Y-122400447D01*
X128143686Y-122400445D01*
X128008979Y-122350203D01*
X128008972Y-122350201D01*
X127949444Y-122343800D01*
X127351600Y-122343800D01*
X127351600Y-123093800D01*
X126851600Y-123093800D01*
X126851600Y-122343800D01*
X126253755Y-122343800D01*
X126194227Y-122350201D01*
X126194220Y-122350203D01*
X126059513Y-122400445D01*
X126059506Y-122400449D01*
X125944412Y-122486609D01*
X125944409Y-122486612D01*
X125858249Y-122601706D01*
X125858245Y-122601713D01*
X125808003Y-122736420D01*
X125808001Y-122736427D01*
X125801600Y-122795955D01*
X120025500Y-122795955D01*
X120025500Y-117148047D01*
X122568500Y-117148047D01*
X122568500Y-117999137D01*
X122568501Y-117999153D01*
X122579113Y-118103027D01*
X122627838Y-118250070D01*
X122634885Y-118271338D01*
X122727970Y-118422252D01*
X122853348Y-118547630D01*
X123004262Y-118640715D01*
X123172574Y-118696487D01*
X123276455Y-118707100D01*
X124627544Y-118707099D01*
X124731426Y-118696487D01*
X124899738Y-118640715D01*
X125050652Y-118547630D01*
X125140822Y-118457459D01*
X125202141Y-118423977D01*
X125271833Y-118428961D01*
X125327767Y-118470832D01*
X125352184Y-118536296D01*
X125352500Y-118545142D01*
X125352500Y-118734736D01*
X125352501Y-118734753D01*
X125363113Y-118838627D01*
X125407724Y-118973256D01*
X125418885Y-119006938D01*
X125493178Y-119127386D01*
X125511971Y-119157853D01*
X125637347Y-119283229D01*
X125643015Y-119287711D01*
X125641415Y-119289733D01*
X125680070Y-119332707D01*
X125691293Y-119401670D01*
X125663450Y-119465752D01*
X125605382Y-119504609D01*
X125568249Y-119510300D01*
X125212744Y-119510300D01*
X125145705Y-119490615D01*
X125125063Y-119473981D01*
X125050653Y-119399571D01*
X125050652Y-119399570D01*
X124931970Y-119326366D01*
X124899740Y-119306486D01*
X124899735Y-119306484D01*
X124731427Y-119250713D01*
X124627545Y-119240100D01*
X123276462Y-119240100D01*
X123276446Y-119240101D01*
X123172572Y-119250713D01*
X123004264Y-119306484D01*
X123004259Y-119306486D01*
X122853346Y-119399571D01*
X122727971Y-119524946D01*
X122634886Y-119675859D01*
X122634884Y-119675864D01*
X122579113Y-119844172D01*
X122568500Y-119948047D01*
X122568500Y-120799137D01*
X122568501Y-120799153D01*
X122578188Y-120893969D01*
X122579113Y-120903026D01*
X122634885Y-121071338D01*
X122727970Y-121222252D01*
X122853348Y-121347630D01*
X123004262Y-121440715D01*
X123172574Y-121496487D01*
X123276455Y-121507100D01*
X124627544Y-121507099D01*
X124731426Y-121496487D01*
X124899738Y-121440715D01*
X125050652Y-121347630D01*
X125176030Y-121222252D01*
X125176030Y-121222251D01*
X125181137Y-121217145D01*
X125182560Y-121218568D01*
X125231360Y-121184013D01*
X125271606Y-121177300D01*
X125857312Y-121177300D01*
X125924351Y-121196985D01*
X125931623Y-121202033D01*
X125938338Y-121207059D01*
X125938339Y-121207061D01*
X126055396Y-121294689D01*
X126192399Y-121345789D01*
X126219650Y-121348718D01*
X126252945Y-121352299D01*
X126252962Y-121352300D01*
X127950238Y-121352300D01*
X127950254Y-121352299D01*
X127977292Y-121349391D01*
X128010801Y-121345789D01*
X128147804Y-121294689D01*
X128208390Y-121249334D01*
X128273853Y-121224918D01*
X128342126Y-121239769D01*
X128357004Y-121249330D01*
X128417596Y-121294689D01*
X128554599Y-121345789D01*
X128581850Y-121348718D01*
X128615145Y-121352299D01*
X128615162Y-121352300D01*
X130312438Y-121352300D01*
X130312454Y-121352299D01*
X130339492Y-121349391D01*
X130373001Y-121345789D01*
X130373004Y-121345788D01*
X130445769Y-121318648D01*
X130515461Y-121313663D01*
X130576785Y-121347147D01*
X130585469Y-121356792D01*
X130606830Y-121383170D01*
X130751161Y-121500047D01*
X130916638Y-121584362D01*
X130934591Y-121589172D01*
X130994251Y-121625534D01*
X131024782Y-121688380D01*
X131026500Y-121708947D01*
X131026500Y-122642097D01*
X131058529Y-122803115D01*
X131058531Y-122803123D01*
X131121362Y-122954812D01*
X131212574Y-123091320D01*
X131212580Y-123091328D01*
X131580181Y-123458928D01*
X131613666Y-123520251D01*
X131616500Y-123546609D01*
X131616500Y-124125537D01*
X131616501Y-124125553D01*
X131626717Y-124225552D01*
X131627113Y-124229426D01*
X131682885Y-124397738D01*
X131775970Y-124548652D01*
X131901348Y-124674030D01*
X132052262Y-124767115D01*
X132220574Y-124822887D01*
X132324455Y-124833500D01*
X133675544Y-124833499D01*
X133779426Y-124822887D01*
X133947738Y-124767115D01*
X134098652Y-124674030D01*
X134224030Y-124548652D01*
X134317115Y-124397738D01*
X134372887Y-124229426D01*
X134383500Y-124125545D01*
X134383499Y-123274456D01*
X134372887Y-123170574D01*
X134317115Y-123002262D01*
X134224030Y-122851348D01*
X134098652Y-122725970D01*
X133962673Y-122642097D01*
X133947740Y-122632886D01*
X133947735Y-122632884D01*
X133779427Y-122577113D01*
X133675552Y-122566500D01*
X133675545Y-122566500D01*
X133096609Y-122566500D01*
X133029570Y-122546815D01*
X133008928Y-122530181D01*
X132729819Y-122251072D01*
X132696334Y-122189749D01*
X132693500Y-122163391D01*
X132693500Y-121708947D01*
X132708506Y-121657844D01*
X139380000Y-121657844D01*
X139386401Y-121717372D01*
X139386403Y-121717379D01*
X139436645Y-121852086D01*
X139436649Y-121852093D01*
X139522809Y-121967187D01*
X139522812Y-121967190D01*
X139637906Y-122053350D01*
X139637913Y-122053354D01*
X139772620Y-122103596D01*
X139772627Y-122103598D01*
X139832155Y-122109999D01*
X139832172Y-122110000D01*
X140430000Y-122110000D01*
X140930000Y-122110000D01*
X141527828Y-122110000D01*
X141527844Y-122109999D01*
X141587372Y-122103598D01*
X141587379Y-122103596D01*
X141722086Y-122053354D01*
X141722093Y-122053350D01*
X141837187Y-121967190D01*
X141837190Y-121967187D01*
X141923350Y-121852093D01*
X141923354Y-121852086D01*
X141973597Y-121717378D01*
X141974322Y-121714311D01*
X141975537Y-121712175D01*
X141976309Y-121710108D01*
X141976643Y-121710232D01*
X142008893Y-121653593D01*
X142070803Y-121621205D01*
X142140394Y-121627429D01*
X142195574Y-121670289D01*
X142215678Y-121714311D01*
X142216402Y-121717378D01*
X142266645Y-121852086D01*
X142266649Y-121852093D01*
X142352809Y-121967187D01*
X142352812Y-121967190D01*
X142467906Y-122053350D01*
X142467913Y-122053354D01*
X142602620Y-122103596D01*
X142602627Y-122103598D01*
X142662155Y-122109999D01*
X142662172Y-122110000D01*
X143260000Y-122110000D01*
X143760000Y-122110000D01*
X144357828Y-122110000D01*
X144357844Y-122109999D01*
X144417372Y-122103598D01*
X144417379Y-122103596D01*
X144552086Y-122053354D01*
X144552093Y-122053350D01*
X144667187Y-121967190D01*
X144667190Y-121967187D01*
X144753350Y-121852093D01*
X144753354Y-121852086D01*
X144803596Y-121717379D01*
X144803598Y-121717372D01*
X144809999Y-121657844D01*
X144810000Y-121657827D01*
X144810000Y-121447844D01*
X159000000Y-121447844D01*
X159006401Y-121507372D01*
X159006403Y-121507379D01*
X159056645Y-121642086D01*
X159056649Y-121642093D01*
X159142809Y-121757187D01*
X159142812Y-121757190D01*
X159257906Y-121843350D01*
X159257913Y-121843354D01*
X159392620Y-121893596D01*
X159392627Y-121893598D01*
X159452155Y-121899999D01*
X159452172Y-121900000D01*
X160050000Y-121900000D01*
X160550000Y-121900000D01*
X161147828Y-121900000D01*
X161147844Y-121899999D01*
X161215087Y-121892769D01*
X161215361Y-121895322D01*
X161272659Y-121898378D01*
X161329342Y-121939230D01*
X161330704Y-121941015D01*
X161342813Y-121957191D01*
X161457906Y-122043350D01*
X161457913Y-122043354D01*
X161592620Y-122093596D01*
X161592627Y-122093598D01*
X161652155Y-122099999D01*
X161652172Y-122100000D01*
X162250000Y-122100000D01*
X162750000Y-122100000D01*
X163347828Y-122100000D01*
X163347844Y-122099999D01*
X163407372Y-122093598D01*
X163407379Y-122093596D01*
X163542086Y-122043354D01*
X163542093Y-122043350D01*
X163657187Y-121957190D01*
X163657190Y-121957187D01*
X163743350Y-121842093D01*
X163743354Y-121842086D01*
X163793596Y-121707379D01*
X163793598Y-121707372D01*
X163799999Y-121647844D01*
X163800000Y-121647827D01*
X163800000Y-121350000D01*
X162750000Y-121350000D01*
X162750000Y-122100000D01*
X162250000Y-122100000D01*
X162250000Y-121350000D01*
X161281000Y-121350000D01*
X161213961Y-121330315D01*
X161168206Y-121277511D01*
X161157000Y-121226000D01*
X161157000Y-121150000D01*
X160550000Y-121150000D01*
X160550000Y-121900000D01*
X160050000Y-121900000D01*
X160050000Y-121150000D01*
X159000000Y-121150000D01*
X159000000Y-121447844D01*
X144810000Y-121447844D01*
X144810000Y-121360000D01*
X143760000Y-121360000D01*
X143760000Y-122110000D01*
X143260000Y-122110000D01*
X143260000Y-120860000D01*
X143760000Y-120860000D01*
X144810000Y-120860000D01*
X144810000Y-120562172D01*
X144809999Y-120562155D01*
X144803598Y-120502627D01*
X144803596Y-120502620D01*
X144753354Y-120367913D01*
X144753350Y-120367906D01*
X144741559Y-120352155D01*
X159000000Y-120352155D01*
X159000000Y-120650000D01*
X160050000Y-120650000D01*
X160550000Y-120650000D01*
X161519000Y-120650000D01*
X161586039Y-120669685D01*
X161631794Y-120722489D01*
X161643000Y-120774000D01*
X161643000Y-120850000D01*
X162250000Y-120850000D01*
X162750000Y-120850000D01*
X163800000Y-120850000D01*
X163800000Y-120552172D01*
X163799999Y-120552155D01*
X163793598Y-120492627D01*
X163793596Y-120492620D01*
X163743354Y-120357913D01*
X163743350Y-120357906D01*
X163657190Y-120242812D01*
X163657187Y-120242809D01*
X163542093Y-120156649D01*
X163542086Y-120156645D01*
X163407379Y-120106403D01*
X163407372Y-120106401D01*
X163347844Y-120100000D01*
X162750000Y-120100000D01*
X162750000Y-120850000D01*
X162250000Y-120850000D01*
X162250000Y-120100000D01*
X161652155Y-120100000D01*
X161584913Y-120107231D01*
X161584639Y-120104685D01*
X161527296Y-120101605D01*
X161470629Y-120060732D01*
X161469294Y-120058983D01*
X161457186Y-120042809D01*
X161342088Y-119956647D01*
X161342086Y-119956645D01*
X161207379Y-119906403D01*
X161207372Y-119906401D01*
X161147844Y-119900000D01*
X160550000Y-119900000D01*
X160550000Y-120650000D01*
X160050000Y-120650000D01*
X160050000Y-119900000D01*
X159452155Y-119900000D01*
X159392627Y-119906401D01*
X159392620Y-119906403D01*
X159257913Y-119956645D01*
X159257906Y-119956649D01*
X159142812Y-120042809D01*
X159142809Y-120042812D01*
X159056649Y-120157906D01*
X159056645Y-120157913D01*
X159006403Y-120292620D01*
X159006401Y-120292627D01*
X159000000Y-120352155D01*
X144741559Y-120352155D01*
X144667190Y-120252812D01*
X144667187Y-120252809D01*
X144552093Y-120166649D01*
X144552086Y-120166645D01*
X144417379Y-120116403D01*
X144417372Y-120116401D01*
X144357844Y-120110000D01*
X143760000Y-120110000D01*
X143760000Y-120860000D01*
X143260000Y-120860000D01*
X143260000Y-120110000D01*
X142662155Y-120110000D01*
X142602627Y-120116401D01*
X142602620Y-120116403D01*
X142467913Y-120166645D01*
X142467906Y-120166649D01*
X142352812Y-120252809D01*
X142352809Y-120252812D01*
X142266649Y-120367906D01*
X142266645Y-120367913D01*
X142216401Y-120502625D01*
X142215677Y-120505691D01*
X142214462Y-120507824D01*
X142213691Y-120509892D01*
X142213356Y-120509767D01*
X142181105Y-120566408D01*
X142119195Y-120598795D01*
X142049603Y-120592569D01*
X141994425Y-120549708D01*
X141974323Y-120505691D01*
X141973598Y-120502625D01*
X141923354Y-120367913D01*
X141923350Y-120367906D01*
X141837190Y-120252812D01*
X141837187Y-120252809D01*
X141722093Y-120166649D01*
X141722086Y-120166645D01*
X141587379Y-120116403D01*
X141587372Y-120116401D01*
X141527844Y-120110000D01*
X140930000Y-120110000D01*
X140930000Y-122110000D01*
X140430000Y-122110000D01*
X140430000Y-121360000D01*
X139380000Y-121360000D01*
X139380000Y-121657844D01*
X132708506Y-121657844D01*
X132713185Y-121641908D01*
X132765989Y-121596153D01*
X132785401Y-121589174D01*
X132803362Y-121584362D01*
X132968839Y-121500047D01*
X133113170Y-121383170D01*
X133230047Y-121238839D01*
X133314362Y-121073362D01*
X133362430Y-120893971D01*
X133368500Y-120816843D01*
X133368499Y-119943158D01*
X133362430Y-119866029D01*
X133314362Y-119686638D01*
X133230047Y-119521161D01*
X133113170Y-119376830D01*
X133050851Y-119326365D01*
X133011140Y-119268879D01*
X133008812Y-119199048D01*
X133044607Y-119139044D01*
X133050852Y-119133634D01*
X133113170Y-119083170D01*
X133230047Y-118938839D01*
X133314362Y-118773362D01*
X133362430Y-118593971D01*
X133368500Y-118516843D01*
X133368499Y-117643158D01*
X133362430Y-117566029D01*
X133314362Y-117386638D01*
X133230047Y-117221161D01*
X133113170Y-117076830D01*
X133050851Y-117026365D01*
X133011140Y-116968879D01*
X133008812Y-116899048D01*
X133044607Y-116839044D01*
X133050852Y-116833634D01*
X133058590Y-116827368D01*
X133113170Y-116783170D01*
X133230047Y-116638839D01*
X133314362Y-116473362D01*
X133362430Y-116293971D01*
X133368500Y-116216843D01*
X133368499Y-115343158D01*
X133362430Y-115266029D01*
X133314362Y-115086638D01*
X133230047Y-114921161D01*
X133113170Y-114776830D01*
X132968839Y-114659953D01*
X132803362Y-114575638D01*
X132803361Y-114575637D01*
X132803360Y-114575637D01*
X132623969Y-114527569D01*
X132558981Y-114522455D01*
X132546843Y-114521500D01*
X132546841Y-114521500D01*
X131173167Y-114521500D01*
X131173148Y-114521501D01*
X131096030Y-114527569D01*
X130916639Y-114575637D01*
X130751162Y-114659952D01*
X130751155Y-114659957D01*
X130606830Y-114776830D01*
X130506654Y-114900536D01*
X130449166Y-114940248D01*
X130410288Y-114946500D01*
X130369559Y-114946500D01*
X130302520Y-114926815D01*
X130260724Y-114881921D01*
X130257489Y-114875996D01*
X130241031Y-114854011D01*
X130169861Y-114758939D01*
X130052804Y-114671311D01*
X129915803Y-114620211D01*
X129855254Y-114613700D01*
X129855238Y-114613700D01*
X128157962Y-114613700D01*
X128157945Y-114613700D01*
X128097397Y-114620211D01*
X128097395Y-114620211D01*
X127960393Y-114671311D01*
X127960393Y-114671312D01*
X127890855Y-114723368D01*
X127825391Y-114747785D01*
X127757118Y-114732933D01*
X127728864Y-114711782D01*
X127641453Y-114624371D01*
X127641452Y-114624370D01*
X127542377Y-114563260D01*
X127490540Y-114531286D01*
X127490535Y-114531284D01*
X127322227Y-114475513D01*
X127218345Y-114464900D01*
X125867262Y-114464900D01*
X125867246Y-114464901D01*
X125763372Y-114475513D01*
X125595064Y-114531284D01*
X125595059Y-114531286D01*
X125444146Y-114624371D01*
X125318771Y-114749746D01*
X125225686Y-114900659D01*
X125225684Y-114900664D01*
X125169913Y-115068972D01*
X125159300Y-115172847D01*
X125159300Y-116023937D01*
X125159301Y-116023953D01*
X125169913Y-116127827D01*
X125225684Y-116296135D01*
X125225686Y-116296140D01*
X125258212Y-116348872D01*
X125318770Y-116447052D01*
X125444148Y-116572430D01*
X125592673Y-116664041D01*
X125639396Y-116715988D01*
X125650619Y-116784951D01*
X125622775Y-116849033D01*
X125615257Y-116857259D01*
X125511970Y-116960547D01*
X125511964Y-116960554D01*
X125511835Y-116960765D01*
X125511708Y-116960878D01*
X125507489Y-116966215D01*
X125506576Y-116965493D01*
X125459881Y-117007484D01*
X125390917Y-117018698D01*
X125326839Y-116990847D01*
X125288598Y-116934659D01*
X125287054Y-116930000D01*
X125269115Y-116875862D01*
X125176030Y-116724948D01*
X125050652Y-116599570D01*
X124956472Y-116541479D01*
X124899740Y-116506486D01*
X124899739Y-116506485D01*
X124899738Y-116506485D01*
X124890417Y-116503396D01*
X124870494Y-116496794D01*
X124813050Y-116457021D01*
X124786228Y-116392505D01*
X124785500Y-116379089D01*
X124785500Y-113223386D01*
X125167801Y-113223386D01*
X125178294Y-113326097D01*
X125233441Y-113492519D01*
X125233443Y-113492524D01*
X125325484Y-113641745D01*
X125449454Y-113765715D01*
X125598675Y-113857756D01*
X125598680Y-113857758D01*
X125765102Y-113912905D01*
X125765109Y-113912906D01*
X125867819Y-113923399D01*
X126292799Y-113923399D01*
X126292800Y-113923398D01*
X126292800Y-113048400D01*
X126792800Y-113048400D01*
X126792800Y-113923399D01*
X127217772Y-113923399D01*
X127217786Y-113923398D01*
X127320497Y-113912905D01*
X127486919Y-113857758D01*
X127486924Y-113857756D01*
X127636145Y-113765715D01*
X127760117Y-113641743D01*
X127785601Y-113600427D01*
X127837548Y-113553702D01*
X127906511Y-113542479D01*
X127956080Y-113562477D01*
X127956723Y-113561301D01*
X127964504Y-113565549D01*
X128099223Y-113615797D01*
X128099227Y-113615798D01*
X128158755Y-113622199D01*
X128158772Y-113622200D01*
X128756600Y-113622200D01*
X129256600Y-113622200D01*
X129854428Y-113622200D01*
X129854444Y-113622199D01*
X129913972Y-113615798D01*
X129913979Y-113615796D01*
X130048686Y-113565554D01*
X130048693Y-113565550D01*
X130163787Y-113479390D01*
X130163790Y-113479387D01*
X130249950Y-113364293D01*
X130249954Y-113364286D01*
X130300196Y-113229579D01*
X130300198Y-113229572D01*
X130306599Y-113170044D01*
X130306600Y-113170027D01*
X130306600Y-112872200D01*
X129256600Y-112872200D01*
X129256600Y-113622200D01*
X128756600Y-113622200D01*
X128756600Y-112872200D01*
X127960800Y-112872200D01*
X127960800Y-112924400D01*
X127941115Y-112991439D01*
X127888311Y-113037194D01*
X127836800Y-113048400D01*
X126792800Y-113048400D01*
X126292800Y-113048400D01*
X125167801Y-113048400D01*
X125167801Y-113223386D01*
X124785500Y-113223386D01*
X124785500Y-112373413D01*
X125167800Y-112373413D01*
X125167800Y-112548400D01*
X126292800Y-112548400D01*
X126292800Y-111673400D01*
X126792800Y-111673400D01*
X126792800Y-112548400D01*
X127663600Y-112548400D01*
X127663600Y-112496200D01*
X127683285Y-112429161D01*
X127736089Y-112383406D01*
X127787600Y-112372200D01*
X128756600Y-112372200D01*
X129256600Y-112372200D01*
X130306600Y-112372200D01*
X130306600Y-112074372D01*
X130306599Y-112074355D01*
X130300198Y-112014827D01*
X130300196Y-112014820D01*
X130249954Y-111880113D01*
X130249950Y-111880106D01*
X130163790Y-111765012D01*
X130163787Y-111765009D01*
X130048693Y-111678849D01*
X130048686Y-111678845D01*
X129913979Y-111628603D01*
X129913972Y-111628601D01*
X129854444Y-111622200D01*
X129256600Y-111622200D01*
X129256600Y-112372200D01*
X128756600Y-112372200D01*
X128756600Y-111622200D01*
X128158755Y-111622200D01*
X128099227Y-111628601D01*
X128099220Y-111628603D01*
X127964513Y-111678845D01*
X127964506Y-111678849D01*
X127849412Y-111765009D01*
X127815343Y-111810519D01*
X127759408Y-111852390D01*
X127689716Y-111857373D01*
X127639163Y-111833471D01*
X127636143Y-111831082D01*
X127486924Y-111739043D01*
X127486919Y-111739041D01*
X127320497Y-111683894D01*
X127320490Y-111683893D01*
X127217786Y-111673400D01*
X126792800Y-111673400D01*
X126292800Y-111673400D01*
X125867828Y-111673400D01*
X125867812Y-111673401D01*
X125765102Y-111683894D01*
X125598680Y-111739041D01*
X125598675Y-111739043D01*
X125449454Y-111831084D01*
X125325484Y-111955054D01*
X125233443Y-112104275D01*
X125233441Y-112104280D01*
X125178294Y-112270702D01*
X125178293Y-112270709D01*
X125167800Y-112373413D01*
X124785500Y-112373413D01*
X124785500Y-104687844D01*
X128200000Y-104687844D01*
X128206401Y-104747372D01*
X128206403Y-104747379D01*
X128256645Y-104882086D01*
X128256649Y-104882093D01*
X128342809Y-104997187D01*
X128342812Y-104997190D01*
X128457906Y-105083350D01*
X128457913Y-105083354D01*
X128592620Y-105133596D01*
X128592627Y-105133598D01*
X128652155Y-105139999D01*
X128652172Y-105140000D01*
X129250000Y-105140000D01*
X129750000Y-105140000D01*
X130347828Y-105140000D01*
X130347844Y-105139999D01*
X130407372Y-105133598D01*
X130407379Y-105133596D01*
X130542086Y-105083354D01*
X130542093Y-105083350D01*
X130657186Y-104997190D01*
X130690733Y-104952379D01*
X130746667Y-104910508D01*
X130816359Y-104905524D01*
X130877682Y-104939009D01*
X130889267Y-104952379D01*
X130922813Y-104997190D01*
X131037906Y-105083350D01*
X131037913Y-105083354D01*
X131172620Y-105133596D01*
X131172627Y-105133598D01*
X131232155Y-105139999D01*
X131232172Y-105140000D01*
X131830000Y-105140000D01*
X132330000Y-105140000D01*
X132927828Y-105140000D01*
X132927844Y-105139999D01*
X132987372Y-105133598D01*
X132987379Y-105133596D01*
X133122086Y-105083354D01*
X133122093Y-105083350D01*
X133237187Y-104997190D01*
X133237190Y-104997187D01*
X133323350Y-104882093D01*
X133323354Y-104882086D01*
X133373596Y-104747379D01*
X133373598Y-104747372D01*
X133379999Y-104687844D01*
X133380000Y-104687827D01*
X133380000Y-104390000D01*
X132330000Y-104390000D01*
X132330000Y-105140000D01*
X131830000Y-105140000D01*
X131830000Y-104390000D01*
X129750000Y-104390000D01*
X129750000Y-105140000D01*
X129250000Y-105140000D01*
X129250000Y-104390000D01*
X128200000Y-104390000D01*
X128200000Y-104687844D01*
X124785500Y-104687844D01*
X124785500Y-104227844D01*
X155240000Y-104227844D01*
X155246401Y-104287372D01*
X155246403Y-104287379D01*
X155296645Y-104422086D01*
X155296649Y-104422093D01*
X155382809Y-104537187D01*
X155382812Y-104537190D01*
X155497906Y-104623350D01*
X155497913Y-104623354D01*
X155632620Y-104673596D01*
X155632627Y-104673598D01*
X155692155Y-104679999D01*
X155692172Y-104680000D01*
X156290000Y-104680000D01*
X156790000Y-104680000D01*
X157387828Y-104680000D01*
X157387844Y-104679999D01*
X157447372Y-104673598D01*
X157447379Y-104673596D01*
X157582086Y-104623354D01*
X157582093Y-104623350D01*
X157704288Y-104531875D01*
X157706226Y-104534464D01*
X157753642Y-104508574D01*
X157823334Y-104513558D01*
X157854452Y-104533557D01*
X157855712Y-104531875D01*
X157977906Y-104623350D01*
X157977913Y-104623354D01*
X158112620Y-104673596D01*
X158112627Y-104673598D01*
X158172155Y-104679999D01*
X158172172Y-104680000D01*
X158770000Y-104680000D01*
X158770000Y-103930000D01*
X156790000Y-103930000D01*
X156790000Y-104680000D01*
X156290000Y-104680000D01*
X156290000Y-103930000D01*
X155240000Y-103930000D01*
X155240000Y-104227844D01*
X124785500Y-104227844D01*
X124785500Y-103592155D01*
X128200000Y-103592155D01*
X128200000Y-103890000D01*
X129250000Y-103890000D01*
X129750000Y-103890000D01*
X131830000Y-103890000D01*
X132330000Y-103890000D01*
X133380000Y-103890000D01*
X133380000Y-103592172D01*
X133379999Y-103592155D01*
X133373598Y-103532627D01*
X133373596Y-103532620D01*
X133323354Y-103397913D01*
X133323350Y-103397906D01*
X133237190Y-103282812D01*
X133237187Y-103282809D01*
X133122093Y-103196649D01*
X133122086Y-103196645D01*
X132987379Y-103146403D01*
X132987372Y-103146401D01*
X132927844Y-103140000D01*
X132330000Y-103140000D01*
X132330000Y-103890000D01*
X131830000Y-103890000D01*
X131830000Y-103140000D01*
X131232155Y-103140000D01*
X131172627Y-103146401D01*
X131172620Y-103146403D01*
X131037913Y-103196645D01*
X131037906Y-103196649D01*
X130922812Y-103282809D01*
X130889266Y-103327621D01*
X130833332Y-103369491D01*
X130763640Y-103374475D01*
X130702318Y-103340989D01*
X130690734Y-103327621D01*
X130657187Y-103282809D01*
X130542093Y-103196649D01*
X130542086Y-103196645D01*
X130407379Y-103146403D01*
X130407372Y-103146401D01*
X130347844Y-103140000D01*
X129750000Y-103140000D01*
X129750000Y-103890000D01*
X129250000Y-103890000D01*
X129250000Y-103140000D01*
X128652155Y-103140000D01*
X128592627Y-103146401D01*
X128592620Y-103146403D01*
X128457913Y-103196645D01*
X128457906Y-103196649D01*
X128342812Y-103282809D01*
X128342809Y-103282812D01*
X128256649Y-103397906D01*
X128256645Y-103397913D01*
X128206403Y-103532620D01*
X128206401Y-103532627D01*
X128200000Y-103592155D01*
X124785500Y-103592155D01*
X124785500Y-102694675D01*
X124805185Y-102627636D01*
X124828026Y-102607844D01*
X144750000Y-102607844D01*
X144756401Y-102667372D01*
X144756403Y-102667379D01*
X144806645Y-102802086D01*
X144806649Y-102802093D01*
X144892809Y-102917187D01*
X144892812Y-102917190D01*
X145007906Y-103003350D01*
X145007913Y-103003354D01*
X145142620Y-103053596D01*
X145142627Y-103053598D01*
X145202155Y-103059999D01*
X145202172Y-103060000D01*
X145800000Y-103060000D01*
X146300000Y-103060000D01*
X146897828Y-103060000D01*
X146897844Y-103059999D01*
X146957372Y-103053598D01*
X146957379Y-103053596D01*
X147092086Y-103003354D01*
X147092093Y-103003350D01*
X147207185Y-102917191D01*
X147220732Y-102899096D01*
X147276666Y-102857225D01*
X147346357Y-102852240D01*
X147407681Y-102885724D01*
X147419268Y-102899096D01*
X147432814Y-102917191D01*
X147547906Y-103003350D01*
X147547913Y-103003354D01*
X147682620Y-103053596D01*
X147682627Y-103053598D01*
X147742155Y-103059999D01*
X147742172Y-103060000D01*
X148340000Y-103060000D01*
X148340000Y-102310000D01*
X146300000Y-102310000D01*
X146300000Y-103060000D01*
X145800000Y-103060000D01*
X145800000Y-102310000D01*
X144750000Y-102310000D01*
X144750000Y-102607844D01*
X124828026Y-102607844D01*
X124857989Y-102581881D01*
X124896896Y-102571317D01*
X124979426Y-102562887D01*
X125147738Y-102507115D01*
X125298652Y-102414030D01*
X125424030Y-102288652D01*
X125517115Y-102137738D01*
X125572887Y-101969426D01*
X125583500Y-101865545D01*
X125583499Y-100514456D01*
X125583498Y-100514447D01*
X126116500Y-100514447D01*
X126116500Y-101865537D01*
X126116501Y-101865553D01*
X126127113Y-101969427D01*
X126158960Y-102065537D01*
X126182885Y-102137738D01*
X126275970Y-102288652D01*
X126401348Y-102414030D01*
X126552262Y-102507115D01*
X126720574Y-102562887D01*
X126824455Y-102573500D01*
X127675544Y-102573499D01*
X127779426Y-102562887D01*
X127947738Y-102507115D01*
X128098652Y-102414030D01*
X128224030Y-102288652D01*
X128312712Y-102144876D01*
X128364658Y-102098153D01*
X128433620Y-102086930D01*
X128461577Y-102093791D01*
X128590799Y-102141989D01*
X128618050Y-102144918D01*
X128651345Y-102148499D01*
X128651362Y-102148500D01*
X130348638Y-102148500D01*
X130348654Y-102148499D01*
X130375692Y-102145591D01*
X130409201Y-102141989D01*
X130546204Y-102090889D01*
X130589827Y-102058232D01*
X130655292Y-102033816D01*
X130664138Y-102033500D01*
X130915862Y-102033500D01*
X130982901Y-102053185D01*
X130990166Y-102058228D01*
X131033796Y-102090889D01*
X131170799Y-102141989D01*
X131198050Y-102144918D01*
X131231345Y-102148499D01*
X131231362Y-102148500D01*
X132928638Y-102148500D01*
X132928654Y-102148499D01*
X132955692Y-102145591D01*
X132989201Y-102141989D01*
X133126204Y-102090889D01*
X133169827Y-102058232D01*
X133235292Y-102033816D01*
X133244138Y-102033500D01*
X135340288Y-102033500D01*
X135407327Y-102053185D01*
X135436654Y-102079464D01*
X135483842Y-102137735D01*
X135536830Y-102203170D01*
X135681161Y-102320047D01*
X135846638Y-102404362D01*
X136026029Y-102452430D01*
X136103157Y-102458500D01*
X137476842Y-102458499D01*
X137553971Y-102452430D01*
X137733362Y-102404362D01*
X137898839Y-102320047D01*
X138043170Y-102203170D01*
X138160047Y-102058839D01*
X138244362Y-101893362D01*
X138292430Y-101713971D01*
X138298500Y-101636843D01*
X138298500Y-101512155D01*
X144750000Y-101512155D01*
X144750000Y-101810000D01*
X145800000Y-101810000D01*
X146300000Y-101810000D01*
X148340000Y-101810000D01*
X148340000Y-101060000D01*
X147742155Y-101060000D01*
X147682627Y-101066401D01*
X147682620Y-101066403D01*
X147547913Y-101116645D01*
X147547906Y-101116649D01*
X147432812Y-101202809D01*
X147419266Y-101220905D01*
X147363332Y-101262775D01*
X147293640Y-101267759D01*
X147232318Y-101234273D01*
X147220734Y-101220905D01*
X147207187Y-101202809D01*
X147092093Y-101116649D01*
X147092086Y-101116645D01*
X146957379Y-101066403D01*
X146957372Y-101066401D01*
X146897844Y-101060000D01*
X146300000Y-101060000D01*
X146300000Y-101810000D01*
X145800000Y-101810000D01*
X145800000Y-101060000D01*
X145202155Y-101060000D01*
X145142627Y-101066401D01*
X145142620Y-101066403D01*
X145007913Y-101116645D01*
X145007906Y-101116649D01*
X144892812Y-101202809D01*
X144892809Y-101202812D01*
X144806649Y-101317906D01*
X144806645Y-101317913D01*
X144756403Y-101452620D01*
X144756401Y-101452627D01*
X144750000Y-101512155D01*
X138298500Y-101512155D01*
X138298499Y-100763158D01*
X138292430Y-100686029D01*
X138244362Y-100506638D01*
X138160047Y-100341161D01*
X138043170Y-100196830D01*
X137980851Y-100146365D01*
X137941140Y-100088879D01*
X137938812Y-100019048D01*
X137974607Y-99959044D01*
X137980852Y-99953634D01*
X137987004Y-99948652D01*
X138043170Y-99903170D01*
X138160047Y-99758839D01*
X138244362Y-99593362D01*
X138292430Y-99413971D01*
X138298500Y-99336843D01*
X138298499Y-98463158D01*
X138292430Y-98386029D01*
X138244362Y-98206638D01*
X138160047Y-98041161D01*
X138043170Y-97896830D01*
X137980851Y-97846365D01*
X137941140Y-97788879D01*
X137938812Y-97719048D01*
X137974607Y-97659044D01*
X137980852Y-97653634D01*
X138043170Y-97603170D01*
X138160047Y-97458839D01*
X138164318Y-97450456D01*
X141581500Y-97450456D01*
X141581500Y-100349542D01*
X141596091Y-100497699D01*
X141653760Y-100687808D01*
X141747401Y-100862998D01*
X141747405Y-100863005D01*
X141873431Y-101016568D01*
X142026994Y-101142594D01*
X142027001Y-101142598D01*
X142202191Y-101236239D01*
X142202193Y-101236239D01*
X142202196Y-101236241D01*
X142392299Y-101293908D01*
X142392298Y-101293908D01*
X142402766Y-101294938D01*
X142540453Y-101308500D01*
X143639546Y-101308499D01*
X143787701Y-101293908D01*
X143977804Y-101236241D01*
X144040346Y-101202812D01*
X144126662Y-101156675D01*
X144153004Y-101142595D01*
X144306568Y-101016568D01*
X144432595Y-100863004D01*
X144507656Y-100722574D01*
X144526239Y-100687808D01*
X144526239Y-100687807D01*
X144526241Y-100687804D01*
X144583908Y-100497701D01*
X144598500Y-100349547D01*
X144598500Y-99910779D01*
X144618185Y-99843740D01*
X144670989Y-99797985D01*
X144740147Y-99788041D01*
X144803703Y-99817066D01*
X144821763Y-99836464D01*
X144886739Y-99923261D01*
X145003796Y-100010889D01*
X145108656Y-100050000D01*
X145135463Y-100059999D01*
X145140799Y-100061989D01*
X145168050Y-100064918D01*
X145201345Y-100068499D01*
X145201362Y-100068500D01*
X146898638Y-100068500D01*
X146898654Y-100068499D01*
X146925692Y-100065591D01*
X146959201Y-100061989D01*
X146964537Y-100059999D01*
X146991344Y-100050000D01*
X147096204Y-100010889D01*
X147213261Y-99923261D01*
X147220733Y-99913278D01*
X147276665Y-99871408D01*
X147346356Y-99866422D01*
X147407680Y-99899906D01*
X147419262Y-99913274D01*
X147426739Y-99923261D01*
X147543796Y-100010889D01*
X147648656Y-100050000D01*
X147675463Y-100059999D01*
X147680799Y-100061989D01*
X147708050Y-100064918D01*
X147741345Y-100068499D01*
X147741362Y-100068500D01*
X149438638Y-100068500D01*
X149438654Y-100068499D01*
X149465692Y-100065591D01*
X149499201Y-100061989D01*
X149504537Y-100059999D01*
X149531344Y-100050000D01*
X149636204Y-100010889D01*
X149703190Y-99960743D01*
X149768653Y-99936327D01*
X149836926Y-99951178D01*
X149886332Y-100000584D01*
X149901500Y-100060011D01*
X149901500Y-101070605D01*
X149881815Y-101137644D01*
X149829011Y-101183399D01*
X149759853Y-101193343D01*
X149703189Y-101169872D01*
X149632089Y-101116647D01*
X149632086Y-101116645D01*
X149497379Y-101066403D01*
X149497372Y-101066401D01*
X149437844Y-101060000D01*
X148840000Y-101060000D01*
X148840000Y-103060000D01*
X149437828Y-103060000D01*
X149437844Y-103059999D01*
X149497372Y-103053598D01*
X149497379Y-103053596D01*
X149632086Y-103003354D01*
X149632093Y-103003350D01*
X149747187Y-102917190D01*
X149747190Y-102917187D01*
X149833350Y-102802093D01*
X149833352Y-102802090D01*
X149845798Y-102768720D01*
X149887669Y-102712786D01*
X149953133Y-102688368D01*
X150021406Y-102703219D01*
X150054726Y-102731594D01*
X150055030Y-102731291D01*
X150058812Y-102735073D01*
X150059958Y-102736049D01*
X150060545Y-102736806D01*
X150178187Y-102854448D01*
X150178196Y-102854455D01*
X150229165Y-102884598D01*
X150321399Y-102939145D01*
X150363530Y-102951385D01*
X150481164Y-102985561D01*
X150481167Y-102985561D01*
X150481169Y-102985562D01*
X150518498Y-102988500D01*
X150518504Y-102988500D01*
X150951496Y-102988500D01*
X150951502Y-102988500D01*
X150988831Y-102985562D01*
X150988833Y-102985561D01*
X150988835Y-102985561D01*
X151030962Y-102973321D01*
X151148601Y-102939145D01*
X151291807Y-102854453D01*
X151291812Y-102854448D01*
X151293995Y-102852755D01*
X151296029Y-102851956D01*
X151298522Y-102850482D01*
X151298759Y-102850883D01*
X151359030Y-102827217D01*
X151427548Y-102840894D01*
X151446005Y-102852755D01*
X151448197Y-102854456D01*
X151514718Y-102893796D01*
X151591399Y-102939145D01*
X151633530Y-102951385D01*
X151751164Y-102985561D01*
X151751167Y-102985561D01*
X151751169Y-102985562D01*
X151788498Y-102988500D01*
X151788504Y-102988500D01*
X152221496Y-102988500D01*
X152221502Y-102988500D01*
X152258831Y-102985562D01*
X152258833Y-102985561D01*
X152258835Y-102985561D01*
X152300962Y-102973321D01*
X152418601Y-102939145D01*
X152561807Y-102854453D01*
X152561812Y-102854448D01*
X152563995Y-102852755D01*
X152566029Y-102851956D01*
X152568522Y-102850482D01*
X152568759Y-102850883D01*
X152629030Y-102827217D01*
X152697548Y-102840894D01*
X152716005Y-102852755D01*
X152718197Y-102854456D01*
X152784718Y-102893796D01*
X152861399Y-102939145D01*
X152903530Y-102951385D01*
X153021164Y-102985561D01*
X153021167Y-102985561D01*
X153021169Y-102985562D01*
X153058498Y-102988500D01*
X153058504Y-102988500D01*
X153491496Y-102988500D01*
X153491502Y-102988500D01*
X153528831Y-102985562D01*
X153528833Y-102985561D01*
X153528835Y-102985561D01*
X153570962Y-102973321D01*
X153688601Y-102939145D01*
X153831807Y-102854453D01*
X153831812Y-102854448D01*
X153833995Y-102852755D01*
X153836029Y-102851956D01*
X153838522Y-102850482D01*
X153838759Y-102850883D01*
X153899030Y-102827217D01*
X153967548Y-102840894D01*
X153986005Y-102852755D01*
X153988197Y-102854456D01*
X154054718Y-102893796D01*
X154131399Y-102939145D01*
X154173530Y-102951385D01*
X154291164Y-102985561D01*
X154291167Y-102985561D01*
X154291169Y-102985562D01*
X154328498Y-102988500D01*
X154328504Y-102988500D01*
X154761496Y-102988500D01*
X154761502Y-102988500D01*
X154798831Y-102985562D01*
X154798833Y-102985561D01*
X154798835Y-102985561D01*
X154840962Y-102973321D01*
X154958601Y-102939145D01*
X155089869Y-102861512D01*
X155157589Y-102844331D01*
X155223852Y-102866491D01*
X155267615Y-102920956D01*
X155274985Y-102990436D01*
X155269170Y-103011577D01*
X155246402Y-103072621D01*
X155246401Y-103072627D01*
X155240000Y-103132155D01*
X155240000Y-103430000D01*
X156290000Y-103430000D01*
X156790000Y-103430000D01*
X158770000Y-103430000D01*
X158770000Y-102680000D01*
X158172155Y-102680000D01*
X158112627Y-102686401D01*
X158112620Y-102686403D01*
X157977913Y-102736645D01*
X157977906Y-102736649D01*
X157855712Y-102828125D01*
X157853777Y-102825540D01*
X157806315Y-102851435D01*
X157736625Y-102846425D01*
X157705542Y-102826449D01*
X157704288Y-102828125D01*
X157582093Y-102736649D01*
X157582086Y-102736645D01*
X157447379Y-102686403D01*
X157447372Y-102686401D01*
X157387844Y-102680000D01*
X156790000Y-102680000D01*
X156790000Y-103430000D01*
X156290000Y-103430000D01*
X156290000Y-102680000D01*
X155692155Y-102680000D01*
X155632627Y-102686401D01*
X155632620Y-102686403D01*
X155497913Y-102736645D01*
X155497906Y-102736649D01*
X155493040Y-102740292D01*
X155427575Y-102764705D01*
X155359302Y-102749849D01*
X155309900Y-102700440D01*
X155295052Y-102632166D01*
X155302612Y-102601278D01*
X155301969Y-102601092D01*
X155350561Y-102433835D01*
X155350562Y-102433829D01*
X155352120Y-102414030D01*
X155353500Y-102396502D01*
X155353500Y-100613498D01*
X155350562Y-100576169D01*
X155349608Y-100572886D01*
X155304146Y-100416403D01*
X155304145Y-100416399D01*
X155219453Y-100273193D01*
X155219451Y-100273191D01*
X155219448Y-100273187D01*
X155101812Y-100155551D01*
X155101803Y-100155544D01*
X154958601Y-100070855D01*
X154958596Y-100070853D01*
X154798835Y-100024438D01*
X154798829Y-100024437D01*
X154761507Y-100021500D01*
X154761502Y-100021500D01*
X154328498Y-100021500D01*
X154328492Y-100021500D01*
X154291174Y-100024437D01*
X154284942Y-100025576D01*
X154284681Y-100024151D01*
X154222208Y-100023964D01*
X154163544Y-99986013D01*
X154134710Y-99922370D01*
X154133500Y-99905092D01*
X154133500Y-99264986D01*
X160005001Y-99264986D01*
X160015494Y-99367697D01*
X160070641Y-99534119D01*
X160070643Y-99534124D01*
X160162684Y-99683345D01*
X160286654Y-99807315D01*
X160435875Y-99899356D01*
X160435880Y-99899358D01*
X160602302Y-99954505D01*
X160602309Y-99954506D01*
X160705019Y-99964999D01*
X161129999Y-99964999D01*
X161130000Y-99964998D01*
X161130000Y-99090000D01*
X161630000Y-99090000D01*
X161630000Y-99964999D01*
X162054972Y-99964999D01*
X162054986Y-99964998D01*
X162157697Y-99954505D01*
X162324119Y-99899358D01*
X162324124Y-99899356D01*
X162473345Y-99807315D01*
X162597315Y-99683345D01*
X162643885Y-99607844D01*
X174700000Y-99607844D01*
X174706401Y-99667372D01*
X174706403Y-99667379D01*
X174756645Y-99802086D01*
X174756649Y-99802093D01*
X174842809Y-99917187D01*
X174842812Y-99917190D01*
X174957906Y-100003350D01*
X174957913Y-100003354D01*
X175092620Y-100053596D01*
X175092627Y-100053598D01*
X175152155Y-100059999D01*
X175152172Y-100060000D01*
X175750000Y-100060000D01*
X176250000Y-100060000D01*
X176847828Y-100060000D01*
X176847844Y-100059999D01*
X176907372Y-100053598D01*
X176907379Y-100053596D01*
X177042086Y-100003354D01*
X177042093Y-100003350D01*
X177157187Y-99917190D01*
X177157190Y-99917187D01*
X177243350Y-99802093D01*
X177243354Y-99802086D01*
X177293596Y-99667379D01*
X177293598Y-99667372D01*
X177299999Y-99607844D01*
X177300000Y-99607827D01*
X177300000Y-99310000D01*
X176250000Y-99310000D01*
X176250000Y-100060000D01*
X175750000Y-100060000D01*
X175750000Y-99310000D01*
X174700000Y-99310000D01*
X174700000Y-99607844D01*
X162643885Y-99607844D01*
X162649701Y-99598415D01*
X162701649Y-99551691D01*
X162770612Y-99540468D01*
X162798573Y-99547330D01*
X162922620Y-99593596D01*
X162922627Y-99593598D01*
X162982155Y-99599999D01*
X162982172Y-99600000D01*
X163580000Y-99600000D01*
X164080000Y-99600000D01*
X164677828Y-99600000D01*
X164677844Y-99599999D01*
X164737372Y-99593598D01*
X164737379Y-99593596D01*
X164872086Y-99543354D01*
X164872093Y-99543350D01*
X164987187Y-99457190D01*
X164987190Y-99457187D01*
X165073350Y-99342093D01*
X165073354Y-99342086D01*
X165123596Y-99207379D01*
X165123598Y-99207372D01*
X165129999Y-99147844D01*
X165130000Y-99147827D01*
X165130000Y-98850000D01*
X164080000Y-98850000D01*
X164080000Y-99600000D01*
X163580000Y-99600000D01*
X163580000Y-98850000D01*
X162798000Y-98850000D01*
X162798000Y-98966000D01*
X162778315Y-99033039D01*
X162725511Y-99078794D01*
X162674000Y-99090000D01*
X161630000Y-99090000D01*
X161130000Y-99090000D01*
X160005001Y-99090000D01*
X160005001Y-99264986D01*
X154133500Y-99264986D01*
X154133500Y-99112272D01*
X154153185Y-99045233D01*
X154205989Y-98999478D01*
X154244898Y-98988914D01*
X154279426Y-98985387D01*
X154447738Y-98929615D01*
X154598652Y-98836530D01*
X154724030Y-98711152D01*
X154817115Y-98560238D01*
X154865237Y-98415013D01*
X160005000Y-98415013D01*
X160005000Y-98590000D01*
X161130000Y-98590000D01*
X161130000Y-97715000D01*
X161630000Y-97715000D01*
X161630000Y-98590000D01*
X162487000Y-98590000D01*
X162487000Y-98512155D01*
X174700000Y-98512155D01*
X174700000Y-98810000D01*
X175750000Y-98810000D01*
X176250000Y-98810000D01*
X177300000Y-98810000D01*
X177300000Y-98512172D01*
X177299999Y-98512155D01*
X177293598Y-98452627D01*
X177293596Y-98452620D01*
X177243354Y-98317913D01*
X177243350Y-98317906D01*
X177157190Y-98202812D01*
X177157187Y-98202809D01*
X177042093Y-98116649D01*
X177042086Y-98116645D01*
X176907379Y-98066403D01*
X176907372Y-98066401D01*
X176847844Y-98060000D01*
X176250000Y-98060000D01*
X176250000Y-98810000D01*
X175750000Y-98810000D01*
X175750000Y-98060000D01*
X175152155Y-98060000D01*
X175092627Y-98066401D01*
X175092620Y-98066403D01*
X174957913Y-98116645D01*
X174957906Y-98116649D01*
X174842812Y-98202809D01*
X174842809Y-98202812D01*
X174756649Y-98317906D01*
X174756645Y-98317913D01*
X174706403Y-98452620D01*
X174706401Y-98452627D01*
X174700000Y-98512155D01*
X162487000Y-98512155D01*
X162487000Y-98474000D01*
X162506685Y-98406961D01*
X162559489Y-98361206D01*
X162611000Y-98350000D01*
X163580000Y-98350000D01*
X164080000Y-98350000D01*
X165130000Y-98350000D01*
X165130000Y-98052172D01*
X165129999Y-98052155D01*
X165123598Y-97992627D01*
X165123596Y-97992620D01*
X165073354Y-97857913D01*
X165073350Y-97857906D01*
X164987190Y-97742812D01*
X164987187Y-97742809D01*
X164872093Y-97656649D01*
X164872086Y-97656645D01*
X164737379Y-97606403D01*
X164737372Y-97606401D01*
X164677844Y-97600000D01*
X164080000Y-97600000D01*
X164080000Y-98350000D01*
X163580000Y-98350000D01*
X163580000Y-97600000D01*
X162982155Y-97600000D01*
X162922627Y-97606401D01*
X162922620Y-97606403D01*
X162787913Y-97656645D01*
X162787906Y-97656649D01*
X162672812Y-97742809D01*
X162611203Y-97825108D01*
X162555269Y-97866978D01*
X162485577Y-97871962D01*
X162446841Y-97856335D01*
X162324128Y-97780645D01*
X162324119Y-97780641D01*
X162157697Y-97725494D01*
X162157690Y-97725493D01*
X162054986Y-97715000D01*
X161630000Y-97715000D01*
X161130000Y-97715000D01*
X160705028Y-97715000D01*
X160705012Y-97715001D01*
X160602302Y-97725494D01*
X160435880Y-97780641D01*
X160435875Y-97780643D01*
X160286654Y-97872684D01*
X160162684Y-97996654D01*
X160070643Y-98145875D01*
X160070641Y-98145880D01*
X160015494Y-98312302D01*
X160015493Y-98312309D01*
X160005000Y-98415013D01*
X154865237Y-98415013D01*
X154872887Y-98391926D01*
X154883500Y-98288045D01*
X154883499Y-97561956D01*
X154872887Y-97458074D01*
X154817115Y-97289762D01*
X154724030Y-97138848D01*
X154598652Y-97013470D01*
X154474669Y-96936996D01*
X154447740Y-96920386D01*
X154447735Y-96920384D01*
X154279427Y-96864613D01*
X154175545Y-96854000D01*
X152824462Y-96854000D01*
X152824446Y-96854001D01*
X152720572Y-96864613D01*
X152552264Y-96920384D01*
X152552259Y-96920386D01*
X152401346Y-97013471D01*
X152275971Y-97138846D01*
X152182886Y-97289759D01*
X152182884Y-97289764D01*
X152127113Y-97458072D01*
X152116500Y-97561947D01*
X152116500Y-98288037D01*
X152116501Y-98288053D01*
X152127113Y-98391927D01*
X152147227Y-98452627D01*
X152182885Y-98560238D01*
X152275970Y-98711152D01*
X152401348Y-98836530D01*
X152407592Y-98840381D01*
X152454319Y-98892325D01*
X152466500Y-98945922D01*
X152466500Y-99218390D01*
X152446815Y-99285429D01*
X152394011Y-99331184D01*
X152324853Y-99341128D01*
X152261297Y-99312103D01*
X152254819Y-99306071D01*
X151201328Y-98252580D01*
X151201320Y-98252574D01*
X151064812Y-98161362D01*
X150913123Y-98098531D01*
X150913115Y-98098529D01*
X150752096Y-98066500D01*
X150752093Y-98066500D01*
X149544333Y-98066500D01*
X149506772Y-98059723D01*
X149506755Y-98059796D01*
X149505391Y-98059473D01*
X149500997Y-98058681D01*
X149499202Y-98058011D01*
X149499197Y-98058010D01*
X149438654Y-98051500D01*
X149438638Y-98051500D01*
X147741362Y-98051500D01*
X147741345Y-98051500D01*
X147680802Y-98058010D01*
X147680797Y-98058011D01*
X147679003Y-98058681D01*
X147674608Y-98059473D01*
X147673245Y-98059796D01*
X147673227Y-98059723D01*
X147635667Y-98066500D01*
X147004333Y-98066500D01*
X146966772Y-98059723D01*
X146966755Y-98059796D01*
X146965391Y-98059473D01*
X146960997Y-98058681D01*
X146959202Y-98058011D01*
X146959197Y-98058010D01*
X146898654Y-98051500D01*
X146898638Y-98051500D01*
X145201362Y-98051500D01*
X145201345Y-98051500D01*
X145140802Y-98058010D01*
X145140797Y-98058011D01*
X145139003Y-98058681D01*
X145134608Y-98059473D01*
X145133245Y-98059796D01*
X145133227Y-98059723D01*
X145095667Y-98066500D01*
X144722499Y-98066500D01*
X144655460Y-98046815D01*
X144609705Y-97994011D01*
X144598499Y-97942500D01*
X144598499Y-97450457D01*
X144583908Y-97302300D01*
X144581196Y-97293360D01*
X144526241Y-97112196D01*
X144526239Y-97112193D01*
X144526239Y-97112191D01*
X144432598Y-96937001D01*
X144432594Y-96936994D01*
X144306568Y-96783431D01*
X144153005Y-96657405D01*
X144152998Y-96657401D01*
X143977808Y-96563760D01*
X143882752Y-96534925D01*
X143787701Y-96506092D01*
X143787699Y-96506091D01*
X143787701Y-96506091D01*
X143681415Y-96495623D01*
X143639547Y-96491500D01*
X143639543Y-96491500D01*
X142540457Y-96491500D01*
X142392300Y-96506091D01*
X142202191Y-96563760D01*
X142027001Y-96657401D01*
X142026994Y-96657405D01*
X141873431Y-96783431D01*
X141747405Y-96936994D01*
X141747401Y-96937001D01*
X141653760Y-97112191D01*
X141596091Y-97302300D01*
X141581500Y-97450456D01*
X138164318Y-97450456D01*
X138244362Y-97293362D01*
X138292430Y-97113971D01*
X138298500Y-97036843D01*
X138298499Y-96163158D01*
X138292430Y-96086029D01*
X138244362Y-95906638D01*
X138160047Y-95741161D01*
X138043170Y-95596830D01*
X137898839Y-95479953D01*
X137733362Y-95395638D01*
X137733361Y-95395637D01*
X137733360Y-95395637D01*
X137553969Y-95347569D01*
X137488981Y-95342455D01*
X137476843Y-95341500D01*
X137476841Y-95341500D01*
X136103167Y-95341500D01*
X136103148Y-95341501D01*
X136026030Y-95347569D01*
X135846639Y-95395637D01*
X135681160Y-95479953D01*
X135656087Y-95500256D01*
X135591599Y-95527146D01*
X135534719Y-95520069D01*
X135532371Y-95519193D01*
X135529202Y-95518011D01*
X135529197Y-95518010D01*
X135468654Y-95511500D01*
X135468638Y-95511500D01*
X133771362Y-95511500D01*
X133771345Y-95511500D01*
X133710797Y-95518011D01*
X133710795Y-95518011D01*
X133573793Y-95569111D01*
X133573793Y-95569112D01*
X133505358Y-95620342D01*
X133439894Y-95644759D01*
X133371621Y-95629907D01*
X133325510Y-95586173D01*
X133304030Y-95551348D01*
X133178652Y-95425970D01*
X133051546Y-95347570D01*
X133027740Y-95332886D01*
X133027735Y-95332884D01*
X132859427Y-95277113D01*
X132755545Y-95266500D01*
X131404462Y-95266500D01*
X131404446Y-95266501D01*
X131300572Y-95277113D01*
X131132264Y-95332884D01*
X131132259Y-95332886D01*
X130981346Y-95425971D01*
X130855970Y-95551347D01*
X130855967Y-95551351D01*
X130764162Y-95700190D01*
X130712214Y-95746915D01*
X130643252Y-95758136D01*
X130579170Y-95730293D01*
X130540918Y-95674096D01*
X130517115Y-95602262D01*
X130424030Y-95451348D01*
X130298652Y-95325970D01*
X130147738Y-95232885D01*
X130147735Y-95232884D01*
X129979427Y-95177113D01*
X129875545Y-95166500D01*
X128524462Y-95166500D01*
X128524446Y-95166501D01*
X128420572Y-95177113D01*
X128252264Y-95232884D01*
X128252259Y-95232886D01*
X128101346Y-95325971D01*
X127975971Y-95451346D01*
X127882886Y-95602259D01*
X127882884Y-95602264D01*
X127827113Y-95770572D01*
X127816500Y-95874447D01*
X127816500Y-96725537D01*
X127816501Y-96725553D01*
X127827113Y-96829427D01*
X127882884Y-96997735D01*
X127882886Y-96997740D01*
X127892589Y-97013471D01*
X127975970Y-97148652D01*
X128101348Y-97274030D01*
X128252262Y-97367115D01*
X128420574Y-97422887D01*
X128524455Y-97433500D01*
X129410294Y-97433499D01*
X129410312Y-97433500D01*
X129417907Y-97433500D01*
X129582093Y-97433500D01*
X131042598Y-97433500D01*
X131107694Y-97451961D01*
X131132262Y-97467115D01*
X131300574Y-97522887D01*
X131404455Y-97533500D01*
X132755544Y-97533499D01*
X132859426Y-97522887D01*
X133027738Y-97467115D01*
X133052305Y-97451961D01*
X133117402Y-97433500D01*
X133482579Y-97433500D01*
X133549618Y-97453185D01*
X133556890Y-97458234D01*
X133573792Y-97470887D01*
X133573793Y-97470888D01*
X133573796Y-97470889D01*
X133710799Y-97521989D01*
X133738050Y-97524918D01*
X133771345Y-97528499D01*
X133771362Y-97528500D01*
X135417219Y-97528500D01*
X135484258Y-97548185D01*
X135513582Y-97574461D01*
X135536830Y-97603170D01*
X135567190Y-97627755D01*
X135599148Y-97653635D01*
X135638859Y-97711122D01*
X135641186Y-97780953D01*
X135605390Y-97840957D01*
X135599148Y-97846365D01*
X135536830Y-97896829D01*
X135436654Y-98020536D01*
X135379166Y-98060248D01*
X135340288Y-98066500D01*
X130237402Y-98066500D01*
X130172305Y-98048038D01*
X130160890Y-98040997D01*
X130147742Y-98032887D01*
X130147739Y-98032885D01*
X130147738Y-98032885D01*
X130147735Y-98032884D01*
X129979427Y-97977113D01*
X129875545Y-97966500D01*
X128524462Y-97966500D01*
X128524446Y-97966501D01*
X128420572Y-97977113D01*
X128252264Y-98032884D01*
X128252259Y-98032886D01*
X128101346Y-98125971D01*
X127975971Y-98251346D01*
X127882886Y-98402259D01*
X127882884Y-98402264D01*
X127827113Y-98570572D01*
X127816500Y-98674447D01*
X127816500Y-99525537D01*
X127816501Y-99525553D01*
X127827113Y-99629430D01*
X127832903Y-99646903D01*
X127835304Y-99716731D01*
X127799572Y-99776772D01*
X127737051Y-99807964D01*
X127702596Y-99809263D01*
X127675548Y-99806500D01*
X126824462Y-99806500D01*
X126824446Y-99806501D01*
X126720572Y-99817113D01*
X126552264Y-99872884D01*
X126552259Y-99872886D01*
X126401346Y-99965971D01*
X126275971Y-100091346D01*
X126182886Y-100242259D01*
X126182884Y-100242264D01*
X126127113Y-100410572D01*
X126116500Y-100514447D01*
X125583498Y-100514447D01*
X125572887Y-100410574D01*
X125517115Y-100242262D01*
X125424030Y-100091348D01*
X125424029Y-100091347D01*
X125421961Y-100087994D01*
X125403500Y-100022897D01*
X125403500Y-94024986D01*
X130705001Y-94024986D01*
X130715494Y-94127697D01*
X130770641Y-94294119D01*
X130770643Y-94294124D01*
X130862684Y-94443345D01*
X130986654Y-94567315D01*
X131135875Y-94659356D01*
X131135880Y-94659358D01*
X131302302Y-94714505D01*
X131302309Y-94714506D01*
X131405019Y-94724999D01*
X131829999Y-94724999D01*
X131830000Y-94724998D01*
X131830000Y-93850000D01*
X132330000Y-93850000D01*
X132330000Y-94724999D01*
X132754972Y-94724999D01*
X132754986Y-94724998D01*
X132857697Y-94714505D01*
X133024119Y-94659358D01*
X133024124Y-94659356D01*
X133173345Y-94567315D01*
X133297316Y-94443344D01*
X133297317Y-94443342D01*
X133306277Y-94428817D01*
X133358224Y-94382091D01*
X133427186Y-94370867D01*
X133486128Y-94394644D01*
X133577911Y-94463353D01*
X133577913Y-94463354D01*
X133712620Y-94513596D01*
X133712627Y-94513598D01*
X133772155Y-94519999D01*
X133772172Y-94520000D01*
X134370000Y-94520000D01*
X134870000Y-94520000D01*
X135467828Y-94520000D01*
X135467844Y-94519999D01*
X135527372Y-94513598D01*
X135527379Y-94513596D01*
X135662086Y-94463354D01*
X135662093Y-94463350D01*
X135777187Y-94377190D01*
X135777190Y-94377187D01*
X135863350Y-94262093D01*
X135863354Y-94262086D01*
X135913596Y-94127379D01*
X135913598Y-94127372D01*
X135919999Y-94067844D01*
X135920000Y-94067827D01*
X135920000Y-93770000D01*
X134870000Y-93770000D01*
X134870000Y-94520000D01*
X134370000Y-94520000D01*
X134370000Y-93770000D01*
X133498000Y-93770000D01*
X133479709Y-93788290D01*
X133478315Y-93793039D01*
X133425511Y-93838794D01*
X133374000Y-93850000D01*
X132330000Y-93850000D01*
X131830000Y-93850000D01*
X130705001Y-93850000D01*
X130705001Y-94024986D01*
X125403500Y-94024986D01*
X125403500Y-93175013D01*
X130705000Y-93175013D01*
X130705000Y-93350000D01*
X131830000Y-93350000D01*
X132330000Y-93350000D01*
X133277000Y-93350000D01*
X133295290Y-93331709D01*
X133296685Y-93326961D01*
X133349489Y-93281206D01*
X133401000Y-93270000D01*
X134370000Y-93270000D01*
X134870000Y-93270000D01*
X135920000Y-93270000D01*
X135920000Y-92972172D01*
X135919999Y-92972155D01*
X135913598Y-92912627D01*
X135913596Y-92912620D01*
X135863354Y-92777913D01*
X135863350Y-92777906D01*
X135777190Y-92662812D01*
X135777187Y-92662809D01*
X135662093Y-92576649D01*
X135662086Y-92576645D01*
X135527379Y-92526403D01*
X135527372Y-92526401D01*
X135467844Y-92520000D01*
X134870000Y-92520000D01*
X134870000Y-93270000D01*
X134370000Y-93270000D01*
X134370000Y-92520000D01*
X133772155Y-92520000D01*
X133712627Y-92526401D01*
X133712620Y-92526403D01*
X133577913Y-92576645D01*
X133577906Y-92576649D01*
X133462812Y-92662809D01*
X133462810Y-92662811D01*
X133437541Y-92696566D01*
X133381607Y-92738436D01*
X133311915Y-92743419D01*
X133250595Y-92709934D01*
X133173345Y-92632684D01*
X133024124Y-92540643D01*
X133024119Y-92540641D01*
X132857697Y-92485494D01*
X132857690Y-92485493D01*
X132754986Y-92475000D01*
X132330000Y-92475000D01*
X132330000Y-93350000D01*
X131830000Y-93350000D01*
X131830000Y-92475000D01*
X131405028Y-92475000D01*
X131405012Y-92475001D01*
X131302302Y-92485494D01*
X131135880Y-92540641D01*
X131135875Y-92540643D01*
X130986654Y-92632684D01*
X130862684Y-92756654D01*
X130770643Y-92905875D01*
X130770641Y-92905880D01*
X130715494Y-93072302D01*
X130715493Y-93072309D01*
X130705000Y-93175013D01*
X125403500Y-93175013D01*
X125403500Y-90536609D01*
X125423185Y-90469570D01*
X125439819Y-90448928D01*
X129468752Y-86419995D01*
X148814953Y-86419995D01*
X148814953Y-86420004D01*
X148835113Y-86689026D01*
X148835113Y-86689028D01*
X148895142Y-86952033D01*
X148895148Y-86952052D01*
X148993709Y-87203181D01*
X148993708Y-87203181D01*
X149128602Y-87436822D01*
X149182294Y-87504151D01*
X149182295Y-87504151D01*
X149904153Y-86782293D01*
X149911049Y-86798942D01*
X149998599Y-86929970D01*
X150110030Y-87041401D01*
X150241058Y-87128951D01*
X150257705Y-87135846D01*
X149534848Y-87858702D01*
X149717483Y-87983220D01*
X149717485Y-87983221D01*
X149960539Y-88100269D01*
X149960537Y-88100269D01*
X150218337Y-88179790D01*
X150218343Y-88179792D01*
X150485101Y-88219999D01*
X150485110Y-88220000D01*
X150754890Y-88220000D01*
X150754898Y-88219999D01*
X151021656Y-88179792D01*
X151021662Y-88179790D01*
X151279461Y-88100269D01*
X151487331Y-88000165D01*
X151556272Y-87988813D01*
X151620406Y-88016535D01*
X151659372Y-88074531D01*
X151660797Y-88144386D01*
X151656560Y-88157187D01*
X151574915Y-88365214D01*
X151574914Y-88365219D01*
X151574910Y-88365231D01*
X151516264Y-88622176D01*
X151496569Y-88884995D01*
X151496569Y-88885004D01*
X151516264Y-89147823D01*
X151516265Y-89147826D01*
X151574913Y-89404780D01*
X151671204Y-89650124D01*
X151761319Y-89806209D01*
X151769022Y-89819550D01*
X151785495Y-89887450D01*
X151762642Y-89953477D01*
X151707721Y-89996668D01*
X151638168Y-90003309D01*
X151591783Y-89984004D01*
X151522517Y-89936779D01*
X151522516Y-89936778D01*
X151279460Y-89819730D01*
X151279462Y-89819730D01*
X151021662Y-89740209D01*
X151021656Y-89740207D01*
X150754898Y-89700000D01*
X150485101Y-89700000D01*
X150218343Y-89740207D01*
X150218337Y-89740209D01*
X149960538Y-89819730D01*
X149717485Y-89936778D01*
X149717476Y-89936783D01*
X149534848Y-90061296D01*
X150257705Y-90784153D01*
X150241058Y-90791049D01*
X150110030Y-90878599D01*
X149998599Y-90990030D01*
X149911049Y-91121058D01*
X149904153Y-91137706D01*
X149182295Y-90415848D01*
X149128600Y-90483180D01*
X148993709Y-90716818D01*
X148895148Y-90967947D01*
X148895142Y-90967966D01*
X148835113Y-91230971D01*
X148835113Y-91230973D01*
X148814953Y-91499995D01*
X148814953Y-91500004D01*
X148835113Y-91769026D01*
X148835113Y-91769028D01*
X148895142Y-92032033D01*
X148895148Y-92032052D01*
X148993709Y-92283181D01*
X148993708Y-92283181D01*
X149128602Y-92516822D01*
X149182294Y-92584151D01*
X149182295Y-92584151D01*
X149904153Y-91862293D01*
X149911049Y-91878942D01*
X149998599Y-92009970D01*
X150110030Y-92121401D01*
X150241058Y-92208951D01*
X150257705Y-92215846D01*
X149534848Y-92938702D01*
X149717483Y-93063220D01*
X149717485Y-93063221D01*
X149960539Y-93180269D01*
X149960537Y-93180269D01*
X150218337Y-93259790D01*
X150218343Y-93259792D01*
X150485101Y-93299999D01*
X150485110Y-93300000D01*
X150754890Y-93300000D01*
X150754898Y-93299999D01*
X151021656Y-93259792D01*
X151021662Y-93259790D01*
X151279461Y-93180269D01*
X151522521Y-93063218D01*
X151705150Y-92938702D01*
X150982294Y-92215846D01*
X150998942Y-92208951D01*
X151129970Y-92121401D01*
X151241401Y-92009970D01*
X151328951Y-91878942D01*
X151335846Y-91862294D01*
X152057703Y-92584151D01*
X152057704Y-92584150D01*
X152111393Y-92516828D01*
X152111400Y-92516817D01*
X152246290Y-92283181D01*
X152327072Y-92077354D01*
X152369888Y-92022140D01*
X152435758Y-91998839D01*
X152503768Y-92014850D01*
X152552327Y-92065088D01*
X152566500Y-92122656D01*
X152566500Y-93917396D01*
X152546815Y-93984435D01*
X152507597Y-94022934D01*
X152401351Y-94088467D01*
X152401347Y-94088470D01*
X152275971Y-94213846D01*
X152182886Y-94364759D01*
X152182884Y-94364764D01*
X152127113Y-94533072D01*
X152116500Y-94636947D01*
X152116500Y-95363037D01*
X152116501Y-95363053D01*
X152127113Y-95466927D01*
X152182884Y-95635235D01*
X152182886Y-95635240D01*
X152196147Y-95656739D01*
X152275970Y-95786152D01*
X152401348Y-95911530D01*
X152552262Y-96004615D01*
X152720574Y-96060387D01*
X152824455Y-96071000D01*
X154175544Y-96070999D01*
X154279426Y-96060387D01*
X154447738Y-96004615D01*
X154598652Y-95911530D01*
X154724030Y-95786152D01*
X154817115Y-95635238D01*
X154872887Y-95466926D01*
X154883500Y-95363045D01*
X154883499Y-94636956D01*
X154872887Y-94533074D01*
X154817115Y-94364762D01*
X154724030Y-94213848D01*
X154598652Y-94088470D01*
X154447738Y-93995385D01*
X154433500Y-93990667D01*
X154318496Y-93952559D01*
X154261051Y-93912787D01*
X154234228Y-93848271D01*
X154233500Y-93834853D01*
X154233500Y-92664309D01*
X154253185Y-92597270D01*
X154269819Y-92576628D01*
X154984153Y-91862293D01*
X154991049Y-91878942D01*
X155078599Y-92009970D01*
X155190030Y-92121401D01*
X155321058Y-92208951D01*
X155337705Y-92215846D01*
X154614848Y-92938702D01*
X154797483Y-93063220D01*
X154797485Y-93063221D01*
X155040539Y-93180269D01*
X155040537Y-93180269D01*
X155298337Y-93259790D01*
X155298343Y-93259792D01*
X155565101Y-93299999D01*
X155565110Y-93300000D01*
X155834890Y-93300000D01*
X155834898Y-93299999D01*
X156101656Y-93259792D01*
X156101662Y-93259790D01*
X156359461Y-93180269D01*
X156602521Y-93063218D01*
X156785150Y-92938702D01*
X156062294Y-92215846D01*
X156078942Y-92208951D01*
X156209970Y-92121401D01*
X156321401Y-92009970D01*
X156408951Y-91878942D01*
X156415846Y-91862294D01*
X157137703Y-92584151D01*
X157137704Y-92584150D01*
X157191393Y-92516828D01*
X157191400Y-92516817D01*
X157326290Y-92283181D01*
X157424851Y-92032052D01*
X157424857Y-92032033D01*
X157484886Y-91769028D01*
X157484886Y-91769026D01*
X157505047Y-91500004D01*
X157505047Y-91499995D01*
X157484886Y-91230973D01*
X157484886Y-91230971D01*
X157424857Y-90967966D01*
X157424851Y-90967947D01*
X157326290Y-90716818D01*
X157326291Y-90716818D01*
X157191397Y-90483177D01*
X157137704Y-90415847D01*
X156415846Y-91137705D01*
X156408951Y-91121058D01*
X156321401Y-90990030D01*
X156209970Y-90878599D01*
X156078942Y-90791049D01*
X156062293Y-90784152D01*
X156785150Y-90061296D01*
X156602517Y-89936779D01*
X156602516Y-89936778D01*
X156359460Y-89819730D01*
X156359462Y-89819730D01*
X156101662Y-89740209D01*
X156101656Y-89740207D01*
X155834898Y-89700000D01*
X155565101Y-89700000D01*
X155298343Y-89740207D01*
X155298337Y-89740209D01*
X155040541Y-89819729D01*
X155001505Y-89838528D01*
X154932564Y-89849879D01*
X154868429Y-89822156D01*
X154829465Y-89764160D01*
X154828040Y-89694305D01*
X154840317Y-89664809D01*
X154848796Y-89650124D01*
X154945087Y-89404780D01*
X155003735Y-89147826D01*
X155023431Y-88885000D01*
X155003735Y-88622174D01*
X154945087Y-88365220D01*
X154907701Y-88269964D01*
X154901533Y-88200371D01*
X154933970Y-88138488D01*
X154994715Y-88103965D01*
X155059680Y-88106174D01*
X155298337Y-88179790D01*
X155298343Y-88179792D01*
X155565101Y-88219999D01*
X155565110Y-88220000D01*
X155834890Y-88220000D01*
X155834898Y-88219999D01*
X156101656Y-88179792D01*
X156101662Y-88179790D01*
X156359461Y-88100269D01*
X156602521Y-87983218D01*
X156785150Y-87858702D01*
X156062294Y-87135846D01*
X156078942Y-87128951D01*
X156209970Y-87041401D01*
X156321401Y-86929970D01*
X156408951Y-86798942D01*
X156415846Y-86782294D01*
X157137703Y-87504151D01*
X157137704Y-87504150D01*
X157191393Y-87436828D01*
X157191400Y-87436817D01*
X157326290Y-87203181D01*
X157424851Y-86952052D01*
X157424857Y-86952033D01*
X157484886Y-86689028D01*
X157484886Y-86689026D01*
X157505047Y-86420004D01*
X157505047Y-86419995D01*
X157484886Y-86150973D01*
X157484886Y-86150971D01*
X157424857Y-85887966D01*
X157424851Y-85887947D01*
X157326290Y-85636818D01*
X157326291Y-85636818D01*
X157191397Y-85403177D01*
X157137704Y-85335847D01*
X156415846Y-86057705D01*
X156408951Y-86041058D01*
X156321401Y-85910030D01*
X156209970Y-85798599D01*
X156078942Y-85711049D01*
X156062294Y-85704153D01*
X156785150Y-84981296D01*
X156602517Y-84856779D01*
X156602516Y-84856778D01*
X156359460Y-84739730D01*
X156359462Y-84739730D01*
X156101662Y-84660209D01*
X156101656Y-84660207D01*
X155834898Y-84620000D01*
X155565101Y-84620000D01*
X155298343Y-84660207D01*
X155298337Y-84660209D01*
X155040538Y-84739730D01*
X154797485Y-84856778D01*
X154797476Y-84856783D01*
X154614848Y-84981296D01*
X155337705Y-85704153D01*
X155321058Y-85711049D01*
X155190030Y-85798599D01*
X155078599Y-85910030D01*
X154991049Y-86041058D01*
X154984153Y-86057706D01*
X154262295Y-85335848D01*
X154208600Y-85403180D01*
X154073709Y-85636818D01*
X153975148Y-85887947D01*
X153975142Y-85887966D01*
X153915113Y-86150971D01*
X153915113Y-86150973D01*
X153894953Y-86419995D01*
X153894953Y-86420004D01*
X153915113Y-86689026D01*
X153915113Y-86689028D01*
X153975142Y-86952033D01*
X153975146Y-86952047D01*
X154020967Y-87068795D01*
X154027136Y-87138392D01*
X153994698Y-87200276D01*
X153933953Y-87234799D01*
X153868990Y-87232589D01*
X153652405Y-87165783D01*
X153652395Y-87165780D01*
X153391788Y-87126500D01*
X153391781Y-87126500D01*
X153128219Y-87126500D01*
X153128211Y-87126500D01*
X152867604Y-87165780D01*
X152867598Y-87165782D01*
X152615742Y-87243469D01*
X152425349Y-87335158D01*
X152356408Y-87346510D01*
X152292274Y-87318788D01*
X152253308Y-87260792D01*
X152251883Y-87190937D01*
X152256120Y-87178135D01*
X152344853Y-86952047D01*
X152344857Y-86952033D01*
X152404886Y-86689028D01*
X152404886Y-86689026D01*
X152425047Y-86420004D01*
X152425047Y-86419995D01*
X152404886Y-86150973D01*
X152404886Y-86150971D01*
X152344857Y-85887966D01*
X152344851Y-85887947D01*
X152246290Y-85636818D01*
X152246291Y-85636818D01*
X152111397Y-85403177D01*
X152057704Y-85335847D01*
X151335846Y-86057705D01*
X151328951Y-86041058D01*
X151241401Y-85910030D01*
X151129970Y-85798599D01*
X150998942Y-85711049D01*
X150982294Y-85704153D01*
X151705150Y-84981296D01*
X151522517Y-84856779D01*
X151522516Y-84856778D01*
X151279460Y-84739730D01*
X151279462Y-84739730D01*
X151021662Y-84660209D01*
X151021656Y-84660207D01*
X150754898Y-84620000D01*
X150485101Y-84620000D01*
X150218343Y-84660207D01*
X150218337Y-84660209D01*
X149960538Y-84739730D01*
X149717485Y-84856778D01*
X149717476Y-84856783D01*
X149534848Y-84981296D01*
X150257705Y-85704153D01*
X150241058Y-85711049D01*
X150110030Y-85798599D01*
X149998599Y-85910030D01*
X149911049Y-86041058D01*
X149904153Y-86057706D01*
X149182295Y-85335848D01*
X149128600Y-85403180D01*
X148993709Y-85636818D01*
X148895148Y-85887947D01*
X148895142Y-85887966D01*
X148835113Y-86150971D01*
X148835113Y-86150973D01*
X148814953Y-86419995D01*
X129468752Y-86419995D01*
X135168928Y-80719819D01*
X135230251Y-80686334D01*
X135256609Y-80683500D01*
X149486418Y-80683500D01*
X149553457Y-80703185D01*
X149577646Y-80723515D01*
X149696760Y-80852906D01*
X149874424Y-80991189D01*
X149874425Y-80991189D01*
X149874427Y-80991191D01*
X149934314Y-81023600D01*
X150072426Y-81098342D01*
X150285365Y-81171444D01*
X150507431Y-81208500D01*
X150732569Y-81208500D01*
X150954635Y-81171444D01*
X151167574Y-81098342D01*
X151365576Y-80991189D01*
X151543240Y-80852906D01*
X151695722Y-80687268D01*
X151742700Y-80615360D01*
X151777618Y-80580080D01*
X151844022Y-80535710D01*
X151910697Y-80514833D01*
X151978077Y-80533317D01*
X152014486Y-80567689D01*
X152121894Y-80721082D01*
X152288917Y-80888105D01*
X152482421Y-81023600D01*
X152696507Y-81123429D01*
X152696516Y-81123433D01*
X152910000Y-81180634D01*
X152910000Y-80283012D01*
X152967007Y-80315925D01*
X153094174Y-80350000D01*
X153225826Y-80350000D01*
X153352993Y-80315925D01*
X153410000Y-80283012D01*
X153410000Y-81180633D01*
X153623483Y-81123433D01*
X153623492Y-81123429D01*
X153837578Y-81023600D01*
X154031078Y-80888108D01*
X154146914Y-80772272D01*
X154208237Y-80738787D01*
X154277929Y-80743771D01*
X154333863Y-80785642D01*
X154350777Y-80816619D01*
X154399110Y-80946203D01*
X154399111Y-80946204D01*
X154486739Y-81063261D01*
X154603796Y-81150889D01*
X154740799Y-81201989D01*
X154768050Y-81204918D01*
X154801345Y-81208499D01*
X154801362Y-81208500D01*
X156598638Y-81208500D01*
X156598654Y-81208499D01*
X156625692Y-81205591D01*
X156659201Y-81201989D01*
X156796204Y-81150889D01*
X156913261Y-81063261D01*
X157000889Y-80946204D01*
X157051989Y-80809201D01*
X157053597Y-80794242D01*
X157080334Y-80729694D01*
X157137727Y-80689846D01*
X157176886Y-80683500D01*
X170653391Y-80683500D01*
X170720430Y-80703185D01*
X170741072Y-80719819D01*
X180530181Y-90508928D01*
X180563666Y-90570251D01*
X180566500Y-90596609D01*
X180566500Y-102819456D01*
X180546815Y-102886495D01*
X180530181Y-102907137D01*
X180515971Y-102921346D01*
X180422886Y-103072259D01*
X180422884Y-103072264D01*
X180367113Y-103240572D01*
X180356500Y-103344447D01*
X180356500Y-104695537D01*
X180356501Y-104695553D01*
X180367113Y-104799427D01*
X180422884Y-104967735D01*
X180422886Y-104967740D01*
X180430802Y-104980574D01*
X180513292Y-105114311D01*
X180515971Y-105118653D01*
X180530181Y-105132863D01*
X180563666Y-105194186D01*
X180566500Y-105220544D01*
X180566500Y-109739337D01*
X180546815Y-109806376D01*
X180494011Y-109852131D01*
X180424853Y-109862075D01*
X180361297Y-109833050D01*
X180326318Y-109782671D01*
X180313353Y-109747911D01*
X180313350Y-109747906D01*
X180227190Y-109632812D01*
X180227187Y-109632809D01*
X180112093Y-109546649D01*
X180112086Y-109546645D01*
X179977379Y-109496403D01*
X179977372Y-109496401D01*
X179917844Y-109490000D01*
X179320000Y-109490000D01*
X179320000Y-111490000D01*
X179917828Y-111490000D01*
X179917844Y-111489999D01*
X179977372Y-111483598D01*
X179977379Y-111483596D01*
X180112086Y-111433354D01*
X180112093Y-111433350D01*
X180227187Y-111347190D01*
X180227190Y-111347187D01*
X180313350Y-111232093D01*
X180313354Y-111232086D01*
X180326318Y-111197329D01*
X180368189Y-111141395D01*
X180433653Y-111116978D01*
X180501926Y-111131829D01*
X180551332Y-111181235D01*
X180566500Y-111240662D01*
X180566500Y-112715019D01*
X180546815Y-112782058D01*
X180494011Y-112827813D01*
X180424853Y-112837757D01*
X180361297Y-112808732D01*
X180326319Y-112758354D01*
X180325629Y-112756505D01*
X180320889Y-112743796D01*
X180233261Y-112626739D01*
X180116204Y-112539111D01*
X180093147Y-112530511D01*
X179979203Y-112488011D01*
X179918654Y-112481500D01*
X179918638Y-112481500D01*
X179393240Y-112481500D01*
X179345787Y-112472061D01*
X179313123Y-112458531D01*
X179313115Y-112458529D01*
X179152096Y-112426500D01*
X179152093Y-112426500D01*
X178987907Y-112426500D01*
X178987904Y-112426500D01*
X178826884Y-112458529D01*
X178826876Y-112458531D01*
X178794213Y-112472061D01*
X178746760Y-112481500D01*
X178221345Y-112481500D01*
X178160797Y-112488011D01*
X178160795Y-112488011D01*
X178023795Y-112539111D01*
X177906738Y-112626739D01*
X177889841Y-112649312D01*
X177833907Y-112691182D01*
X177790575Y-112699000D01*
X177484288Y-112699000D01*
X177417249Y-112679315D01*
X177409977Y-112674267D01*
X177403261Y-112669239D01*
X177286204Y-112581611D01*
X177149203Y-112530511D01*
X177088654Y-112524000D01*
X177088638Y-112524000D01*
X175391362Y-112524000D01*
X175391345Y-112524000D01*
X175330797Y-112530511D01*
X175330795Y-112530511D01*
X175193795Y-112581611D01*
X175076739Y-112669239D01*
X174989111Y-112786295D01*
X174938011Y-112923295D01*
X174938011Y-112923297D01*
X174931500Y-112983845D01*
X174931500Y-113227500D01*
X174911815Y-113294539D01*
X174859011Y-113340294D01*
X174807500Y-113351500D01*
X172791345Y-113351500D01*
X172730797Y-113358011D01*
X172730795Y-113358011D01*
X172593795Y-113409111D01*
X172476739Y-113496739D01*
X172389111Y-113613795D01*
X172338011Y-113750795D01*
X172338011Y-113750797D01*
X172331500Y-113811345D01*
X172331500Y-114802500D01*
X172311815Y-114869539D01*
X172259011Y-114915294D01*
X172207500Y-114926500D01*
X169137670Y-114926500D01*
X169070631Y-114906815D01*
X169024876Y-114854011D01*
X169021489Y-114845835D01*
X168990888Y-114763794D01*
X168990887Y-114763792D01*
X168931387Y-114684311D01*
X168906969Y-114618847D01*
X168921820Y-114550574D01*
X168931387Y-114535689D01*
X168990887Y-114456207D01*
X168990888Y-114456206D01*
X168996602Y-114440888D01*
X169041989Y-114319201D01*
X169046995Y-114272638D01*
X169048499Y-114258654D01*
X169048500Y-114258637D01*
X169048500Y-112661362D01*
X169048499Y-112661345D01*
X169042833Y-112608654D01*
X169041989Y-112600799D01*
X169034832Y-112581611D01*
X169002975Y-112496200D01*
X168990889Y-112463796D01*
X168903261Y-112346739D01*
X168786204Y-112259111D01*
X168649203Y-112208011D01*
X168588654Y-112201500D01*
X168588638Y-112201500D01*
X166513608Y-112201500D01*
X166446569Y-112181815D01*
X166400814Y-112129011D01*
X166390870Y-112059853D01*
X166408068Y-112012404D01*
X166417115Y-111997738D01*
X166472887Y-111829426D01*
X166483500Y-111725545D01*
X166483499Y-111080344D01*
X174940000Y-111080344D01*
X174946401Y-111139872D01*
X174946403Y-111139879D01*
X174996645Y-111274586D01*
X174996649Y-111274593D01*
X175082809Y-111389687D01*
X175082812Y-111389690D01*
X175197906Y-111475850D01*
X175197913Y-111475854D01*
X175332620Y-111526096D01*
X175332627Y-111526098D01*
X175392155Y-111532499D01*
X175392172Y-111532500D01*
X175990000Y-111532500D01*
X175990000Y-110782500D01*
X174940000Y-110782500D01*
X174940000Y-111080344D01*
X166483499Y-111080344D01*
X166483499Y-110874456D01*
X166472887Y-110770574D01*
X166417115Y-110602262D01*
X166324030Y-110451348D01*
X166198652Y-110325970D01*
X166047738Y-110232885D01*
X166032060Y-110227690D01*
X165879427Y-110177113D01*
X165775545Y-110166500D01*
X164424462Y-110166500D01*
X164424446Y-110166501D01*
X164320572Y-110177113D01*
X164152264Y-110232884D01*
X164152259Y-110232886D01*
X164001346Y-110325971D01*
X163875971Y-110451346D01*
X163782886Y-110602259D01*
X163782884Y-110602264D01*
X163727113Y-110770572D01*
X163716500Y-110874447D01*
X163716500Y-111725537D01*
X163716501Y-111725553D01*
X163727113Y-111829429D01*
X163759940Y-111928497D01*
X163762341Y-111998326D01*
X163726609Y-112058367D01*
X163664088Y-112089559D01*
X163642234Y-112091500D01*
X162751345Y-112091500D01*
X162690797Y-112098011D01*
X162690795Y-112098011D01*
X162553795Y-112149111D01*
X162436739Y-112236739D01*
X162349111Y-112353795D01*
X162298011Y-112490795D01*
X162298011Y-112490797D01*
X162291500Y-112551345D01*
X162291500Y-114248654D01*
X162298011Y-114309202D01*
X162298011Y-114309204D01*
X162341984Y-114427097D01*
X162349111Y-114446204D01*
X162436739Y-114563261D01*
X162553796Y-114650889D01*
X162643403Y-114684311D01*
X162685463Y-114699999D01*
X162690799Y-114701989D01*
X162718050Y-114704918D01*
X162751345Y-114708499D01*
X162751362Y-114708500D01*
X163359039Y-114708500D01*
X163426078Y-114728185D01*
X163471833Y-114780989D01*
X163481777Y-114850147D01*
X163476746Y-114871502D01*
X163467112Y-114900574D01*
X163456500Y-115004447D01*
X163456500Y-115855537D01*
X163456501Y-115855553D01*
X163467113Y-115959427D01*
X163519327Y-116117001D01*
X163522885Y-116127738D01*
X163615970Y-116278652D01*
X163741348Y-116404030D01*
X163892262Y-116497115D01*
X164060574Y-116552887D01*
X164164455Y-116563500D01*
X165515544Y-116563499D01*
X165619426Y-116552887D01*
X165787738Y-116497115D01*
X165842773Y-116463168D01*
X165910160Y-116444729D01*
X165976824Y-116465650D01*
X166021595Y-116519292D01*
X166031156Y-116555451D01*
X166038011Y-116619202D01*
X166038011Y-116619204D01*
X166089111Y-116756204D01*
X166148613Y-116835689D01*
X166173030Y-116901154D01*
X166158178Y-116969427D01*
X166148613Y-116984311D01*
X166089111Y-117063795D01*
X166055464Y-117154003D01*
X166013592Y-117209936D01*
X165948127Y-117234352D01*
X165879854Y-117219499D01*
X165874186Y-117216207D01*
X165868803Y-117212887D01*
X165787738Y-117162885D01*
X165770310Y-117157110D01*
X165619427Y-117107113D01*
X165515545Y-117096500D01*
X164164462Y-117096500D01*
X164164446Y-117096501D01*
X164060571Y-117107113D01*
X163900345Y-117160206D01*
X163861342Y-117166500D01*
X163609699Y-117166500D01*
X163550277Y-117151335D01*
X163546206Y-117149113D01*
X163546204Y-117149111D01*
X163473043Y-117121823D01*
X163409203Y-117098011D01*
X163348654Y-117091500D01*
X163348638Y-117091500D01*
X161651362Y-117091500D01*
X161651343Y-117091501D01*
X161585418Y-117098589D01*
X161516659Y-117086184D01*
X161472896Y-117049610D01*
X161463262Y-117036740D01*
X161442178Y-117020957D01*
X161346204Y-116949111D01*
X161209203Y-116898011D01*
X161148654Y-116891500D01*
X161148638Y-116891500D01*
X161091609Y-116891500D01*
X161024570Y-116871815D01*
X161003928Y-116855181D01*
X160341328Y-116192580D01*
X160341320Y-116192574D01*
X160204812Y-116101362D01*
X160053123Y-116038531D01*
X160053115Y-116038529D01*
X159892096Y-116006500D01*
X159892093Y-116006500D01*
X158167106Y-116006500D01*
X158100067Y-115986815D01*
X158068153Y-115957229D01*
X158062698Y-115950005D01*
X157910883Y-115811609D01*
X157910882Y-115811608D01*
X157736218Y-115703460D01*
X157544655Y-115629249D01*
X157342718Y-115591500D01*
X157137282Y-115591500D01*
X156935345Y-115629249D01*
X156935342Y-115629249D01*
X156935342Y-115629250D01*
X156743779Y-115703461D01*
X156569116Y-115811609D01*
X156417300Y-115950006D01*
X156293498Y-116113947D01*
X156293493Y-116113955D01*
X156201930Y-116297837D01*
X156201926Y-116297847D01*
X156188655Y-116344491D01*
X156151375Y-116403583D01*
X156088065Y-116433141D01*
X156018826Y-116423778D01*
X155965640Y-116378467D01*
X155951458Y-116348872D01*
X155927290Y-116274489D01*
X155927288Y-116274483D01*
X155885552Y-116192574D01*
X155848074Y-116119019D01*
X155834971Y-116100984D01*
X155745522Y-115977867D01*
X155745518Y-115977862D01*
X155622137Y-115854481D01*
X155622132Y-115854477D01*
X155480984Y-115751928D01*
X155480983Y-115751927D01*
X155480981Y-115751926D01*
X155431175Y-115726548D01*
X155325516Y-115672711D01*
X155325513Y-115672710D01*
X155159575Y-115618795D01*
X155073407Y-115605147D01*
X154987241Y-115591500D01*
X154412759Y-115591500D01*
X154355314Y-115600598D01*
X154240424Y-115618795D01*
X154074486Y-115672710D01*
X154074483Y-115672711D01*
X153919015Y-115751928D01*
X153793915Y-115842818D01*
X153728109Y-115866298D01*
X153721030Y-115866500D01*
X152962500Y-115866500D01*
X152895461Y-115846815D01*
X152849706Y-115794011D01*
X152838500Y-115742500D01*
X152838500Y-114247844D01*
X159300000Y-114247844D01*
X159306401Y-114307372D01*
X159306403Y-114307379D01*
X159356645Y-114442086D01*
X159356649Y-114442093D01*
X159442809Y-114557187D01*
X159442812Y-114557190D01*
X159557906Y-114643350D01*
X159557913Y-114643354D01*
X159692620Y-114693596D01*
X159692627Y-114693598D01*
X159752155Y-114699999D01*
X159752172Y-114700000D01*
X160050000Y-114700000D01*
X160550000Y-114700000D01*
X160847828Y-114700000D01*
X160847844Y-114699999D01*
X160907372Y-114693598D01*
X160907379Y-114693596D01*
X161042086Y-114643354D01*
X161042093Y-114643350D01*
X161157187Y-114557190D01*
X161157190Y-114557187D01*
X161243350Y-114442093D01*
X161243354Y-114442086D01*
X161293596Y-114307379D01*
X161293598Y-114307372D01*
X161299999Y-114247844D01*
X161300000Y-114247827D01*
X161300000Y-113650000D01*
X160550000Y-113650000D01*
X160550000Y-114700000D01*
X160050000Y-114700000D01*
X160050000Y-113650000D01*
X159300000Y-113650000D01*
X159300000Y-114247844D01*
X152838500Y-114247844D01*
X152838500Y-113192500D01*
X152858185Y-113125461D01*
X152910989Y-113079706D01*
X152962500Y-113068500D01*
X153988638Y-113068500D01*
X153988654Y-113068499D01*
X154015692Y-113065591D01*
X154049201Y-113061989D01*
X154054537Y-113059999D01*
X154085634Y-113048400D01*
X154186204Y-113010889D01*
X154303261Y-112923261D01*
X154390889Y-112806204D01*
X154438217Y-112679315D01*
X154441988Y-112669204D01*
X154441988Y-112669203D01*
X154441989Y-112669201D01*
X154446580Y-112626500D01*
X154448499Y-112608654D01*
X154448500Y-112608637D01*
X154448500Y-112607844D01*
X155440000Y-112607844D01*
X155446401Y-112667372D01*
X155446403Y-112667379D01*
X155496645Y-112802086D01*
X155496649Y-112802093D01*
X155582809Y-112917187D01*
X155582812Y-112917190D01*
X155697906Y-113003350D01*
X155697913Y-113003354D01*
X155832620Y-113053596D01*
X155832627Y-113053598D01*
X155892155Y-113059999D01*
X155892172Y-113060000D01*
X156190000Y-113060000D01*
X156690000Y-113060000D01*
X156987828Y-113060000D01*
X156987844Y-113059999D01*
X157047372Y-113053598D01*
X157047379Y-113053596D01*
X157182086Y-113003354D01*
X157182093Y-113003350D01*
X157297187Y-112917190D01*
X157297190Y-112917187D01*
X157383350Y-112802093D01*
X157383354Y-112802086D01*
X157433596Y-112667379D01*
X157433598Y-112667372D01*
X157439999Y-112607844D01*
X157440000Y-112607827D01*
X157440000Y-112552155D01*
X159300000Y-112552155D01*
X159300000Y-113150000D01*
X160050000Y-113150000D01*
X160550000Y-113150000D01*
X161300000Y-113150000D01*
X161300000Y-112552172D01*
X161299999Y-112552155D01*
X161293598Y-112492627D01*
X161293596Y-112492620D01*
X161243354Y-112357913D01*
X161243350Y-112357906D01*
X161157190Y-112242812D01*
X161157187Y-112242809D01*
X161042093Y-112156649D01*
X161042086Y-112156645D01*
X160907379Y-112106403D01*
X160907372Y-112106401D01*
X160847844Y-112100000D01*
X160550000Y-112100000D01*
X160550000Y-113150000D01*
X160050000Y-113150000D01*
X160050000Y-112100000D01*
X159752155Y-112100000D01*
X159692627Y-112106401D01*
X159692620Y-112106403D01*
X159557913Y-112156645D01*
X159557906Y-112156649D01*
X159442812Y-112242809D01*
X159442809Y-112242812D01*
X159356649Y-112357906D01*
X159356645Y-112357913D01*
X159306403Y-112492620D01*
X159306401Y-112492627D01*
X159300000Y-112552155D01*
X157440000Y-112552155D01*
X157440000Y-112010000D01*
X156690000Y-112010000D01*
X156690000Y-113060000D01*
X156190000Y-113060000D01*
X156190000Y-112010000D01*
X155440000Y-112010000D01*
X155440000Y-112607844D01*
X154448500Y-112607844D01*
X154448500Y-110911362D01*
X154448499Y-110911345D01*
X154443838Y-110868000D01*
X154441989Y-110850799D01*
X154427622Y-110812281D01*
X154396451Y-110728708D01*
X154390889Y-110713796D01*
X154390888Y-110713795D01*
X154387790Y-110705488D01*
X154389762Y-110704752D01*
X154377432Y-110648088D01*
X154401846Y-110582622D01*
X154413431Y-110569249D01*
X154434030Y-110548652D01*
X154527115Y-110397738D01*
X154582887Y-110229426D01*
X154593500Y-110125545D01*
X154593500Y-110124986D01*
X155135001Y-110124986D01*
X155145494Y-110227697D01*
X155200641Y-110394119D01*
X155200643Y-110394124D01*
X155292684Y-110543345D01*
X155416654Y-110667315D01*
X155422180Y-110671685D01*
X155462555Y-110728708D01*
X155465692Y-110798507D01*
X155461448Y-110812281D01*
X155446403Y-110852616D01*
X155446401Y-110852627D01*
X155440000Y-110912155D01*
X155440000Y-111510000D01*
X156190000Y-111510000D01*
X156190000Y-110868000D01*
X156134000Y-110868000D01*
X156066961Y-110848315D01*
X156021206Y-110795511D01*
X156010000Y-110744000D01*
X156010000Y-110417000D01*
X156510000Y-110417000D01*
X156566000Y-110417000D01*
X156633039Y-110436685D01*
X156678794Y-110489489D01*
X156690000Y-110541000D01*
X156690000Y-111510000D01*
X157440000Y-111510000D01*
X157440000Y-110912172D01*
X157439999Y-110912155D01*
X157433598Y-110852627D01*
X157433596Y-110852620D01*
X157383354Y-110717913D01*
X157383352Y-110717911D01*
X157291874Y-110595711D01*
X157294001Y-110594118D01*
X157267134Y-110544935D01*
X157272107Y-110475243D01*
X157282758Y-110453458D01*
X157319355Y-110394126D01*
X157319358Y-110394119D01*
X157374505Y-110227697D01*
X157374506Y-110227690D01*
X157384999Y-110124986D01*
X157385000Y-110124973D01*
X157385000Y-109984655D01*
X174940000Y-109984655D01*
X174940000Y-110282500D01*
X175990000Y-110282500D01*
X175990000Y-109532500D01*
X176490000Y-109532500D01*
X176490000Y-111532500D01*
X177087828Y-111532500D01*
X177087844Y-111532499D01*
X177147372Y-111526098D01*
X177147379Y-111526096D01*
X177282086Y-111475854D01*
X177282093Y-111475850D01*
X177397187Y-111389690D01*
X177397190Y-111389687D01*
X177483350Y-111274593D01*
X177483354Y-111274586D01*
X177533596Y-111139879D01*
X177535379Y-111123300D01*
X177562116Y-111058749D01*
X177619508Y-111018899D01*
X177689333Y-111016404D01*
X177749422Y-111052056D01*
X177774851Y-111093219D01*
X177826646Y-111232088D01*
X177826649Y-111232093D01*
X177912809Y-111347187D01*
X177912812Y-111347190D01*
X178027906Y-111433350D01*
X178027913Y-111433354D01*
X178162620Y-111483596D01*
X178162627Y-111483598D01*
X178222155Y-111489999D01*
X178222172Y-111490000D01*
X178820000Y-111490000D01*
X178820000Y-109490000D01*
X178222155Y-109490000D01*
X178162627Y-109496401D01*
X178162620Y-109496403D01*
X178027913Y-109546645D01*
X178027906Y-109546649D01*
X177912812Y-109632809D01*
X177912809Y-109632812D01*
X177826649Y-109747906D01*
X177826645Y-109747913D01*
X177776403Y-109882620D01*
X177776401Y-109882626D01*
X177774619Y-109899204D01*
X177747879Y-109963755D01*
X177690486Y-110003601D01*
X177620661Y-110006093D01*
X177560573Y-109970439D01*
X177535148Y-109929279D01*
X177483354Y-109790413D01*
X177483350Y-109790406D01*
X177397190Y-109675312D01*
X177397187Y-109675309D01*
X177282093Y-109589149D01*
X177282086Y-109589145D01*
X177147379Y-109538903D01*
X177147372Y-109538901D01*
X177087844Y-109532500D01*
X176490000Y-109532500D01*
X175990000Y-109532500D01*
X175392155Y-109532500D01*
X175332627Y-109538901D01*
X175332620Y-109538903D01*
X175197913Y-109589145D01*
X175197906Y-109589149D01*
X175082812Y-109675309D01*
X175082809Y-109675312D01*
X174996649Y-109790406D01*
X174996645Y-109790413D01*
X174946403Y-109925120D01*
X174946401Y-109925127D01*
X174940000Y-109984655D01*
X157385000Y-109984655D01*
X157385000Y-109700000D01*
X156510000Y-109700000D01*
X156510000Y-110417000D01*
X156010000Y-110417000D01*
X156010000Y-109700000D01*
X155135001Y-109700000D01*
X155135001Y-110124986D01*
X154593500Y-110124986D01*
X154593499Y-108775013D01*
X155135000Y-108775013D01*
X155135000Y-109200000D01*
X156010000Y-109200000D01*
X156510000Y-109200000D01*
X157384999Y-109200000D01*
X157384999Y-108924986D01*
X163725001Y-108924986D01*
X163735494Y-109027697D01*
X163790641Y-109194119D01*
X163790643Y-109194124D01*
X163882684Y-109343345D01*
X164006654Y-109467315D01*
X164155875Y-109559356D01*
X164155880Y-109559358D01*
X164322302Y-109614505D01*
X164322309Y-109614506D01*
X164425019Y-109624999D01*
X164849999Y-109624999D01*
X165350000Y-109624999D01*
X165774972Y-109624999D01*
X165774986Y-109624998D01*
X165877697Y-109614505D01*
X166044119Y-109559358D01*
X166044124Y-109559356D01*
X166193345Y-109467315D01*
X166317315Y-109343345D01*
X166409356Y-109194124D01*
X166409358Y-109194119D01*
X166464505Y-109027697D01*
X166464506Y-109027690D01*
X166474999Y-108924986D01*
X166475000Y-108924973D01*
X166475000Y-108750000D01*
X165350000Y-108750000D01*
X165350000Y-109624999D01*
X164849999Y-109624999D01*
X164850000Y-109624998D01*
X164850000Y-108750000D01*
X163725001Y-108750000D01*
X163725001Y-108924986D01*
X157384999Y-108924986D01*
X157384999Y-108775028D01*
X157384998Y-108775013D01*
X157374505Y-108672302D01*
X157319358Y-108505880D01*
X157319356Y-108505875D01*
X157227315Y-108356654D01*
X157103345Y-108232684D01*
X156954124Y-108140643D01*
X156954119Y-108140641D01*
X156787697Y-108085494D01*
X156787690Y-108085493D01*
X156684986Y-108075000D01*
X156510000Y-108075000D01*
X156510000Y-109200000D01*
X156010000Y-109200000D01*
X156010000Y-108075000D01*
X155835029Y-108075000D01*
X155835012Y-108075001D01*
X155732302Y-108085494D01*
X155565880Y-108140641D01*
X155565875Y-108140643D01*
X155416654Y-108232684D01*
X155292684Y-108356654D01*
X155200643Y-108505875D01*
X155200641Y-108505880D01*
X155145494Y-108672302D01*
X155145493Y-108672309D01*
X155135000Y-108775013D01*
X154593499Y-108775013D01*
X154593499Y-108774456D01*
X154582887Y-108670574D01*
X154527115Y-108502262D01*
X154434030Y-108351348D01*
X154308652Y-108225970D01*
X154308648Y-108225967D01*
X154207917Y-108163835D01*
X154161192Y-108111887D01*
X154149971Y-108042925D01*
X154177814Y-107978843D01*
X154235883Y-107939987D01*
X154284702Y-107936976D01*
X154284853Y-107935065D01*
X154291169Y-107935562D01*
X154328498Y-107938500D01*
X154328504Y-107938500D01*
X154761496Y-107938500D01*
X154761502Y-107938500D01*
X154798831Y-107935562D01*
X154798833Y-107935561D01*
X154798835Y-107935561D01*
X154840962Y-107923321D01*
X154958601Y-107889145D01*
X155101807Y-107804453D01*
X155219453Y-107686807D01*
X155256190Y-107624688D01*
X155307256Y-107577007D01*
X155375997Y-107564503D01*
X155437231Y-107588545D01*
X155493792Y-107630887D01*
X155493793Y-107630888D01*
X155543273Y-107649343D01*
X155630799Y-107681989D01*
X155658050Y-107684918D01*
X155691345Y-107688499D01*
X155691362Y-107688500D01*
X157388638Y-107688500D01*
X157388654Y-107688499D01*
X157415692Y-107685591D01*
X157449201Y-107681989D01*
X157586204Y-107630889D01*
X157586204Y-107630888D01*
X157586206Y-107630888D01*
X157586207Y-107630887D01*
X157674885Y-107564503D01*
X157703261Y-107543261D01*
X157703261Y-107543260D01*
X157705689Y-107541443D01*
X157771153Y-107517025D01*
X157839426Y-107531876D01*
X157854311Y-107541443D01*
X157856738Y-107543260D01*
X157856739Y-107543261D01*
X157885115Y-107564503D01*
X157973792Y-107630887D01*
X157973793Y-107630888D01*
X158023273Y-107649343D01*
X158110799Y-107681989D01*
X158138050Y-107684918D01*
X158171345Y-107688499D01*
X158171362Y-107688500D01*
X159868638Y-107688500D01*
X159868654Y-107688499D01*
X159895692Y-107685591D01*
X159929201Y-107681989D01*
X160066204Y-107630889D01*
X160183261Y-107543261D01*
X160228646Y-107482633D01*
X160284576Y-107440764D01*
X160354268Y-107435779D01*
X160393006Y-107451406D01*
X160402262Y-107457115D01*
X160402263Y-107457115D01*
X160402266Y-107457117D01*
X160569107Y-107512401D01*
X160570574Y-107512887D01*
X160674455Y-107523500D01*
X162025544Y-107523499D01*
X162129426Y-107512887D01*
X162297738Y-107457115D01*
X162448652Y-107364030D01*
X162552864Y-107259818D01*
X162614187Y-107226334D01*
X162640545Y-107223500D01*
X164070683Y-107223500D01*
X164137722Y-107243185D01*
X164183477Y-107295989D01*
X164193421Y-107365147D01*
X164164396Y-107428703D01*
X164135780Y-107453039D01*
X164006654Y-107532684D01*
X163882684Y-107656654D01*
X163790643Y-107805875D01*
X163790641Y-107805880D01*
X163735494Y-107972302D01*
X163735493Y-107972309D01*
X163725000Y-108075013D01*
X163725000Y-108250000D01*
X166474999Y-108250000D01*
X166474999Y-108075028D01*
X166474998Y-108075013D01*
X166472222Y-108047844D01*
X174700000Y-108047844D01*
X174706401Y-108107372D01*
X174706403Y-108107379D01*
X174756645Y-108242086D01*
X174756649Y-108242093D01*
X174842809Y-108357187D01*
X174842812Y-108357190D01*
X174957906Y-108443350D01*
X174957913Y-108443354D01*
X175092620Y-108493596D01*
X175092627Y-108493598D01*
X175152155Y-108499999D01*
X175152172Y-108500000D01*
X175750000Y-108500000D01*
X176250000Y-108500000D01*
X176847828Y-108500000D01*
X176847844Y-108499999D01*
X176907372Y-108493598D01*
X176907379Y-108493596D01*
X177042086Y-108443354D01*
X177042093Y-108443350D01*
X177157187Y-108357190D01*
X177157190Y-108357187D01*
X177243350Y-108242093D01*
X177243354Y-108242086D01*
X177293596Y-108107379D01*
X177293598Y-108107372D01*
X177299999Y-108047844D01*
X177300000Y-108047827D01*
X177300000Y-107750000D01*
X176250000Y-107750000D01*
X176250000Y-108500000D01*
X175750000Y-108500000D01*
X175750000Y-107750000D01*
X174700000Y-107750000D01*
X174700000Y-108047844D01*
X166472222Y-108047844D01*
X166464505Y-107972302D01*
X166409358Y-107805880D01*
X166409356Y-107805875D01*
X166317315Y-107656653D01*
X166312839Y-107650993D01*
X166314924Y-107649343D01*
X166287357Y-107598858D01*
X166292341Y-107529166D01*
X166334213Y-107473233D01*
X166399677Y-107448816D01*
X166408523Y-107448500D01*
X167358638Y-107448500D01*
X167358654Y-107448499D01*
X167385692Y-107445591D01*
X167419201Y-107441989D01*
X167422486Y-107440764D01*
X167435850Y-107435779D01*
X167556204Y-107390889D01*
X167673261Y-107303261D01*
X167760889Y-107186204D01*
X167811989Y-107049201D01*
X167815591Y-107015692D01*
X167818499Y-106988654D01*
X167818500Y-106988637D01*
X167818500Y-106952155D01*
X174700000Y-106952155D01*
X174700000Y-107250000D01*
X175750000Y-107250000D01*
X176250000Y-107250000D01*
X177300000Y-107250000D01*
X177300000Y-106952172D01*
X177299999Y-106952155D01*
X177293598Y-106892627D01*
X177293596Y-106892620D01*
X177243354Y-106757913D01*
X177243350Y-106757906D01*
X177157190Y-106642812D01*
X177157187Y-106642809D01*
X177042093Y-106556649D01*
X177042086Y-106556645D01*
X176907379Y-106506403D01*
X176907372Y-106506401D01*
X176847844Y-106500000D01*
X176250000Y-106500000D01*
X176250000Y-107250000D01*
X175750000Y-107250000D01*
X175750000Y-106500000D01*
X175152155Y-106500000D01*
X175092627Y-106506401D01*
X175092620Y-106506403D01*
X174957913Y-106556645D01*
X174957906Y-106556649D01*
X174842812Y-106642809D01*
X174842809Y-106642812D01*
X174756649Y-106757906D01*
X174756645Y-106757913D01*
X174706403Y-106892620D01*
X174706401Y-106892627D01*
X174700000Y-106952155D01*
X167818500Y-106952155D01*
X167818500Y-105391362D01*
X167818499Y-105391345D01*
X167814938Y-105358233D01*
X167811989Y-105330799D01*
X167809037Y-105322885D01*
X167760888Y-105193793D01*
X167760887Y-105193792D01*
X167704973Y-105119101D01*
X167701386Y-105114310D01*
X167676969Y-105048847D01*
X167691820Y-104980574D01*
X167701387Y-104965689D01*
X167760887Y-104886207D01*
X167760888Y-104886205D01*
X167760887Y-104886205D01*
X167760889Y-104886204D01*
X167775325Y-104847500D01*
X167791489Y-104804165D01*
X167833361Y-104748232D01*
X167898826Y-104723816D01*
X167907670Y-104723500D01*
X170977500Y-104723500D01*
X171044539Y-104743185D01*
X171090294Y-104795989D01*
X171101500Y-104847500D01*
X171101500Y-105838654D01*
X171108011Y-105899202D01*
X171108011Y-105899204D01*
X171159111Y-106036204D01*
X171246739Y-106153261D01*
X171363796Y-106240889D01*
X171500799Y-106291989D01*
X171528050Y-106294918D01*
X171561345Y-106298499D01*
X171561362Y-106298500D01*
X173658638Y-106298500D01*
X173658654Y-106298499D01*
X173685692Y-106295591D01*
X173719201Y-106291989D01*
X173856204Y-106240889D01*
X173973261Y-106153261D01*
X174060889Y-106036204D01*
X174111989Y-105899201D01*
X174115591Y-105865692D01*
X174118499Y-105838654D01*
X174118500Y-105838637D01*
X174118500Y-105457500D01*
X174138185Y-105390461D01*
X174190989Y-105344706D01*
X174242500Y-105333500D01*
X174755712Y-105333500D01*
X174822751Y-105353185D01*
X174830023Y-105358233D01*
X174836738Y-105363259D01*
X174836739Y-105363261D01*
X174953796Y-105450889D01*
X175090799Y-105501989D01*
X175118050Y-105504918D01*
X175151345Y-105508499D01*
X175151362Y-105508500D01*
X176848638Y-105508500D01*
X176848654Y-105508499D01*
X176875692Y-105505591D01*
X176909201Y-105501989D01*
X177046204Y-105450889D01*
X177163261Y-105363261D01*
X177163261Y-105363259D01*
X177169977Y-105358233D01*
X177235442Y-105333816D01*
X177244288Y-105333500D01*
X177961342Y-105333500D01*
X178000345Y-105339794D01*
X178153253Y-105390461D01*
X178160574Y-105392887D01*
X178264455Y-105403500D01*
X179115544Y-105403499D01*
X179219426Y-105392887D01*
X179387738Y-105337115D01*
X179538652Y-105244030D01*
X179664030Y-105118652D01*
X179757115Y-104967738D01*
X179812887Y-104799426D01*
X179823500Y-104695545D01*
X179823499Y-103344456D01*
X179812887Y-103240574D01*
X179757115Y-103072262D01*
X179664030Y-102921348D01*
X179538652Y-102795970D01*
X179435610Y-102732413D01*
X179387740Y-102702886D01*
X179387735Y-102702884D01*
X179219427Y-102647113D01*
X179115546Y-102636500D01*
X178264462Y-102636500D01*
X178264446Y-102636501D01*
X178160572Y-102647113D01*
X177992264Y-102702884D01*
X177992259Y-102702886D01*
X177841346Y-102795971D01*
X177715971Y-102921346D01*
X177622886Y-103072259D01*
X177622884Y-103072264D01*
X177567113Y-103240572D01*
X177556500Y-103344447D01*
X177556500Y-103392973D01*
X177549005Y-103430657D01*
X177550299Y-103431050D01*
X177548529Y-103436884D01*
X177522709Y-103566691D01*
X177490324Y-103628602D01*
X177429609Y-103663176D01*
X177401092Y-103666500D01*
X177244288Y-103666500D01*
X177177249Y-103646815D01*
X177169977Y-103641767D01*
X177163261Y-103636739D01*
X177046204Y-103549111D01*
X176914165Y-103499861D01*
X176858232Y-103457989D01*
X176833816Y-103392524D01*
X176833500Y-103383680D01*
X176833500Y-103176319D01*
X176853185Y-103109280D01*
X176905989Y-103063525D01*
X176914166Y-103060138D01*
X177006525Y-103025688D01*
X177046204Y-103010889D01*
X177163261Y-102923261D01*
X177250889Y-102806204D01*
X177301989Y-102669201D01*
X177306458Y-102627636D01*
X177308499Y-102608654D01*
X177308500Y-102608637D01*
X177308500Y-101511362D01*
X177308499Y-101511345D01*
X177305157Y-101480270D01*
X177301989Y-101450799D01*
X177299780Y-101444877D01*
X177279522Y-101390564D01*
X177250889Y-101313796D01*
X177163261Y-101196739D01*
X177046204Y-101109111D01*
X177025037Y-101101216D01*
X176909203Y-101058011D01*
X176848654Y-101051500D01*
X176848638Y-101051500D01*
X175151362Y-101051500D01*
X175151345Y-101051500D01*
X175090797Y-101058011D01*
X175090795Y-101058011D01*
X174953795Y-101109111D01*
X174836739Y-101196739D01*
X174749111Y-101313795D01*
X174698011Y-101450795D01*
X174698011Y-101450797D01*
X174691500Y-101511345D01*
X174691500Y-102608654D01*
X174698011Y-102669202D01*
X174698011Y-102669204D01*
X174745294Y-102795970D01*
X174749111Y-102806204D01*
X174836739Y-102923261D01*
X174953796Y-103010889D01*
X174953795Y-103010889D01*
X175085834Y-103060138D01*
X175141768Y-103102009D01*
X175166184Y-103167474D01*
X175166500Y-103176319D01*
X175166500Y-103383680D01*
X175146815Y-103450719D01*
X175094011Y-103496474D01*
X175085835Y-103499861D01*
X174953795Y-103549111D01*
X174896296Y-103592155D01*
X174836739Y-103636739D01*
X174836738Y-103636739D01*
X174830023Y-103641767D01*
X174764558Y-103666184D01*
X174755712Y-103666500D01*
X174242500Y-103666500D01*
X174175461Y-103646815D01*
X174129706Y-103594011D01*
X174118500Y-103542500D01*
X174118500Y-101941362D01*
X174118499Y-101941345D01*
X174115157Y-101910270D01*
X174111989Y-101880799D01*
X174106302Y-101865553D01*
X174085582Y-101810000D01*
X174060889Y-101743796D01*
X173973261Y-101626739D01*
X173856204Y-101539111D01*
X173719203Y-101488011D01*
X173658654Y-101481500D01*
X173658638Y-101481500D01*
X171561362Y-101481500D01*
X171561345Y-101481500D01*
X171500797Y-101488011D01*
X171500795Y-101488011D01*
X171363795Y-101539111D01*
X171246739Y-101626739D01*
X171159111Y-101743795D01*
X171108011Y-101880795D01*
X171108011Y-101880797D01*
X171101500Y-101941345D01*
X171101500Y-102932500D01*
X171081815Y-102999539D01*
X171029011Y-103045294D01*
X170977500Y-103056500D01*
X167907670Y-103056500D01*
X167840631Y-103036815D01*
X167794876Y-102984011D01*
X167791489Y-102975835D01*
X167760888Y-102893794D01*
X167760887Y-102893792D01*
X167701387Y-102814311D01*
X167676969Y-102748847D01*
X167691820Y-102680574D01*
X167701387Y-102665689D01*
X167704221Y-102661904D01*
X167720895Y-102639629D01*
X167760887Y-102586207D01*
X167760888Y-102586206D01*
X167766442Y-102571317D01*
X167811989Y-102449201D01*
X167816810Y-102404362D01*
X167818499Y-102388654D01*
X167818500Y-102388637D01*
X167818500Y-100791362D01*
X167818499Y-100791345D01*
X167814752Y-100756500D01*
X167811989Y-100730799D01*
X167808921Y-100722574D01*
X167787809Y-100665970D01*
X167760889Y-100593796D01*
X167673261Y-100476739D01*
X167556204Y-100389111D01*
X167419203Y-100338011D01*
X167358654Y-100331500D01*
X167358638Y-100331500D01*
X165261362Y-100331500D01*
X165261345Y-100331500D01*
X165200797Y-100338011D01*
X165200795Y-100338011D01*
X165063795Y-100389111D01*
X164946739Y-100476739D01*
X164886100Y-100557743D01*
X164830166Y-100599614D01*
X164760474Y-100604598D01*
X164743502Y-100599615D01*
X164741685Y-100598937D01*
X164739201Y-100598011D01*
X164739199Y-100598010D01*
X164739197Y-100598010D01*
X164678654Y-100591500D01*
X164678638Y-100591500D01*
X162981362Y-100591500D01*
X162981345Y-100591500D01*
X162920797Y-100598011D01*
X162920795Y-100598011D01*
X162783795Y-100649111D01*
X162685660Y-100722574D01*
X162620195Y-100746990D01*
X162551923Y-100732138D01*
X162523669Y-100710987D01*
X162478653Y-100665971D01*
X162478652Y-100665970D01*
X162333064Y-100576170D01*
X162327740Y-100572886D01*
X162327735Y-100572884D01*
X162159427Y-100517113D01*
X162055545Y-100506500D01*
X160704462Y-100506500D01*
X160704446Y-100506501D01*
X160600572Y-100517113D01*
X160432264Y-100572884D01*
X160432259Y-100572886D01*
X160281346Y-100665971D01*
X160155971Y-100791346D01*
X160062886Y-100942259D01*
X160062884Y-100942264D01*
X160007113Y-101110572D01*
X159996500Y-101214447D01*
X159996500Y-102065537D01*
X159996501Y-102065553D01*
X160003876Y-102137738D01*
X160007113Y-102169426D01*
X160062885Y-102337738D01*
X160137371Y-102458499D01*
X160155971Y-102488653D01*
X160179636Y-102512318D01*
X160213121Y-102573641D01*
X160208137Y-102643333D01*
X160179636Y-102687680D01*
X160168388Y-102698928D01*
X160107065Y-102732413D01*
X160037373Y-102727429D01*
X159927376Y-102686402D01*
X159927372Y-102686401D01*
X159867844Y-102680000D01*
X159270000Y-102680000D01*
X159270000Y-104680000D01*
X159867828Y-104680000D01*
X159867844Y-104679999D01*
X159927372Y-104673598D01*
X159927379Y-104673596D01*
X160062086Y-104623354D01*
X160062089Y-104623352D01*
X160123461Y-104577409D01*
X160188925Y-104552991D01*
X160257198Y-104567842D01*
X160262870Y-104571137D01*
X160402253Y-104657110D01*
X160402256Y-104657111D01*
X160402262Y-104657115D01*
X160570574Y-104712887D01*
X160674455Y-104723500D01*
X162025544Y-104723499D01*
X162129426Y-104712887D01*
X162297738Y-104657115D01*
X162448652Y-104564030D01*
X162574030Y-104438652D01*
X162667115Y-104287738D01*
X162722887Y-104119426D01*
X162733500Y-104015545D01*
X162733499Y-103164456D01*
X162722887Y-103060574D01*
X162667115Y-102892262D01*
X162574030Y-102741348D01*
X162550363Y-102717681D01*
X162516878Y-102656358D01*
X162521862Y-102586666D01*
X162550358Y-102542323D01*
X162569421Y-102523260D01*
X162630740Y-102489776D01*
X162700432Y-102494759D01*
X162731411Y-102511675D01*
X162783793Y-102550887D01*
X162783793Y-102550888D01*
X162918893Y-102601278D01*
X162920799Y-102601989D01*
X162948050Y-102604918D01*
X162981345Y-102608499D01*
X162981362Y-102608500D01*
X164678638Y-102608500D01*
X164678654Y-102608499D01*
X164716560Y-102604423D01*
X164739201Y-102601989D01*
X164755202Y-102596020D01*
X164824889Y-102591034D01*
X164886214Y-102624516D01*
X164897803Y-102637891D01*
X164918613Y-102665690D01*
X164943030Y-102731154D01*
X164928178Y-102799427D01*
X164918613Y-102814311D01*
X164859111Y-102893795D01*
X164808011Y-103030795D01*
X164808011Y-103030797D01*
X164801500Y-103091345D01*
X164801500Y-104688654D01*
X164808011Y-104749202D01*
X164808011Y-104749204D01*
X164844675Y-104847500D01*
X164859111Y-104886204D01*
X164898640Y-104939009D01*
X164918613Y-104965689D01*
X164943030Y-105031154D01*
X164928178Y-105099427D01*
X164918613Y-105114309D01*
X164915027Y-105119101D01*
X164859111Y-105193795D01*
X164808011Y-105330795D01*
X164808011Y-105330797D01*
X164801500Y-105391345D01*
X164801500Y-105432500D01*
X164781815Y-105499539D01*
X164729011Y-105545294D01*
X164677500Y-105556500D01*
X162640545Y-105556500D01*
X162573506Y-105536815D01*
X162552864Y-105520182D01*
X162532221Y-105499539D01*
X162448652Y-105415970D01*
X162325152Y-105339794D01*
X162297740Y-105322886D01*
X162297735Y-105322884D01*
X162129427Y-105267113D01*
X162025545Y-105256500D01*
X160674462Y-105256500D01*
X160674446Y-105256501D01*
X160570572Y-105267113D01*
X160402264Y-105322884D01*
X160402259Y-105322886D01*
X160251346Y-105415971D01*
X160125971Y-105541346D01*
X160112864Y-105562597D01*
X160060916Y-105609321D01*
X160007325Y-105621500D01*
X159319098Y-105621500D01*
X159271646Y-105612061D01*
X159263127Y-105608532D01*
X159263115Y-105608529D01*
X159102096Y-105576500D01*
X159102093Y-105576500D01*
X158937907Y-105576500D01*
X158937904Y-105576500D01*
X158776884Y-105608529D01*
X158776872Y-105608532D01*
X158768354Y-105612061D01*
X158720902Y-105621500D01*
X155471360Y-105621500D01*
X155404321Y-105601815D01*
X155358566Y-105549011D01*
X155352283Y-105532095D01*
X155350562Y-105526170D01*
X155350562Y-105526169D01*
X155304145Y-105366399D01*
X155219453Y-105223193D01*
X155219451Y-105223191D01*
X155219448Y-105223187D01*
X155101812Y-105105551D01*
X155101803Y-105105544D01*
X154958601Y-105020855D01*
X154958596Y-105020853D01*
X154798835Y-104974438D01*
X154798829Y-104974437D01*
X154761507Y-104971500D01*
X154761502Y-104971500D01*
X154328498Y-104971500D01*
X154328492Y-104971500D01*
X154291170Y-104974437D01*
X154291164Y-104974438D01*
X154131403Y-105020853D01*
X154131398Y-105020855D01*
X153988191Y-105105547D01*
X153985998Y-105107249D01*
X153983965Y-105108047D01*
X153981478Y-105109518D01*
X153981240Y-105109116D01*
X153920961Y-105132783D01*
X153852444Y-105119101D01*
X153834002Y-105107249D01*
X153831808Y-105105547D01*
X153688601Y-105020855D01*
X153688596Y-105020853D01*
X153528835Y-104974438D01*
X153528829Y-104974437D01*
X153491507Y-104971500D01*
X153491502Y-104971500D01*
X153058498Y-104971500D01*
X153058492Y-104971500D01*
X153021170Y-104974437D01*
X153021164Y-104974438D01*
X152861403Y-105020853D01*
X152861398Y-105020855D01*
X152718191Y-105105547D01*
X152715998Y-105107249D01*
X152713965Y-105108047D01*
X152711478Y-105109518D01*
X152711240Y-105109116D01*
X152650961Y-105132783D01*
X152582444Y-105119101D01*
X152564002Y-105107249D01*
X152561808Y-105105547D01*
X152418601Y-105020855D01*
X152418596Y-105020853D01*
X152258835Y-104974438D01*
X152258829Y-104974437D01*
X152221507Y-104971500D01*
X152221502Y-104971500D01*
X151788498Y-104971500D01*
X151788492Y-104971500D01*
X151751170Y-104974437D01*
X151751164Y-104974438D01*
X151591403Y-105020853D01*
X151591398Y-105020855D01*
X151448191Y-105105547D01*
X151445998Y-105107249D01*
X151443965Y-105108047D01*
X151441478Y-105109518D01*
X151441240Y-105109116D01*
X151380961Y-105132783D01*
X151312444Y-105119101D01*
X151294002Y-105107249D01*
X151291808Y-105105547D01*
X151148601Y-105020855D01*
X151148596Y-105020853D01*
X150988835Y-104974438D01*
X150988829Y-104974437D01*
X150951507Y-104971500D01*
X150951502Y-104971500D01*
X150518498Y-104971500D01*
X150518492Y-104971500D01*
X150481170Y-104974437D01*
X150481164Y-104974438D01*
X150321403Y-105020853D01*
X150321398Y-105020855D01*
X150178196Y-105105544D01*
X150178187Y-105105551D01*
X150060551Y-105223187D01*
X150060544Y-105223196D01*
X149975855Y-105366398D01*
X149975853Y-105366403D01*
X149929438Y-105526164D01*
X149929437Y-105526170D01*
X149926500Y-105563492D01*
X149926500Y-107346507D01*
X149929437Y-107383829D01*
X149929438Y-107383835D01*
X149975853Y-107543596D01*
X149975855Y-107543601D01*
X150060544Y-107686803D01*
X150060551Y-107686812D01*
X150178187Y-107804448D01*
X150178191Y-107804451D01*
X150178193Y-107804453D01*
X150321399Y-107889145D01*
X150363530Y-107901385D01*
X150481164Y-107935561D01*
X150481167Y-107935561D01*
X150481169Y-107935562D01*
X150518498Y-107938500D01*
X150518504Y-107938500D01*
X150951496Y-107938500D01*
X150951502Y-107938500D01*
X150988831Y-107935562D01*
X151012904Y-107928568D01*
X151082773Y-107928767D01*
X151141444Y-107966708D01*
X151170288Y-108030346D01*
X151171500Y-108047644D01*
X151171500Y-115742500D01*
X151151815Y-115809539D01*
X151099011Y-115855294D01*
X151047500Y-115866500D01*
X150639133Y-115866500D01*
X150572094Y-115846815D01*
X150555603Y-115834144D01*
X150530882Y-115811608D01*
X150434493Y-115751926D01*
X150356220Y-115703461D01*
X150356218Y-115703460D01*
X150164655Y-115629249D01*
X149962718Y-115591500D01*
X149757282Y-115591500D01*
X149555345Y-115629249D01*
X149555342Y-115629249D01*
X149555342Y-115629250D01*
X149363779Y-115703461D01*
X149189116Y-115811609D01*
X149037300Y-115950006D01*
X148913498Y-116113947D01*
X148913493Y-116113955D01*
X148821930Y-116297837D01*
X148821926Y-116297847D01*
X148808655Y-116344491D01*
X148771375Y-116403583D01*
X148708065Y-116433141D01*
X148638826Y-116423778D01*
X148585640Y-116378467D01*
X148571458Y-116348872D01*
X148547290Y-116274489D01*
X148547288Y-116274483D01*
X148505552Y-116192574D01*
X148468074Y-116119019D01*
X148454971Y-116100984D01*
X148365522Y-115977867D01*
X148365518Y-115977862D01*
X148242137Y-115854481D01*
X148242132Y-115854477D01*
X148100984Y-115751928D01*
X148100983Y-115751927D01*
X148100981Y-115751926D01*
X148051175Y-115726548D01*
X147945516Y-115672711D01*
X147945513Y-115672710D01*
X147779575Y-115618795D01*
X147693407Y-115605147D01*
X147607241Y-115591500D01*
X147032759Y-115591500D01*
X146975314Y-115600598D01*
X146860424Y-115618795D01*
X146694486Y-115672710D01*
X146694483Y-115672711D01*
X146539015Y-115751928D01*
X146413915Y-115842818D01*
X146348109Y-115866298D01*
X146341030Y-115866500D01*
X145787904Y-115866500D01*
X145626884Y-115898529D01*
X145626876Y-115898531D01*
X145475187Y-115961362D01*
X145338679Y-116052574D01*
X145338671Y-116052580D01*
X144326072Y-117065181D01*
X144264749Y-117098666D01*
X144238391Y-117101500D01*
X142661345Y-117101500D01*
X142600797Y-117108011D01*
X142600795Y-117108011D01*
X142463795Y-117159111D01*
X142409917Y-117199444D01*
X142366738Y-117231767D01*
X142301276Y-117256184D01*
X142292429Y-117256500D01*
X141897571Y-117256500D01*
X141830532Y-117236815D01*
X141823271Y-117231774D01*
X141726204Y-117159111D01*
X141705356Y-117151335D01*
X141589203Y-117108011D01*
X141528654Y-117101500D01*
X141528638Y-117101500D01*
X139831362Y-117101500D01*
X139831359Y-117101500D01*
X139805753Y-117104253D01*
X139736994Y-117091847D01*
X139685857Y-117044236D01*
X139668499Y-116980963D01*
X139668499Y-116630457D01*
X139667390Y-116619201D01*
X139653908Y-116482299D01*
X139596241Y-116292196D01*
X139596239Y-116292193D01*
X139596239Y-116292191D01*
X139502598Y-116117001D01*
X139502594Y-116116994D01*
X139376568Y-115963431D01*
X139223005Y-115837405D01*
X139222998Y-115837401D01*
X139047808Y-115743760D01*
X138914959Y-115703461D01*
X138857701Y-115686092D01*
X138857699Y-115686091D01*
X138857701Y-115686091D01*
X138751415Y-115675623D01*
X138709547Y-115671500D01*
X138709543Y-115671500D01*
X137610457Y-115671500D01*
X137462300Y-115686091D01*
X137272191Y-115743760D01*
X137097001Y-115837401D01*
X137096994Y-115837405D01*
X136943431Y-115963431D01*
X136817405Y-116116994D01*
X136817401Y-116117001D01*
X136723760Y-116292191D01*
X136666091Y-116482300D01*
X136651500Y-116630456D01*
X136651500Y-119529542D01*
X136666091Y-119677699D01*
X136723760Y-119867808D01*
X136817401Y-120042998D01*
X136817405Y-120043005D01*
X136943431Y-120196568D01*
X137096994Y-120322594D01*
X137097001Y-120322598D01*
X137272191Y-120416239D01*
X137272193Y-120416239D01*
X137272196Y-120416241D01*
X137462299Y-120473908D01*
X137462298Y-120473908D01*
X137472766Y-120474938D01*
X137610453Y-120488500D01*
X138709546Y-120488499D01*
X138857701Y-120473908D01*
X139047804Y-120416241D01*
X139221704Y-120323289D01*
X139290105Y-120309048D01*
X139355349Y-120334048D01*
X139396720Y-120390353D01*
X139401082Y-120460086D01*
X139396339Y-120475978D01*
X139386403Y-120502617D01*
X139386401Y-120502627D01*
X139380000Y-120562155D01*
X139380000Y-120860000D01*
X140430000Y-120860000D01*
X140430000Y-120110000D01*
X139832155Y-120110000D01*
X139772627Y-120116401D01*
X139772623Y-120116402D01*
X139693654Y-120145855D01*
X139623962Y-120150838D01*
X139562639Y-120117352D01*
X139529155Y-120056028D01*
X139534141Y-119986336D01*
X139540957Y-119971233D01*
X139596241Y-119867804D01*
X139653908Y-119677701D01*
X139668500Y-119529547D01*
X139668499Y-119239034D01*
X139688183Y-119171997D01*
X139740987Y-119126242D01*
X139805756Y-119115747D01*
X139827016Y-119118032D01*
X139831352Y-119118499D01*
X139831362Y-119118500D01*
X141528638Y-119118500D01*
X141528654Y-119118499D01*
X141555692Y-119115591D01*
X141589201Y-119111989D01*
X141726204Y-119060889D01*
X141843261Y-118973261D01*
X141843313Y-118973190D01*
X141843384Y-118973137D01*
X141849532Y-118966990D01*
X141850415Y-118967873D01*
X141899246Y-118931319D01*
X141942581Y-118923500D01*
X142247419Y-118923500D01*
X142314458Y-118943185D01*
X142340255Y-118967202D01*
X142340468Y-118966990D01*
X142346426Y-118972948D01*
X142346687Y-118973191D01*
X142346737Y-118973259D01*
X142346739Y-118973261D01*
X142463796Y-119060889D01*
X142600799Y-119111989D01*
X142628050Y-119114918D01*
X142661345Y-119118499D01*
X142661362Y-119118500D01*
X144358638Y-119118500D01*
X144358654Y-119118499D01*
X144385692Y-119115591D01*
X144419201Y-119111989D01*
X144556204Y-119060889D01*
X144673261Y-118973261D01*
X144719212Y-118911877D01*
X144771026Y-118871625D01*
X144874810Y-118828638D01*
X145011325Y-118737422D01*
X145528747Y-118220000D01*
X147517472Y-118220000D01*
X147559885Y-118369065D01*
X147559890Y-118369078D01*
X147650754Y-118551556D01*
X147773608Y-118714242D01*
X147924260Y-118851578D01*
X148097584Y-118958897D01*
X148287678Y-119032539D01*
X148340000Y-119042320D01*
X148840000Y-119042320D01*
X148892321Y-119032539D01*
X149082415Y-118958897D01*
X149255739Y-118851578D01*
X149406391Y-118714242D01*
X149529245Y-118551556D01*
X149620109Y-118369078D01*
X149620114Y-118369065D01*
X149662528Y-118220000D01*
X154897472Y-118220000D01*
X154939885Y-118369065D01*
X154939890Y-118369078D01*
X155030754Y-118551556D01*
X155153608Y-118714242D01*
X155304260Y-118851578D01*
X155477584Y-118958897D01*
X155667678Y-119032539D01*
X155720000Y-119042320D01*
X156220000Y-119042320D01*
X156272321Y-119032539D01*
X156462415Y-118958897D01*
X156635739Y-118851578D01*
X156786391Y-118714242D01*
X156909245Y-118551556D01*
X157000109Y-118369078D01*
X157000114Y-118369065D01*
X157042528Y-118220000D01*
X156220000Y-118220000D01*
X156220000Y-119042320D01*
X155720000Y-119042320D01*
X155720000Y-118220000D01*
X154897472Y-118220000D01*
X149662528Y-118220000D01*
X148840000Y-118220000D01*
X148840000Y-119042320D01*
X148340000Y-119042320D01*
X148340000Y-118220000D01*
X147517472Y-118220000D01*
X145528747Y-118220000D01*
X146178928Y-117569819D01*
X146240251Y-117536334D01*
X146266609Y-117533500D01*
X146341030Y-117533500D01*
X146408069Y-117553185D01*
X146413915Y-117557182D01*
X146500378Y-117620000D01*
X146539019Y-117648074D01*
X146627554Y-117693185D01*
X146694483Y-117727288D01*
X146694486Y-117727289D01*
X146777455Y-117754246D01*
X146860426Y-117781205D01*
X147032759Y-117808500D01*
X147032760Y-117808500D01*
X147607240Y-117808500D01*
X147607241Y-117808500D01*
X147779574Y-117781205D01*
X147945516Y-117727288D01*
X147945517Y-117727287D01*
X147949267Y-117726069D01*
X147987585Y-117720000D01*
X148345025Y-117720000D01*
X148309930Y-117755095D01*
X148263852Y-117834905D01*
X148240000Y-117923922D01*
X148240000Y-118016078D01*
X148263852Y-118105095D01*
X148309930Y-118184905D01*
X148375095Y-118250070D01*
X148454905Y-118296148D01*
X148543922Y-118320000D01*
X148636078Y-118320000D01*
X148725095Y-118296148D01*
X148804905Y-118250070D01*
X148870070Y-118184905D01*
X148916148Y-118105095D01*
X148940000Y-118016078D01*
X148940000Y-117923922D01*
X148916148Y-117834905D01*
X148870070Y-117755095D01*
X148834975Y-117720000D01*
X149401159Y-117720000D01*
X149445952Y-117728373D01*
X149544260Y-117766456D01*
X149555345Y-117770751D01*
X149757282Y-117808500D01*
X149757284Y-117808500D01*
X149962716Y-117808500D01*
X149962718Y-117808500D01*
X150164655Y-117770751D01*
X150356218Y-117696540D01*
X150530882Y-117588392D01*
X150555597Y-117565860D01*
X150618400Y-117535246D01*
X150639133Y-117533500D01*
X151897907Y-117533500D01*
X152062093Y-117533500D01*
X153721030Y-117533500D01*
X153788069Y-117553185D01*
X153793915Y-117557182D01*
X153880378Y-117620000D01*
X153919019Y-117648074D01*
X154007554Y-117693185D01*
X154074483Y-117727288D01*
X154074486Y-117727289D01*
X154157455Y-117754246D01*
X154240426Y-117781205D01*
X154412759Y-117808500D01*
X154412760Y-117808500D01*
X154987240Y-117808500D01*
X154987241Y-117808500D01*
X155159574Y-117781205D01*
X155325516Y-117727288D01*
X155325517Y-117727287D01*
X155329267Y-117726069D01*
X155367585Y-117720000D01*
X155725025Y-117720000D01*
X155689930Y-117755095D01*
X155643852Y-117834905D01*
X155620000Y-117923922D01*
X155620000Y-118016078D01*
X155643852Y-118105095D01*
X155689930Y-118184905D01*
X155755095Y-118250070D01*
X155834905Y-118296148D01*
X155923922Y-118320000D01*
X156016078Y-118320000D01*
X156105095Y-118296148D01*
X156184905Y-118250070D01*
X156250070Y-118184905D01*
X156296148Y-118105095D01*
X156320000Y-118016078D01*
X156320000Y-117923922D01*
X156296148Y-117834905D01*
X156250070Y-117755095D01*
X156214975Y-117720000D01*
X156781159Y-117720000D01*
X156825952Y-117728373D01*
X156924260Y-117766456D01*
X156935345Y-117770751D01*
X157137282Y-117808500D01*
X157137284Y-117808500D01*
X157342716Y-117808500D01*
X157342718Y-117808500D01*
X157544655Y-117770751D01*
X157736218Y-117696540D01*
X157743434Y-117692071D01*
X157808710Y-117673500D01*
X158867500Y-117673500D01*
X158934539Y-117693185D01*
X158980294Y-117745989D01*
X158991500Y-117797500D01*
X158991500Y-118448654D01*
X158998011Y-118509202D01*
X158998011Y-118509204D01*
X159047063Y-118640713D01*
X159049111Y-118646204D01*
X159136739Y-118763261D01*
X159253796Y-118850889D01*
X159326955Y-118878176D01*
X159389246Y-118901410D01*
X159390799Y-118901989D01*
X159418050Y-118904918D01*
X159451345Y-118908499D01*
X159451362Y-118908500D01*
X161148638Y-118908500D01*
X161148651Y-118908499D01*
X161170133Y-118906189D01*
X161209201Y-118901989D01*
X161209203Y-118901987D01*
X161214579Y-118901410D01*
X161283338Y-118913814D01*
X161327101Y-118950386D01*
X161336739Y-118963261D01*
X161453796Y-119050889D01*
X161590799Y-119101989D01*
X161618050Y-119104918D01*
X161651345Y-119108499D01*
X161651362Y-119108500D01*
X163348638Y-119108500D01*
X163348654Y-119108499D01*
X163375692Y-119105591D01*
X163409201Y-119101989D01*
X163459654Y-119083171D01*
X163502130Y-119067328D01*
X163571822Y-119062343D01*
X163633145Y-119095827D01*
X163741348Y-119204030D01*
X163892262Y-119297115D01*
X164060574Y-119352887D01*
X164164455Y-119363500D01*
X165515544Y-119363499D01*
X165619426Y-119352887D01*
X165787738Y-119297115D01*
X165938652Y-119204030D01*
X165986795Y-119155886D01*
X166048116Y-119122402D01*
X166117807Y-119127386D01*
X166173740Y-119169255D01*
X166176737Y-119173259D01*
X166176738Y-119173259D01*
X166176739Y-119173261D01*
X166293796Y-119260889D01*
X166430799Y-119311989D01*
X166458050Y-119314918D01*
X166491345Y-119318499D01*
X166491362Y-119318500D01*
X168588638Y-119318500D01*
X168588654Y-119318499D01*
X168615692Y-119315591D01*
X168649201Y-119311989D01*
X168786204Y-119260889D01*
X168903261Y-119173261D01*
X168990889Y-119056204D01*
X169041989Y-118919201D01*
X169047104Y-118871625D01*
X169048499Y-118858654D01*
X169048500Y-118858637D01*
X169048500Y-117261362D01*
X169048499Y-117261345D01*
X169045157Y-117230270D01*
X169041989Y-117200799D01*
X169032787Y-117176128D01*
X168990888Y-117063793D01*
X168990887Y-117063792D01*
X168931387Y-116984311D01*
X168906969Y-116918847D01*
X168921820Y-116850574D01*
X168931387Y-116835689D01*
X168990887Y-116756207D01*
X168990888Y-116756205D01*
X168990887Y-116756205D01*
X168990889Y-116756204D01*
X169011202Y-116701743D01*
X169021489Y-116674165D01*
X169063361Y-116618232D01*
X169128826Y-116593816D01*
X169137670Y-116593500D01*
X172207500Y-116593500D01*
X172274539Y-116613185D01*
X172320294Y-116665989D01*
X172331500Y-116717500D01*
X172331500Y-117708654D01*
X172338011Y-117769202D01*
X172338011Y-117769204D01*
X172389111Y-117906204D01*
X172476739Y-118023261D01*
X172593796Y-118110889D01*
X172730799Y-118161989D01*
X172758050Y-118164918D01*
X172791345Y-118168499D01*
X172791362Y-118168500D01*
X172882500Y-118168500D01*
X172949539Y-118188185D01*
X172995294Y-118240989D01*
X173006500Y-118292500D01*
X173006500Y-119891904D01*
X172986815Y-119958943D01*
X172947598Y-119997442D01*
X172901348Y-120025969D01*
X172775971Y-120151346D01*
X172682886Y-120302259D01*
X172682884Y-120302264D01*
X172627113Y-120470572D01*
X172616500Y-120574447D01*
X172616500Y-121425537D01*
X172616501Y-121425553D01*
X172627113Y-121529427D01*
X172682884Y-121697735D01*
X172682886Y-121697740D01*
X172689799Y-121708947D01*
X172775970Y-121848652D01*
X172901348Y-121974030D01*
X173052262Y-122067115D01*
X173220574Y-122122887D01*
X173324455Y-122133500D01*
X174675544Y-122133499D01*
X174779426Y-122122887D01*
X174947738Y-122067115D01*
X175098652Y-121974030D01*
X175224030Y-121848652D01*
X175317115Y-121697738D01*
X175372887Y-121529426D01*
X175383500Y-121425545D01*
X175383499Y-120574456D01*
X175372887Y-120470574D01*
X175317115Y-120302262D01*
X175224030Y-120151348D01*
X175098652Y-120025970D01*
X174986259Y-119956645D01*
X174947740Y-119932886D01*
X174947735Y-119932884D01*
X174779425Y-119877112D01*
X174772808Y-119875696D01*
X174773387Y-119872990D01*
X174720140Y-119851222D01*
X174680027Y-119794014D01*
X174673500Y-119754313D01*
X174673500Y-118292500D01*
X174693185Y-118225461D01*
X174745989Y-118179706D01*
X174797500Y-118168500D01*
X174888638Y-118168500D01*
X174888654Y-118168499D01*
X174915692Y-118165591D01*
X174949201Y-118161989D01*
X175086204Y-118110889D01*
X175203261Y-118023261D01*
X175290889Y-117906204D01*
X175341989Y-117769201D01*
X175345591Y-117735692D01*
X175348499Y-117708654D01*
X175348500Y-117708637D01*
X175348500Y-117173422D01*
X175368185Y-117106383D01*
X175420989Y-117060628D01*
X175490147Y-117050684D01*
X175537595Y-117067883D01*
X175583990Y-117096500D01*
X175682253Y-117157110D01*
X175682256Y-117157111D01*
X175682262Y-117157115D01*
X175850574Y-117212887D01*
X175954455Y-117223500D01*
X176805544Y-117223499D01*
X176909426Y-117212887D01*
X177077738Y-117157115D01*
X177228652Y-117064030D01*
X177354030Y-116938652D01*
X177447115Y-116787738D01*
X177502887Y-116619426D01*
X177513500Y-116515545D01*
X177513499Y-115164456D01*
X177502887Y-115060574D01*
X177447115Y-114892262D01*
X177354030Y-114741348D01*
X177278658Y-114665976D01*
X177245173Y-114604653D01*
X177250157Y-114534961D01*
X177292028Y-114479029D01*
X177403261Y-114395761D01*
X177403260Y-114395761D01*
X177409978Y-114390733D01*
X177475442Y-114366316D01*
X177484288Y-114366000D01*
X177882485Y-114366000D01*
X177949524Y-114385685D01*
X177956788Y-114390727D01*
X178023796Y-114440889D01*
X178116626Y-114475513D01*
X178160793Y-114491987D01*
X178160799Y-114491989D01*
X178169043Y-114492875D01*
X178233593Y-114519609D01*
X178273444Y-114576999D01*
X178275941Y-114646824D01*
X178243473Y-114703844D01*
X178205971Y-114741346D01*
X178112886Y-114892259D01*
X178112884Y-114892264D01*
X178057113Y-115060572D01*
X178046500Y-115164447D01*
X178046500Y-116515537D01*
X178046501Y-116515553D01*
X178057113Y-116619427D01*
X178084869Y-116703189D01*
X178112885Y-116787738D01*
X178205970Y-116938652D01*
X178331348Y-117064030D01*
X178482262Y-117157115D01*
X178650574Y-117212887D01*
X178754455Y-117223500D01*
X179605544Y-117223499D01*
X179709426Y-117212887D01*
X179877738Y-117157115D01*
X180028652Y-117064030D01*
X180154030Y-116938652D01*
X180247115Y-116787738D01*
X180302887Y-116619426D01*
X180302888Y-116619415D01*
X180303056Y-116618635D01*
X180303296Y-116618190D01*
X180305017Y-116612999D01*
X180305942Y-116613305D01*
X180336333Y-116557199D01*
X180355416Y-116541482D01*
X180436325Y-116487422D01*
X182047422Y-114876325D01*
X182122611Y-114763796D01*
X182138637Y-114739812D01*
X182138638Y-114739810D01*
X182201469Y-114588123D01*
X182233500Y-114427093D01*
X182233500Y-114262907D01*
X182233500Y-105378095D01*
X182253185Y-105311056D01*
X182292401Y-105272557D01*
X182338652Y-105244030D01*
X182464030Y-105118652D01*
X182557115Y-104967738D01*
X182612887Y-104799426D01*
X182623500Y-104695545D01*
X182623499Y-103344456D01*
X182612887Y-103240574D01*
X182557115Y-103072262D01*
X182464030Y-102921348D01*
X182338652Y-102795970D01*
X182338651Y-102795969D01*
X182292402Y-102767442D01*
X182245678Y-102715493D01*
X182233500Y-102661904D01*
X182233500Y-90117904D01*
X182233499Y-90117902D01*
X182201469Y-89956877D01*
X182140965Y-89810808D01*
X182139320Y-89806209D01*
X182047422Y-89668674D01*
X171581328Y-79202580D01*
X171581320Y-79202574D01*
X171444812Y-79111362D01*
X171293123Y-79048531D01*
X171293115Y-79048529D01*
X171132096Y-79016500D01*
X171132093Y-79016500D01*
X157176886Y-79016500D01*
X157109847Y-78996815D01*
X157064092Y-78944011D01*
X157053597Y-78905760D01*
X157051989Y-78890799D01*
X157051987Y-78890794D01*
X157051987Y-78890792D01*
X157022559Y-78811894D01*
X157000889Y-78753796D01*
X156913261Y-78636739D01*
X156796204Y-78549111D01*
X156659203Y-78498011D01*
X156598654Y-78491500D01*
X156598638Y-78491500D01*
X154801362Y-78491500D01*
X154801345Y-78491500D01*
X154740797Y-78498011D01*
X154740795Y-78498011D01*
X154603795Y-78549111D01*
X154486739Y-78636739D01*
X154399111Y-78753795D01*
X154350777Y-78883381D01*
X154308905Y-78939314D01*
X154243441Y-78963730D01*
X154175168Y-78948878D01*
X154146915Y-78927727D01*
X154031082Y-78811894D01*
X153837578Y-78676399D01*
X153623492Y-78576570D01*
X153623486Y-78576567D01*
X153410000Y-78519364D01*
X153410000Y-79416988D01*
X153352993Y-79384075D01*
X153225826Y-79350000D01*
X153094174Y-79350000D01*
X152967007Y-79384075D01*
X152910000Y-79416988D01*
X152910000Y-78519364D01*
X152909999Y-78519364D01*
X152696513Y-78576567D01*
X152696507Y-78576570D01*
X152482422Y-78676399D01*
X152482420Y-78676400D01*
X152288926Y-78811886D01*
X152288920Y-78811891D01*
X152121891Y-78978920D01*
X152121890Y-78978922D01*
X152014486Y-79132310D01*
X151959909Y-79175935D01*
X151890410Y-79183127D01*
X151844020Y-79164288D01*
X151777619Y-79119920D01*
X151742701Y-79084639D01*
X151695721Y-79012730D01*
X151543243Y-78847097D01*
X151543238Y-78847092D01*
X151365577Y-78708812D01*
X151365572Y-78708808D01*
X151167580Y-78601661D01*
X151167577Y-78601659D01*
X151167574Y-78601658D01*
X151167571Y-78601657D01*
X151167569Y-78601656D01*
X150954637Y-78528556D01*
X150732569Y-78491500D01*
X150507431Y-78491500D01*
X150285362Y-78528556D01*
X150072430Y-78601656D01*
X150072419Y-78601661D01*
X149874427Y-78708808D01*
X149874422Y-78708812D01*
X149696761Y-78847092D01*
X149577647Y-78976484D01*
X149517760Y-79012474D01*
X149486418Y-79016500D01*
X134777904Y-79016500D01*
X134616884Y-79048529D01*
X134616876Y-79048531D01*
X134465187Y-79111362D01*
X134328679Y-79202574D01*
X134328671Y-79202580D01*
X126601283Y-86929970D01*
X124038675Y-89492578D01*
X123980625Y-89550627D01*
X123922576Y-89608676D01*
X123922574Y-89608679D01*
X123831362Y-89745187D01*
X123768531Y-89896876D01*
X123768529Y-89896884D01*
X123736500Y-90057902D01*
X123736500Y-99744953D01*
X123716815Y-99811992D01*
X123715603Y-99813842D01*
X123711361Y-99820189D01*
X123711361Y-99820190D01*
X123683349Y-99887815D01*
X123639507Y-99942217D01*
X123633890Y-99945896D01*
X123601348Y-99965969D01*
X123475969Y-100091349D01*
X123382886Y-100242259D01*
X123382884Y-100242264D01*
X123327113Y-100410572D01*
X123316500Y-100514447D01*
X123316500Y-101101216D01*
X123296815Y-101168255D01*
X123295603Y-101170106D01*
X123213361Y-101293191D01*
X123150531Y-101444876D01*
X123150529Y-101444884D01*
X123118500Y-101605902D01*
X123118500Y-116379089D01*
X123098815Y-116446128D01*
X123046011Y-116491883D01*
X123033506Y-116496794D01*
X123004268Y-116506483D01*
X123004259Y-116506486D01*
X122853346Y-116599571D01*
X122727971Y-116724946D01*
X122634886Y-116875859D01*
X122634884Y-116875864D01*
X122579113Y-117044172D01*
X122568500Y-117148047D01*
X120025500Y-117148047D01*
X120025500Y-74878711D01*
X123149500Y-74878711D01*
X123149500Y-75121288D01*
X123181161Y-75361785D01*
X123243947Y-75596104D01*
X123277303Y-75676632D01*
X123336776Y-75820212D01*
X123458064Y-76030289D01*
X123458066Y-76030292D01*
X123458067Y-76030293D01*
X123605733Y-76222736D01*
X123605739Y-76222743D01*
X123777256Y-76394260D01*
X123777262Y-76394265D01*
X123969711Y-76541936D01*
X124179788Y-76663224D01*
X124403900Y-76756054D01*
X124638211Y-76818838D01*
X124818586Y-76842584D01*
X124878711Y-76850500D01*
X124878712Y-76850500D01*
X125121289Y-76850500D01*
X125169388Y-76844167D01*
X125361789Y-76818838D01*
X125596100Y-76756054D01*
X125820212Y-76663224D01*
X126030289Y-76541936D01*
X126222738Y-76394265D01*
X126394265Y-76222738D01*
X126541936Y-76030289D01*
X126663224Y-75820212D01*
X126756054Y-75596100D01*
X126818838Y-75361789D01*
X126850500Y-75121288D01*
X126850500Y-74878712D01*
X126848344Y-74862332D01*
X177899500Y-74862332D01*
X177899500Y-75137667D01*
X177899501Y-75137684D01*
X177935438Y-75410655D01*
X177935439Y-75410660D01*
X177935440Y-75410666D01*
X177935441Y-75410668D01*
X178006704Y-75676630D01*
X178112075Y-75931017D01*
X178112080Y-75931028D01*
X178194861Y-76074407D01*
X178249751Y-76169479D01*
X178249753Y-76169482D01*
X178249754Y-76169483D01*
X178417370Y-76387926D01*
X178417376Y-76387933D01*
X178612066Y-76582623D01*
X178612072Y-76582628D01*
X178830521Y-76750249D01*
X178983778Y-76838732D01*
X179068971Y-76887919D01*
X179068976Y-76887921D01*
X179068979Y-76887923D01*
X179323368Y-76993295D01*
X179589334Y-77064560D01*
X179862326Y-77100500D01*
X179862333Y-77100500D01*
X180137667Y-77100500D01*
X180137674Y-77100500D01*
X180410666Y-77064560D01*
X180676632Y-76993295D01*
X180931021Y-76887923D01*
X181169479Y-76750249D01*
X181387928Y-76582628D01*
X181582628Y-76387928D01*
X181750249Y-76169479D01*
X181887923Y-75931021D01*
X181993295Y-75676632D01*
X182064560Y-75410666D01*
X182100500Y-75137674D01*
X182100500Y-74862326D01*
X182064560Y-74589334D01*
X181993295Y-74323368D01*
X181887923Y-74068979D01*
X181887921Y-74068976D01*
X181887919Y-74068971D01*
X181838732Y-73983778D01*
X181750249Y-73830521D01*
X181582628Y-73612072D01*
X181582623Y-73612066D01*
X181387933Y-73417376D01*
X181387926Y-73417370D01*
X181169483Y-73249754D01*
X181169482Y-73249753D01*
X181169479Y-73249751D01*
X181050678Y-73181161D01*
X180931028Y-73112080D01*
X180931017Y-73112075D01*
X180676630Y-73006704D01*
X180543649Y-72971072D01*
X180410666Y-72935440D01*
X180410660Y-72935439D01*
X180410655Y-72935438D01*
X180137684Y-72899501D01*
X180137679Y-72899500D01*
X180137674Y-72899500D01*
X179862326Y-72899500D01*
X179862320Y-72899500D01*
X179862315Y-72899501D01*
X179589344Y-72935438D01*
X179589337Y-72935439D01*
X179589334Y-72935440D01*
X179533125Y-72950500D01*
X179323369Y-73006704D01*
X179068982Y-73112075D01*
X179068971Y-73112080D01*
X178830516Y-73249754D01*
X178612073Y-73417370D01*
X178612066Y-73417376D01*
X178417376Y-73612066D01*
X178417370Y-73612073D01*
X178249754Y-73830516D01*
X178112080Y-74068971D01*
X178112075Y-74068982D01*
X178006704Y-74323369D01*
X177935441Y-74589331D01*
X177935438Y-74589344D01*
X177899501Y-74862315D01*
X177899500Y-74862332D01*
X126848344Y-74862332D01*
X126818838Y-74638211D01*
X126756054Y-74403900D01*
X126663224Y-74179788D01*
X126541936Y-73969711D01*
X126394265Y-73777262D01*
X126394260Y-73777256D01*
X126222743Y-73605739D01*
X126222736Y-73605733D01*
X126030293Y-73458067D01*
X126030292Y-73458066D01*
X126030289Y-73458064D01*
X125820212Y-73336776D01*
X125820205Y-73336773D01*
X125596104Y-73243947D01*
X125361785Y-73181161D01*
X125121289Y-73149500D01*
X125121288Y-73149500D01*
X124878712Y-73149500D01*
X124878711Y-73149500D01*
X124638214Y-73181161D01*
X124403895Y-73243947D01*
X124179794Y-73336773D01*
X124179785Y-73336777D01*
X123969706Y-73458067D01*
X123777263Y-73605733D01*
X123777256Y-73605739D01*
X123605739Y-73777256D01*
X123605733Y-73777263D01*
X123458067Y-73969706D01*
X123336777Y-74179785D01*
X123336773Y-74179794D01*
X123243947Y-74403895D01*
X123181161Y-74638214D01*
X123149500Y-74878711D01*
X120025500Y-74878711D01*
X120025500Y-70149500D01*
X120045185Y-70082461D01*
X120097989Y-70036706D01*
X120149500Y-70025500D01*
X184850500Y-70025500D01*
X184917539Y-70045185D01*
G37*
G04 #@! TD.AperFunction*
M02*
