G04 #@! TF.GenerationSoftware,KiCad,Pcbnew,8.0.2*
G04 #@! TF.CreationDate,2024-06-23T21:23:39-04:00*
G04 #@! TF.ProjectId,Homodyne,486f6d6f-6479-46e6-952e-6b696361645f,rev?*
G04 #@! TF.SameCoordinates,Original*
G04 #@! TF.FileFunction,Legend,Bot*
G04 #@! TF.FilePolarity,Positive*
%FSLAX46Y46*%
G04 Gerber Fmt 4.6, Leading zero omitted, Abs format (unit mm)*
G04 Created by KiCad (PCBNEW 8.0.2) date 2024-06-23 21:23:39*
%MOMM*%
%LPD*%
G01*
G04 APERTURE LIST*
%ADD10C,0.150000*%
%ADD11C,0.120000*%
G04 APERTURE END LIST*
D10*
X149364819Y-103287142D02*
X148888628Y-102953809D01*
X149364819Y-102715714D02*
X148364819Y-102715714D01*
X148364819Y-102715714D02*
X148364819Y-103096666D01*
X148364819Y-103096666D02*
X148412438Y-103191904D01*
X148412438Y-103191904D02*
X148460057Y-103239523D01*
X148460057Y-103239523D02*
X148555295Y-103287142D01*
X148555295Y-103287142D02*
X148698152Y-103287142D01*
X148698152Y-103287142D02*
X148793390Y-103239523D01*
X148793390Y-103239523D02*
X148841009Y-103191904D01*
X148841009Y-103191904D02*
X148888628Y-103096666D01*
X148888628Y-103096666D02*
X148888628Y-102715714D01*
X149364819Y-104239523D02*
X149364819Y-103668095D01*
X149364819Y-103953809D02*
X148364819Y-103953809D01*
X148364819Y-103953809D02*
X148507676Y-103858571D01*
X148507676Y-103858571D02*
X148602914Y-103763333D01*
X148602914Y-103763333D02*
X148650533Y-103668095D01*
X148364819Y-104858571D02*
X148364819Y-104953809D01*
X148364819Y-104953809D02*
X148412438Y-105049047D01*
X148412438Y-105049047D02*
X148460057Y-105096666D01*
X148460057Y-105096666D02*
X148555295Y-105144285D01*
X148555295Y-105144285D02*
X148745771Y-105191904D01*
X148745771Y-105191904D02*
X148983866Y-105191904D01*
X148983866Y-105191904D02*
X149174342Y-105144285D01*
X149174342Y-105144285D02*
X149269580Y-105096666D01*
X149269580Y-105096666D02*
X149317200Y-105049047D01*
X149317200Y-105049047D02*
X149364819Y-104953809D01*
X149364819Y-104953809D02*
X149364819Y-104858571D01*
X149364819Y-104858571D02*
X149317200Y-104763333D01*
X149317200Y-104763333D02*
X149269580Y-104715714D01*
X149269580Y-104715714D02*
X149174342Y-104668095D01*
X149174342Y-104668095D02*
X148983866Y-104620476D01*
X148983866Y-104620476D02*
X148745771Y-104620476D01*
X148745771Y-104620476D02*
X148555295Y-104668095D01*
X148555295Y-104668095D02*
X148460057Y-104715714D01*
X148460057Y-104715714D02*
X148412438Y-104763333D01*
X148412438Y-104763333D02*
X148364819Y-104858571D01*
X152879580Y-103347142D02*
X152927200Y-103299523D01*
X152927200Y-103299523D02*
X152974819Y-103156666D01*
X152974819Y-103156666D02*
X152974819Y-103061428D01*
X152974819Y-103061428D02*
X152927200Y-102918571D01*
X152927200Y-102918571D02*
X152831961Y-102823333D01*
X152831961Y-102823333D02*
X152736723Y-102775714D01*
X152736723Y-102775714D02*
X152546247Y-102728095D01*
X152546247Y-102728095D02*
X152403390Y-102728095D01*
X152403390Y-102728095D02*
X152212914Y-102775714D01*
X152212914Y-102775714D02*
X152117676Y-102823333D01*
X152117676Y-102823333D02*
X152022438Y-102918571D01*
X152022438Y-102918571D02*
X151974819Y-103061428D01*
X151974819Y-103061428D02*
X151974819Y-103156666D01*
X151974819Y-103156666D02*
X152022438Y-103299523D01*
X152022438Y-103299523D02*
X152070057Y-103347142D01*
X152974819Y-104299523D02*
X152974819Y-103728095D01*
X152974819Y-104013809D02*
X151974819Y-104013809D01*
X151974819Y-104013809D02*
X152117676Y-103918571D01*
X152117676Y-103918571D02*
X152212914Y-103823333D01*
X152212914Y-103823333D02*
X152260533Y-103728095D01*
X152403390Y-104870952D02*
X152355771Y-104775714D01*
X152355771Y-104775714D02*
X152308152Y-104728095D01*
X152308152Y-104728095D02*
X152212914Y-104680476D01*
X152212914Y-104680476D02*
X152165295Y-104680476D01*
X152165295Y-104680476D02*
X152070057Y-104728095D01*
X152070057Y-104728095D02*
X152022438Y-104775714D01*
X152022438Y-104775714D02*
X151974819Y-104870952D01*
X151974819Y-104870952D02*
X151974819Y-105061428D01*
X151974819Y-105061428D02*
X152022438Y-105156666D01*
X152022438Y-105156666D02*
X152070057Y-105204285D01*
X152070057Y-105204285D02*
X152165295Y-105251904D01*
X152165295Y-105251904D02*
X152212914Y-105251904D01*
X152212914Y-105251904D02*
X152308152Y-105204285D01*
X152308152Y-105204285D02*
X152355771Y-105156666D01*
X152355771Y-105156666D02*
X152403390Y-105061428D01*
X152403390Y-105061428D02*
X152403390Y-104870952D01*
X152403390Y-104870952D02*
X152451009Y-104775714D01*
X152451009Y-104775714D02*
X152498628Y-104728095D01*
X152498628Y-104728095D02*
X152593866Y-104680476D01*
X152593866Y-104680476D02*
X152784342Y-104680476D01*
X152784342Y-104680476D02*
X152879580Y-104728095D01*
X152879580Y-104728095D02*
X152927200Y-104775714D01*
X152927200Y-104775714D02*
X152974819Y-104870952D01*
X152974819Y-104870952D02*
X152974819Y-105061428D01*
X152974819Y-105061428D02*
X152927200Y-105156666D01*
X152927200Y-105156666D02*
X152879580Y-105204285D01*
X152879580Y-105204285D02*
X152784342Y-105251904D01*
X152784342Y-105251904D02*
X152593866Y-105251904D01*
X152593866Y-105251904D02*
X152498628Y-105204285D01*
X152498628Y-105204285D02*
X152451009Y-105156666D01*
X152451009Y-105156666D02*
X152403390Y-105061428D01*
D11*
X151090000Y-103222936D02*
X151090000Y-104427064D01*
X152910000Y-103222936D02*
X152910000Y-104427064D01*
X153420000Y-103640000D02*
X153420000Y-104340000D01*
X154620000Y-104340000D02*
X154620000Y-103640000D01*
M02*
