M48
; DRILL file {KiCad 8.0.2} date 2024-06-23T21:22:56-0400
; FORMAT={-:-/ absolute / metric / decimal}
; #@! TF.CreationDate,2024-06-23T21:22:56-04:00
; #@! TF.GenerationSoftware,Kicad,Pcbnew,8.0.2
; #@! TF.FileFunction,Plated,1,2,PTH
FMAT,2
METRIC
; #@! TA.AperFunction,Plated,PTH,ViaDrill
T1C0.400
; #@! TA.AperFunction,Plated,PTH,ComponentDrill
T2C0.700
; #@! TA.AperFunction,Plated,PTH,ViaDrill
T3C0.800
; #@! TA.AperFunction,Plated,PTH,ComponentDrill
T4C1.000
; #@! TA.AperFunction,Plated,PTH,ComponentDrill
T5C1.500
; #@! TA.AperFunction,Plated,PTH,ComponentDrill
T6C1.600
%
G90
G05
T1
X152.025Y-106.425
X153.275Y-101.5
T2
X147.32Y-116.7
X148.59Y-117.97
X149.86Y-116.7
X154.7Y-116.7
X155.97Y-117.97
X157.24Y-116.7
T3
X124.0Y-84.0
X129.0Y-111.0
X133.0Y-91.0
X135.0Y-109.0
X137.0Y-124.0
X138.43Y-86.36
X140.0Y-107.0
X140.0Y-129.0
X142.0Y-74.0
X143.0Y-91.0
X143.0Y-112.0
X150.0Y-124.5
X156.5Y-129.0
X161.0Y-83.0
X163.0Y-93.0
X163.5Y-126.0
X167.0Y-75.0
X168.0Y-96.0
X169.0Y-84.0
X171.0Y-110.0
X171.0Y-124.0
X175.0Y-92.0
X175.0Y-97.0
X179.0Y-124.0
X182.0Y-119.0
T4
X150.62Y-79.85
X153.16Y-79.85
X155.7Y-79.85
T5
X153.26Y-88.885
T6
X150.62Y-86.42
X150.62Y-91.5
X155.7Y-86.42
X155.7Y-91.5
M30
