G04 #@! TF.GenerationSoftware,KiCad,Pcbnew,8.0.2*
G04 #@! TF.CreationDate,2024-06-23T21:23:38-04:00*
G04 #@! TF.ProjectId,Homodyne,486f6d6f-6479-46e6-952e-6b696361645f,rev?*
G04 #@! TF.SameCoordinates,Original*
G04 #@! TF.FileFunction,Paste,Top*
G04 #@! TF.FilePolarity,Positive*
%FSLAX46Y46*%
G04 Gerber Fmt 4.6, Leading zero omitted, Abs format (unit mm)*
G04 Created by KiCad (PCBNEW 8.0.2) date 2024-06-23 21:23:38*
%MOMM*%
%LPD*%
G01*
G04 APERTURE LIST*
G04 Aperture macros list*
%AMRoundRect*
0 Rectangle with rounded corners*
0 $1 Rounding radius*
0 $2 $3 $4 $5 $6 $7 $8 $9 X,Y pos of 4 corners*
0 Add a 4 corners polygon primitive as box body*
4,1,4,$2,$3,$4,$5,$6,$7,$8,$9,$2,$3,0*
0 Add four circle primitives for the rounded corners*
1,1,$1+$1,$2,$3*
1,1,$1+$1,$4,$5*
1,1,$1+$1,$6,$7*
1,1,$1+$1,$8,$9*
0 Add four rect primitives between the rounded corners*
20,1,$1+$1,$2,$3,$4,$5,0*
20,1,$1+$1,$4,$5,$6,$7,0*
20,1,$1+$1,$6,$7,$8,$9,0*
20,1,$1+$1,$8,$9,$2,$3,0*%
G04 Aperture macros list end*
%ADD10RoundRect,0.375000X-0.625000X-0.375000X0.625000X-0.375000X0.625000X0.375000X-0.625000X0.375000X0*%
%ADD11RoundRect,0.500000X-0.500000X-1.400000X0.500000X-1.400000X0.500000X1.400000X-0.500000X1.400000X0*%
%ADD12RoundRect,0.250000X0.375000X0.625000X-0.375000X0.625000X-0.375000X-0.625000X0.375000X-0.625000X0*%
%ADD13RoundRect,0.250000X-0.375000X-0.625000X0.375000X-0.625000X0.375000X0.625000X-0.375000X0.625000X0*%
%ADD14R,2.000000X1.500000*%
%ADD15R,2.000000X3.800000*%
%ADD16RoundRect,0.250000X-0.625000X0.375000X-0.625000X-0.375000X0.625000X-0.375000X0.625000X0.375000X0*%
%ADD17RoundRect,0.250000X0.625000X-0.375000X0.625000X0.375000X-0.625000X0.375000X-0.625000X-0.375000X0*%
%ADD18RoundRect,0.150000X0.150000X-0.825000X0.150000X0.825000X-0.150000X0.825000X-0.150000X-0.825000X0*%
%ADD19R,1.600000X1.000000*%
%ADD20R,1.000000X1.600000*%
%ADD21RoundRect,0.250000X-0.312500X-0.625000X0.312500X-0.625000X0.312500X0.625000X-0.312500X0.625000X0*%
%ADD22RoundRect,0.250000X0.312500X0.625000X-0.312500X0.625000X-0.312500X-0.625000X0.312500X-0.625000X0*%
%ADD23RoundRect,0.250000X0.625000X-0.312500X0.625000X0.312500X-0.625000X0.312500X-0.625000X-0.312500X0*%
G04 APERTURE END LIST*
D10*
X136790000Y-96600000D03*
X136790000Y-98900000D03*
X136790000Y-101200000D03*
D11*
X143090000Y-98900000D03*
D12*
X181490000Y-104020000D03*
X178690000Y-104020000D03*
D13*
X124450000Y-101190000D03*
X127250000Y-101190000D03*
D14*
X166310000Y-101590000D03*
X166310000Y-103890000D03*
D15*
X172610000Y-103890000D03*
D14*
X166310000Y-106190000D03*
D16*
X161350000Y-103590000D03*
X161350000Y-106390000D03*
D17*
X129200000Y-99100000D03*
X129200000Y-96300000D03*
X161380000Y-101640000D03*
X161380000Y-98840000D03*
D18*
X150735000Y-106455000D03*
X152005000Y-106455000D03*
X153275000Y-106455000D03*
X154545000Y-106455000D03*
X154545000Y-101505000D03*
X153275000Y-101505000D03*
X152005000Y-101505000D03*
X150735000Y-101505000D03*
D12*
X156260000Y-109450000D03*
X153460000Y-109450000D03*
D17*
X165100000Y-111300000D03*
X165100000Y-108500000D03*
D12*
X179180000Y-115840000D03*
X176380000Y-115840000D03*
D17*
X164840000Y-118230000D03*
X164840000Y-115430000D03*
D10*
X131860000Y-115780000D03*
X131860000Y-118080000D03*
X131860000Y-120380000D03*
D11*
X138160000Y-118080000D03*
D12*
X129286000Y-118059200D03*
X126486000Y-118059200D03*
D14*
X167540000Y-113460000D03*
X167540000Y-115760000D03*
D15*
X173840000Y-115760000D03*
D14*
X167540000Y-118060000D03*
D17*
X126542800Y-115598400D03*
X126542800Y-112798400D03*
D16*
X123952000Y-117573600D03*
X123952000Y-120373600D03*
D19*
X176240000Y-110532500D03*
X176240000Y-113532500D03*
X179070000Y-110490000D03*
X179070000Y-113490000D03*
X127101600Y-120343800D03*
X127101600Y-123343800D03*
D20*
X156440000Y-111760000D03*
X153440000Y-111760000D03*
D19*
X160300000Y-117900000D03*
X160300000Y-120900000D03*
X143510000Y-118110000D03*
X143510000Y-121110000D03*
X129500000Y-101140000D03*
X129500000Y-104140000D03*
X176000000Y-99060000D03*
X176000000Y-102060000D03*
D20*
X163300000Y-113400000D03*
X160300000Y-113400000D03*
D19*
X156540000Y-103680000D03*
X156540000Y-106680000D03*
X162500000Y-118100000D03*
X162500000Y-121100000D03*
X140680000Y-118110000D03*
X140680000Y-121110000D03*
X163830000Y-101600000D03*
X163830000Y-98600000D03*
X146050000Y-99060000D03*
X146050000Y-102060000D03*
X148590000Y-99060000D03*
X148590000Y-102060000D03*
X159020000Y-106680000D03*
X159020000Y-103680000D03*
X134620000Y-96520000D03*
X134620000Y-93520000D03*
X129006600Y-115622200D03*
X129006600Y-112622200D03*
X132080000Y-101140000D03*
X132080000Y-104140000D03*
D17*
X132080000Y-96400000D03*
X132080000Y-93600000D03*
D19*
X176000000Y-107500000D03*
X176000000Y-104500000D03*
X129463800Y-120343800D03*
X129463800Y-123343800D03*
D17*
X133000000Y-126500000D03*
X133000000Y-123700000D03*
D16*
X174000000Y-121000000D03*
X174000000Y-123800000D03*
D21*
X137000000Y-126500000D03*
X139925000Y-126500000D03*
D22*
X172925000Y-127000000D03*
X170000000Y-127000000D03*
D23*
X153500000Y-97925000D03*
X153500000Y-95000000D03*
M02*
