G04 #@! TF.GenerationSoftware,KiCad,Pcbnew,8.0.2*
G04 #@! TF.CreationDate,2024-06-23T21:23:38-04:00*
G04 #@! TF.ProjectId,Homodyne,486f6d6f-6479-46e6-952e-6b696361645f,rev?*
G04 #@! TF.SameCoordinates,Original*
G04 #@! TF.FileFunction,Copper,L2,Bot*
G04 #@! TF.FilePolarity,Positive*
%FSLAX46Y46*%
G04 Gerber Fmt 4.6, Leading zero omitted, Abs format (unit mm)*
G04 Created by KiCad (PCBNEW 8.0.2) date 2024-06-23 21:23:38*
%MOMM*%
%LPD*%
G01*
G04 APERTURE LIST*
G04 Aperture macros list*
%AMRoundRect*
0 Rectangle with rounded corners*
0 $1 Rounding radius*
0 $2 $3 $4 $5 $6 $7 $8 $9 X,Y pos of 4 corners*
0 Add a 4 corners polygon primitive as box body*
4,1,4,$2,$3,$4,$5,$6,$7,$8,$9,$2,$3,0*
0 Add four circle primitives for the rounded corners*
1,1,$1+$1,$2,$3*
1,1,$1+$1,$4,$5*
1,1,$1+$1,$6,$7*
1,1,$1+$1,$8,$9*
0 Add four rect primitives between the rounded corners*
20,1,$1+$1,$2,$3,$4,$5,0*
20,1,$1+$1,$4,$5,$6,$7,0*
20,1,$1+$1,$6,$7,$8,$9,0*
20,1,$1+$1,$8,$9,$2,$3,0*%
G04 Aperture macros list end*
G04 #@! TA.AperFunction,ComponentPad*
%ADD10C,2.600000*%
G04 #@! TD*
G04 #@! TA.AperFunction,ComponentPad*
%ADD11C,2.500000*%
G04 #@! TD*
G04 #@! TA.AperFunction,ComponentPad*
%ADD12R,1.700000X1.700000*%
G04 #@! TD*
G04 #@! TA.AperFunction,ComponentPad*
%ADD13O,1.700000X1.700000*%
G04 #@! TD*
G04 #@! TA.AperFunction,ComponentPad*
%ADD14O,1.600000X1.200000*%
G04 #@! TD*
G04 #@! TA.AperFunction,ComponentPad*
%ADD15O,1.200000X1.200000*%
G04 #@! TD*
G04 #@! TA.AperFunction,SMDPad,CuDef*
%ADD16RoundRect,0.250000X-0.625000X0.375000X-0.625000X-0.375000X0.625000X-0.375000X0.625000X0.375000X0*%
G04 #@! TD*
G04 #@! TA.AperFunction,SMDPad,CuDef*
%ADD17R,0.750000X0.800000*%
G04 #@! TD*
G04 #@! TA.AperFunction,ViaPad*
%ADD18C,1.500000*%
G04 #@! TD*
G04 #@! TA.AperFunction,ViaPad*
%ADD19C,0.800000*%
G04 #@! TD*
G04 #@! TA.AperFunction,Conductor*
%ADD20C,0.650000*%
G04 #@! TD*
G04 APERTURE END LIST*
D10*
X150620000Y-86420000D03*
X150620000Y-91500000D03*
X155700000Y-86420000D03*
X155700000Y-91500000D03*
D11*
X153260000Y-88885000D03*
D12*
X155700000Y-79850000D03*
D13*
X153160000Y-79850000D03*
X150620000Y-79850000D03*
D14*
X147320000Y-116700000D03*
D15*
X148590000Y-117970000D03*
X149860000Y-116700000D03*
D14*
X154700000Y-116700000D03*
D15*
X155970000Y-117970000D03*
X157240000Y-116700000D03*
D16*
X152000000Y-102425000D03*
X152000000Y-105225000D03*
D17*
X154020000Y-103240000D03*
X154020000Y-104740000D03*
D18*
X156500000Y-129000000D03*
X142000000Y-74000000D03*
X129000000Y-111000000D03*
X161000000Y-83000000D03*
X179000000Y-124000000D03*
X169000000Y-84000000D03*
X133000000Y-91000000D03*
X124000000Y-84000000D03*
X182000000Y-119000000D03*
X163500000Y-126000000D03*
X143000000Y-91000000D03*
X140000000Y-129000000D03*
X140000000Y-107000000D03*
X175000000Y-92000000D03*
X135000000Y-109000000D03*
X137000000Y-124000000D03*
X171000000Y-110000000D03*
X171000000Y-124000000D03*
X168000000Y-96000000D03*
X167000000Y-75000000D03*
X163000000Y-93000000D03*
X143000000Y-112000000D03*
X175000000Y-97000000D03*
X150000000Y-124500000D03*
X138430000Y-86360000D03*
D19*
X153275000Y-101500000D03*
X152025000Y-106425000D03*
D20*
X152000000Y-102425000D02*
X152350000Y-102425000D01*
X152350000Y-102425000D02*
X153275000Y-101500000D01*
X153205000Y-102425000D02*
X154020000Y-103240000D01*
X152000000Y-102425000D02*
X153205000Y-102425000D01*
X152025000Y-105250000D02*
X152000000Y-105225000D01*
X152025000Y-106425000D02*
X152025000Y-105250000D01*
X153535000Y-105225000D02*
X154020000Y-104740000D01*
X152000000Y-105225000D02*
X153535000Y-105225000D01*
G04 #@! TA.AperFunction,Conductor*
G36*
X184917539Y-70045185D02*
G01*
X184963294Y-70097989D01*
X184974500Y-70149500D01*
X184974500Y-134850500D01*
X184954815Y-134917539D01*
X184902011Y-134963294D01*
X184850500Y-134974500D01*
X120149500Y-134974500D01*
X120082461Y-134954815D01*
X120036706Y-134902011D01*
X120025500Y-134850500D01*
X120025500Y-129878711D01*
X123149500Y-129878711D01*
X123149500Y-130121288D01*
X123181161Y-130361785D01*
X123243947Y-130596104D01*
X123277303Y-130676632D01*
X123336776Y-130820212D01*
X123458064Y-131030289D01*
X123458066Y-131030292D01*
X123458067Y-131030293D01*
X123605733Y-131222736D01*
X123605739Y-131222743D01*
X123777256Y-131394260D01*
X123777262Y-131394265D01*
X123969711Y-131541936D01*
X124179788Y-131663224D01*
X124403900Y-131756054D01*
X124638211Y-131818838D01*
X124818586Y-131842584D01*
X124878711Y-131850500D01*
X124878712Y-131850500D01*
X125121289Y-131850500D01*
X125169388Y-131844167D01*
X125361789Y-131818838D01*
X125596100Y-131756054D01*
X125820212Y-131663224D01*
X126030289Y-131541936D01*
X126222738Y-131394265D01*
X126394265Y-131222738D01*
X126541936Y-131030289D01*
X126663224Y-130820212D01*
X126756054Y-130596100D01*
X126818838Y-130361789D01*
X126850500Y-130121288D01*
X126850500Y-129878712D01*
X126848344Y-129862332D01*
X177899500Y-129862332D01*
X177899500Y-130137667D01*
X177899501Y-130137684D01*
X177935438Y-130410655D01*
X177935439Y-130410660D01*
X177935440Y-130410666D01*
X177935441Y-130410668D01*
X178006704Y-130676630D01*
X178112075Y-130931017D01*
X178112080Y-130931028D01*
X178194861Y-131074407D01*
X178249751Y-131169479D01*
X178249753Y-131169482D01*
X178249754Y-131169483D01*
X178417370Y-131387926D01*
X178417376Y-131387933D01*
X178612066Y-131582623D01*
X178612072Y-131582628D01*
X178830521Y-131750249D01*
X178983778Y-131838732D01*
X179068971Y-131887919D01*
X179068976Y-131887921D01*
X179068979Y-131887923D01*
X179323368Y-131993295D01*
X179589334Y-132064560D01*
X179862326Y-132100500D01*
X179862333Y-132100500D01*
X180137667Y-132100500D01*
X180137674Y-132100500D01*
X180410666Y-132064560D01*
X180676632Y-131993295D01*
X180931021Y-131887923D01*
X181169479Y-131750249D01*
X181387928Y-131582628D01*
X181582628Y-131387928D01*
X181750249Y-131169479D01*
X181887923Y-130931021D01*
X181993295Y-130676632D01*
X182064560Y-130410666D01*
X182100500Y-130137674D01*
X182100500Y-129862326D01*
X182064560Y-129589334D01*
X181993295Y-129323368D01*
X181887923Y-129068979D01*
X181887921Y-129068976D01*
X181887919Y-129068971D01*
X181838732Y-128983778D01*
X181750249Y-128830521D01*
X181582628Y-128612072D01*
X181582623Y-128612066D01*
X181387933Y-128417376D01*
X181387926Y-128417370D01*
X181169483Y-128249754D01*
X181169482Y-128249753D01*
X181169479Y-128249751D01*
X181050678Y-128181161D01*
X180931028Y-128112080D01*
X180931017Y-128112075D01*
X180676630Y-128006704D01*
X180543649Y-127971072D01*
X180410666Y-127935440D01*
X180410660Y-127935439D01*
X180410655Y-127935438D01*
X180137684Y-127899501D01*
X180137679Y-127899500D01*
X180137674Y-127899500D01*
X179862326Y-127899500D01*
X179862320Y-127899500D01*
X179862315Y-127899501D01*
X179589344Y-127935438D01*
X179589337Y-127935439D01*
X179589334Y-127935440D01*
X179533125Y-127950500D01*
X179323369Y-128006704D01*
X179068982Y-128112075D01*
X179068971Y-128112080D01*
X178830516Y-128249754D01*
X178612073Y-128417370D01*
X178612066Y-128417376D01*
X178417376Y-128612066D01*
X178417370Y-128612073D01*
X178249754Y-128830516D01*
X178112080Y-129068971D01*
X178112075Y-129068982D01*
X178006704Y-129323369D01*
X177935441Y-129589331D01*
X177935438Y-129589344D01*
X177899501Y-129862315D01*
X177899500Y-129862332D01*
X126848344Y-129862332D01*
X126818838Y-129638211D01*
X126756054Y-129403900D01*
X126663224Y-129179788D01*
X126541936Y-128969711D01*
X126394265Y-128777262D01*
X126394260Y-128777256D01*
X126222743Y-128605739D01*
X126222736Y-128605733D01*
X126030293Y-128458067D01*
X126030292Y-128458066D01*
X126030289Y-128458064D01*
X125820212Y-128336776D01*
X125820205Y-128336773D01*
X125596104Y-128243947D01*
X125361785Y-128181161D01*
X125121289Y-128149500D01*
X125121288Y-128149500D01*
X124878712Y-128149500D01*
X124878711Y-128149500D01*
X124638214Y-128181161D01*
X124403895Y-128243947D01*
X124179794Y-128336773D01*
X124179785Y-128336777D01*
X123969706Y-128458067D01*
X123777263Y-128605733D01*
X123777256Y-128605739D01*
X123605739Y-128777256D01*
X123605733Y-128777263D01*
X123458067Y-128969706D01*
X123336777Y-129179785D01*
X123336773Y-129179794D01*
X123243947Y-129403895D01*
X123181161Y-129638214D01*
X123149500Y-129878711D01*
X120025500Y-129878711D01*
X120025500Y-118220000D01*
X147517472Y-118220000D01*
X147559885Y-118369065D01*
X147559890Y-118369078D01*
X147650754Y-118551556D01*
X147773608Y-118714242D01*
X147924260Y-118851578D01*
X148097584Y-118958897D01*
X148287678Y-119032539D01*
X148340000Y-119042320D01*
X148840000Y-119042320D01*
X148892321Y-119032539D01*
X149082415Y-118958897D01*
X149255739Y-118851578D01*
X149406391Y-118714242D01*
X149529245Y-118551556D01*
X149620109Y-118369078D01*
X149620114Y-118369065D01*
X149662528Y-118220000D01*
X154897472Y-118220000D01*
X154939885Y-118369065D01*
X154939890Y-118369078D01*
X155030754Y-118551556D01*
X155153608Y-118714242D01*
X155304260Y-118851578D01*
X155477584Y-118958897D01*
X155667678Y-119032539D01*
X155720000Y-119042320D01*
X156220000Y-119042320D01*
X156272321Y-119032539D01*
X156462415Y-118958897D01*
X156635739Y-118851578D01*
X156786391Y-118714242D01*
X156909245Y-118551556D01*
X157000109Y-118369078D01*
X157000114Y-118369065D01*
X157042528Y-118220000D01*
X156220000Y-118220000D01*
X156220000Y-119042320D01*
X155720000Y-119042320D01*
X155720000Y-118220000D01*
X154897472Y-118220000D01*
X149662528Y-118220000D01*
X148840000Y-118220000D01*
X148840000Y-119042320D01*
X148340000Y-119042320D01*
X148340000Y-118220000D01*
X147517472Y-118220000D01*
X120025500Y-118220000D01*
X120025500Y-116612759D01*
X146011500Y-116612759D01*
X146011500Y-116787240D01*
X146038795Y-116959575D01*
X146092710Y-117125513D01*
X146092711Y-117125516D01*
X146171928Y-117280984D01*
X146274477Y-117422132D01*
X146274481Y-117422137D01*
X146397862Y-117545518D01*
X146397867Y-117545522D01*
X146500378Y-117620000D01*
X146539019Y-117648074D01*
X146634134Y-117696538D01*
X146694483Y-117727288D01*
X146694486Y-117727289D01*
X146777455Y-117754246D01*
X146860426Y-117781205D01*
X147032759Y-117808500D01*
X147032760Y-117808500D01*
X147607240Y-117808500D01*
X147607241Y-117808500D01*
X147779574Y-117781205D01*
X147945516Y-117727288D01*
X147945517Y-117727287D01*
X147949267Y-117726069D01*
X147987585Y-117720000D01*
X148345025Y-117720000D01*
X148309930Y-117755095D01*
X148263852Y-117834905D01*
X148240000Y-117923922D01*
X148240000Y-118016078D01*
X148263852Y-118105095D01*
X148309930Y-118184905D01*
X148375095Y-118250070D01*
X148454905Y-118296148D01*
X148543922Y-118320000D01*
X148636078Y-118320000D01*
X148725095Y-118296148D01*
X148804905Y-118250070D01*
X148870070Y-118184905D01*
X148916148Y-118105095D01*
X148940000Y-118016078D01*
X148940000Y-117923922D01*
X148916148Y-117834905D01*
X148870070Y-117755095D01*
X148834975Y-117720000D01*
X149401159Y-117720000D01*
X149445952Y-117728373D01*
X149544260Y-117766456D01*
X149555345Y-117770751D01*
X149757282Y-117808500D01*
X149757284Y-117808500D01*
X149962716Y-117808500D01*
X149962718Y-117808500D01*
X150164655Y-117770751D01*
X150356218Y-117696540D01*
X150530882Y-117588392D01*
X150682701Y-117449991D01*
X150806503Y-117286050D01*
X150898074Y-117102152D01*
X150954294Y-116904559D01*
X150973249Y-116700000D01*
X150965165Y-116612759D01*
X153391500Y-116612759D01*
X153391500Y-116787240D01*
X153418795Y-116959575D01*
X153472710Y-117125513D01*
X153472711Y-117125516D01*
X153551928Y-117280984D01*
X153654477Y-117422132D01*
X153654481Y-117422137D01*
X153777862Y-117545518D01*
X153777867Y-117545522D01*
X153880378Y-117620000D01*
X153919019Y-117648074D01*
X154014134Y-117696538D01*
X154074483Y-117727288D01*
X154074486Y-117727289D01*
X154157455Y-117754246D01*
X154240426Y-117781205D01*
X154412759Y-117808500D01*
X154412760Y-117808500D01*
X154987240Y-117808500D01*
X154987241Y-117808500D01*
X155159574Y-117781205D01*
X155325516Y-117727288D01*
X155325517Y-117727287D01*
X155329267Y-117726069D01*
X155367585Y-117720000D01*
X155725025Y-117720000D01*
X155689930Y-117755095D01*
X155643852Y-117834905D01*
X155620000Y-117923922D01*
X155620000Y-118016078D01*
X155643852Y-118105095D01*
X155689930Y-118184905D01*
X155755095Y-118250070D01*
X155834905Y-118296148D01*
X155923922Y-118320000D01*
X156016078Y-118320000D01*
X156105095Y-118296148D01*
X156184905Y-118250070D01*
X156250070Y-118184905D01*
X156296148Y-118105095D01*
X156320000Y-118016078D01*
X156320000Y-117923922D01*
X156296148Y-117834905D01*
X156250070Y-117755095D01*
X156214975Y-117720000D01*
X156781159Y-117720000D01*
X156825952Y-117728373D01*
X156924260Y-117766456D01*
X156935345Y-117770751D01*
X157137282Y-117808500D01*
X157137284Y-117808500D01*
X157342716Y-117808500D01*
X157342718Y-117808500D01*
X157544655Y-117770751D01*
X157736218Y-117696540D01*
X157910882Y-117588392D01*
X158062701Y-117449991D01*
X158186503Y-117286050D01*
X158278074Y-117102152D01*
X158334294Y-116904559D01*
X158353249Y-116700000D01*
X158334294Y-116495441D01*
X158278074Y-116297848D01*
X158266443Y-116274489D01*
X158186506Y-116113955D01*
X158186501Y-116113947D01*
X158062699Y-115950006D01*
X157910883Y-115811609D01*
X157910882Y-115811608D01*
X157736218Y-115703460D01*
X157544655Y-115629249D01*
X157342718Y-115591500D01*
X157137282Y-115591500D01*
X156935345Y-115629249D01*
X156935342Y-115629249D01*
X156935342Y-115629250D01*
X156743779Y-115703461D01*
X156569116Y-115811609D01*
X156417300Y-115950006D01*
X156293498Y-116113947D01*
X156293493Y-116113955D01*
X156201930Y-116297837D01*
X156201926Y-116297847D01*
X156188655Y-116344491D01*
X156151375Y-116403583D01*
X156088065Y-116433141D01*
X156018826Y-116423778D01*
X155965640Y-116378467D01*
X155951458Y-116348872D01*
X155927290Y-116274489D01*
X155927288Y-116274483D01*
X155899856Y-116220646D01*
X155848074Y-116119019D01*
X155834971Y-116100984D01*
X155745522Y-115977867D01*
X155745518Y-115977862D01*
X155622137Y-115854481D01*
X155622132Y-115854477D01*
X155480984Y-115751928D01*
X155480983Y-115751927D01*
X155480981Y-115751926D01*
X155431175Y-115726548D01*
X155325516Y-115672711D01*
X155325513Y-115672710D01*
X155159575Y-115618795D01*
X155073407Y-115605147D01*
X154987241Y-115591500D01*
X154412759Y-115591500D01*
X154355314Y-115600598D01*
X154240424Y-115618795D01*
X154074486Y-115672710D01*
X154074483Y-115672711D01*
X153919015Y-115751928D01*
X153777867Y-115854477D01*
X153777862Y-115854481D01*
X153654481Y-115977862D01*
X153654477Y-115977867D01*
X153551928Y-116119015D01*
X153472711Y-116274483D01*
X153472710Y-116274486D01*
X153418795Y-116440424D01*
X153391500Y-116612759D01*
X150965165Y-116612759D01*
X150954294Y-116495441D01*
X150898074Y-116297848D01*
X150886443Y-116274489D01*
X150806506Y-116113955D01*
X150806501Y-116113947D01*
X150682699Y-115950006D01*
X150530883Y-115811609D01*
X150530882Y-115811608D01*
X150356218Y-115703460D01*
X150164655Y-115629249D01*
X149962718Y-115591500D01*
X149757282Y-115591500D01*
X149555345Y-115629249D01*
X149555342Y-115629249D01*
X149555342Y-115629250D01*
X149363779Y-115703461D01*
X149189116Y-115811609D01*
X149037300Y-115950006D01*
X148913498Y-116113947D01*
X148913493Y-116113955D01*
X148821930Y-116297837D01*
X148821926Y-116297847D01*
X148808655Y-116344491D01*
X148771375Y-116403583D01*
X148708065Y-116433141D01*
X148638826Y-116423778D01*
X148585640Y-116378467D01*
X148571458Y-116348872D01*
X148547290Y-116274489D01*
X148547288Y-116274483D01*
X148519856Y-116220646D01*
X148468074Y-116119019D01*
X148454971Y-116100984D01*
X148365522Y-115977867D01*
X148365518Y-115977862D01*
X148242137Y-115854481D01*
X148242132Y-115854477D01*
X148100984Y-115751928D01*
X148100983Y-115751927D01*
X148100981Y-115751926D01*
X148051175Y-115726548D01*
X147945516Y-115672711D01*
X147945513Y-115672710D01*
X147779575Y-115618795D01*
X147693407Y-115605147D01*
X147607241Y-115591500D01*
X147032759Y-115591500D01*
X146975314Y-115600598D01*
X146860424Y-115618795D01*
X146694486Y-115672710D01*
X146694483Y-115672711D01*
X146539015Y-115751928D01*
X146397867Y-115854477D01*
X146397862Y-115854481D01*
X146274481Y-115977862D01*
X146274477Y-115977867D01*
X146171928Y-116119015D01*
X146092711Y-116274483D01*
X146092710Y-116274486D01*
X146038795Y-116440424D01*
X146011500Y-116612759D01*
X120025500Y-116612759D01*
X120025500Y-101999447D01*
X150616500Y-101999447D01*
X150616500Y-102850537D01*
X150616501Y-102850553D01*
X150627113Y-102954426D01*
X150682885Y-103122738D01*
X150775970Y-103273652D01*
X150901348Y-103399030D01*
X151052262Y-103492115D01*
X151220574Y-103547887D01*
X151324455Y-103558500D01*
X152675544Y-103558499D01*
X152779426Y-103547887D01*
X152947738Y-103492115D01*
X152947743Y-103492112D01*
X152954291Y-103489060D01*
X152954861Y-103490282D01*
X153014784Y-103473881D01*
X153081450Y-103494797D01*
X153126224Y-103548435D01*
X153136500Y-103597860D01*
X153136500Y-103688654D01*
X153143011Y-103749202D01*
X153143011Y-103749204D01*
X153178505Y-103844363D01*
X153194111Y-103886204D01*
X153194112Y-103886206D01*
X153194113Y-103886207D01*
X153216184Y-103915691D01*
X153240600Y-103981156D01*
X153225747Y-104049429D01*
X153216184Y-104064309D01*
X153194113Y-104093792D01*
X153194110Y-104093797D01*
X153181364Y-104127971D01*
X153139491Y-104183904D01*
X153074026Y-104208319D01*
X153005754Y-104193466D01*
X153000094Y-104190179D01*
X152947738Y-104157885D01*
X152857462Y-104127971D01*
X152779427Y-104102113D01*
X152675545Y-104091500D01*
X151324462Y-104091500D01*
X151324446Y-104091501D01*
X151220572Y-104102113D01*
X151052264Y-104157884D01*
X151052259Y-104157886D01*
X150901346Y-104250971D01*
X150775971Y-104376346D01*
X150682886Y-104527259D01*
X150682884Y-104527264D01*
X150627113Y-104695572D01*
X150616500Y-104799447D01*
X150616500Y-105650537D01*
X150616501Y-105650553D01*
X150620002Y-105684819D01*
X150627113Y-105754426D01*
X150682885Y-105922738D01*
X150775970Y-106073652D01*
X150901348Y-106199030D01*
X151052262Y-106292115D01*
X151052264Y-106292115D01*
X151054630Y-106293575D01*
X151101354Y-106345523D01*
X151112854Y-106412071D01*
X151111496Y-106424996D01*
X151111496Y-106425000D01*
X151131458Y-106614928D01*
X151131459Y-106614931D01*
X151190470Y-106796549D01*
X151190473Y-106796556D01*
X151285960Y-106961944D01*
X151413747Y-107103866D01*
X151568248Y-107216118D01*
X151742712Y-107293794D01*
X151929513Y-107333500D01*
X152120487Y-107333500D01*
X152307288Y-107293794D01*
X152481752Y-107216118D01*
X152636253Y-107103866D01*
X152764040Y-106961944D01*
X152859527Y-106796556D01*
X152918542Y-106614928D01*
X152938504Y-106425000D01*
X152934101Y-106383111D01*
X152946670Y-106314383D01*
X152992324Y-106264613D01*
X153098652Y-106199030D01*
X153202864Y-106094818D01*
X153264187Y-106061334D01*
X153290545Y-106058500D01*
X153617095Y-106058500D01*
X153617096Y-106058499D01*
X153778123Y-106026469D01*
X153929810Y-105963638D01*
X153929810Y-105963637D01*
X153929812Y-105963637D01*
X153997609Y-105918335D01*
X154066325Y-105872422D01*
X154253928Y-105684819D01*
X154315251Y-105651334D01*
X154341609Y-105648500D01*
X154443638Y-105648500D01*
X154443654Y-105648499D01*
X154470692Y-105645591D01*
X154504201Y-105641989D01*
X154641204Y-105590889D01*
X154758261Y-105503261D01*
X154845889Y-105386204D01*
X154896989Y-105249201D01*
X154900591Y-105215692D01*
X154903499Y-105188654D01*
X154903500Y-105188637D01*
X154903500Y-104291362D01*
X154903499Y-104291345D01*
X154900157Y-104260270D01*
X154896989Y-104230799D01*
X154888604Y-104208319D01*
X154874522Y-104170564D01*
X154845889Y-104093796D01*
X154823816Y-104064310D01*
X154799399Y-103998848D01*
X154814250Y-103930575D01*
X154823817Y-103915688D01*
X154845889Y-103886204D01*
X154896989Y-103749201D01*
X154900591Y-103715692D01*
X154903499Y-103688654D01*
X154903500Y-103688637D01*
X154903500Y-102791362D01*
X154903499Y-102791345D01*
X154900157Y-102760270D01*
X154896989Y-102730799D01*
X154845889Y-102593796D01*
X154758261Y-102476739D01*
X154641204Y-102389111D01*
X154504203Y-102338011D01*
X154443654Y-102331500D01*
X154443638Y-102331500D01*
X154341609Y-102331500D01*
X154274570Y-102311815D01*
X154253928Y-102295181D01*
X154074603Y-102115856D01*
X154041118Y-102054533D01*
X154046102Y-101984841D01*
X154054887Y-101966194D01*
X154109527Y-101871556D01*
X154168542Y-101689928D01*
X154188504Y-101500000D01*
X154168542Y-101310072D01*
X154109527Y-101128444D01*
X154014040Y-100963056D01*
X153886253Y-100821134D01*
X153731752Y-100708882D01*
X153557288Y-100631206D01*
X153557286Y-100631205D01*
X153370487Y-100591500D01*
X153179513Y-100591500D01*
X152992714Y-100631205D01*
X152818246Y-100708883D01*
X152663745Y-100821135D01*
X152535958Y-100963057D01*
X152440473Y-101128442D01*
X152440470Y-101128449D01*
X152436513Y-101140628D01*
X152406265Y-101189986D01*
X152341070Y-101255181D01*
X152279747Y-101288666D01*
X152253389Y-101291500D01*
X151324462Y-101291500D01*
X151324446Y-101291501D01*
X151220572Y-101302113D01*
X151052264Y-101357884D01*
X151052259Y-101357886D01*
X150901346Y-101450971D01*
X150775971Y-101576346D01*
X150682886Y-101727259D01*
X150682884Y-101727264D01*
X150627113Y-101895572D01*
X150616500Y-101999447D01*
X120025500Y-101999447D01*
X120025500Y-86419995D01*
X148814953Y-86419995D01*
X148814953Y-86420004D01*
X148835113Y-86689026D01*
X148835113Y-86689028D01*
X148895142Y-86952033D01*
X148895148Y-86952052D01*
X148993709Y-87203181D01*
X148993708Y-87203181D01*
X149128602Y-87436822D01*
X149182294Y-87504151D01*
X149182295Y-87504151D01*
X149904153Y-86782293D01*
X149911049Y-86798942D01*
X149998599Y-86929970D01*
X150110030Y-87041401D01*
X150241058Y-87128951D01*
X150257705Y-87135846D01*
X149534848Y-87858702D01*
X149717483Y-87983220D01*
X149717485Y-87983221D01*
X149960539Y-88100269D01*
X149960537Y-88100269D01*
X150218337Y-88179790D01*
X150218343Y-88179792D01*
X150485101Y-88219999D01*
X150485110Y-88220000D01*
X150754890Y-88220000D01*
X150754898Y-88219999D01*
X151021656Y-88179792D01*
X151021662Y-88179790D01*
X151279461Y-88100269D01*
X151487331Y-88000165D01*
X151556272Y-87988813D01*
X151620406Y-88016535D01*
X151659372Y-88074531D01*
X151660797Y-88144386D01*
X151656560Y-88157187D01*
X151574915Y-88365214D01*
X151574914Y-88365219D01*
X151574910Y-88365231D01*
X151516264Y-88622176D01*
X151496569Y-88884995D01*
X151496569Y-88885004D01*
X151516264Y-89147823D01*
X151516265Y-89147826D01*
X151574913Y-89404780D01*
X151671204Y-89650124D01*
X151723214Y-89740209D01*
X151769022Y-89819550D01*
X151785495Y-89887450D01*
X151762642Y-89953477D01*
X151707721Y-89996668D01*
X151638168Y-90003309D01*
X151591783Y-89984004D01*
X151522517Y-89936779D01*
X151522516Y-89936778D01*
X151279460Y-89819730D01*
X151279462Y-89819730D01*
X151021662Y-89740209D01*
X151021656Y-89740207D01*
X150754898Y-89700000D01*
X150485101Y-89700000D01*
X150218343Y-89740207D01*
X150218337Y-89740209D01*
X149960538Y-89819730D01*
X149717485Y-89936778D01*
X149717476Y-89936783D01*
X149534848Y-90061296D01*
X150257705Y-90784153D01*
X150241058Y-90791049D01*
X150110030Y-90878599D01*
X149998599Y-90990030D01*
X149911049Y-91121058D01*
X149904153Y-91137706D01*
X149182295Y-90415848D01*
X149128600Y-90483180D01*
X148993709Y-90716818D01*
X148895148Y-90967947D01*
X148895142Y-90967966D01*
X148835113Y-91230971D01*
X148835113Y-91230973D01*
X148814953Y-91499995D01*
X148814953Y-91500004D01*
X148835113Y-91769026D01*
X148835113Y-91769028D01*
X148895142Y-92032033D01*
X148895148Y-92032052D01*
X148993709Y-92283181D01*
X148993708Y-92283181D01*
X149128602Y-92516822D01*
X149182294Y-92584151D01*
X149182295Y-92584151D01*
X149904153Y-91862293D01*
X149911049Y-91878942D01*
X149998599Y-92009970D01*
X150110030Y-92121401D01*
X150241058Y-92208951D01*
X150257705Y-92215846D01*
X149534848Y-92938702D01*
X149717483Y-93063220D01*
X149717485Y-93063221D01*
X149960539Y-93180269D01*
X149960537Y-93180269D01*
X150218337Y-93259790D01*
X150218343Y-93259792D01*
X150485101Y-93299999D01*
X150485110Y-93300000D01*
X150754890Y-93300000D01*
X150754898Y-93299999D01*
X151021656Y-93259792D01*
X151021662Y-93259790D01*
X151279461Y-93180269D01*
X151522521Y-93063218D01*
X151705150Y-92938702D01*
X150982294Y-92215846D01*
X150998942Y-92208951D01*
X151129970Y-92121401D01*
X151241401Y-92009970D01*
X151328951Y-91878942D01*
X151335846Y-91862294D01*
X152057703Y-92584151D01*
X152057704Y-92584150D01*
X152111393Y-92516828D01*
X152111400Y-92516817D01*
X152246290Y-92283181D01*
X152344851Y-92032052D01*
X152344857Y-92032033D01*
X152404886Y-91769028D01*
X152404886Y-91769026D01*
X152425047Y-91500004D01*
X152425047Y-91499995D01*
X152404886Y-91230973D01*
X152404886Y-91230971D01*
X152344857Y-90967966D01*
X152344851Y-90967947D01*
X152246290Y-90716818D01*
X152142181Y-90536495D01*
X152125708Y-90468595D01*
X152148561Y-90402568D01*
X152203482Y-90359377D01*
X152273035Y-90352736D01*
X152319417Y-90372041D01*
X152378285Y-90412176D01*
X152615746Y-90526532D01*
X152867600Y-90604218D01*
X152867601Y-90604218D01*
X152867604Y-90604219D01*
X153128211Y-90643499D01*
X153128216Y-90643499D01*
X153128219Y-90643500D01*
X153128220Y-90643500D01*
X153391780Y-90643500D01*
X153391781Y-90643500D01*
X153391788Y-90643499D01*
X153652395Y-90604219D01*
X153652396Y-90604218D01*
X153652400Y-90604218D01*
X153904254Y-90526532D01*
X153928952Y-90514637D01*
X153997892Y-90503284D01*
X154062027Y-90531006D01*
X154100993Y-90589000D01*
X154102420Y-90658856D01*
X154090142Y-90688356D01*
X154073708Y-90716820D01*
X153975148Y-90967947D01*
X153975142Y-90967966D01*
X153915113Y-91230971D01*
X153915113Y-91230973D01*
X153894953Y-91499995D01*
X153894953Y-91500004D01*
X153915113Y-91769026D01*
X153915113Y-91769028D01*
X153975142Y-92032033D01*
X153975148Y-92032052D01*
X154073709Y-92283181D01*
X154073708Y-92283181D01*
X154208602Y-92516822D01*
X154262294Y-92584151D01*
X154984152Y-91862293D01*
X154991049Y-91878942D01*
X155078599Y-92009970D01*
X155190030Y-92121401D01*
X155321058Y-92208951D01*
X155337705Y-92215846D01*
X154614848Y-92938702D01*
X154797483Y-93063220D01*
X154797485Y-93063221D01*
X155040539Y-93180269D01*
X155040537Y-93180269D01*
X155298337Y-93259790D01*
X155298343Y-93259792D01*
X155565101Y-93299999D01*
X155565110Y-93300000D01*
X155834890Y-93300000D01*
X155834898Y-93299999D01*
X156101656Y-93259792D01*
X156101662Y-93259790D01*
X156359461Y-93180269D01*
X156602521Y-93063218D01*
X156785150Y-92938702D01*
X156062294Y-92215846D01*
X156078942Y-92208951D01*
X156209970Y-92121401D01*
X156321401Y-92009970D01*
X156408951Y-91878942D01*
X156415846Y-91862294D01*
X157137703Y-92584151D01*
X157137704Y-92584150D01*
X157191393Y-92516828D01*
X157191400Y-92516817D01*
X157326290Y-92283181D01*
X157424851Y-92032052D01*
X157424857Y-92032033D01*
X157484886Y-91769028D01*
X157484886Y-91769026D01*
X157505047Y-91500004D01*
X157505047Y-91499995D01*
X157484886Y-91230973D01*
X157484886Y-91230971D01*
X157424857Y-90967966D01*
X157424851Y-90967947D01*
X157326290Y-90716818D01*
X157326291Y-90716818D01*
X157191397Y-90483177D01*
X157137704Y-90415847D01*
X156415846Y-91137705D01*
X156408951Y-91121058D01*
X156321401Y-90990030D01*
X156209970Y-90878599D01*
X156078942Y-90791049D01*
X156062293Y-90784153D01*
X156785150Y-90061296D01*
X156602517Y-89936779D01*
X156602516Y-89936778D01*
X156359460Y-89819730D01*
X156359462Y-89819730D01*
X156101662Y-89740209D01*
X156101656Y-89740207D01*
X155834898Y-89700000D01*
X155565101Y-89700000D01*
X155298343Y-89740207D01*
X155298337Y-89740209D01*
X155040541Y-89819729D01*
X155001505Y-89838528D01*
X154932564Y-89849879D01*
X154868429Y-89822156D01*
X154829465Y-89764160D01*
X154828040Y-89694305D01*
X154840317Y-89664809D01*
X154848796Y-89650124D01*
X154945087Y-89404780D01*
X155003735Y-89147826D01*
X155023431Y-88885000D01*
X155003735Y-88622174D01*
X154945087Y-88365220D01*
X154907701Y-88269964D01*
X154901533Y-88200371D01*
X154933970Y-88138488D01*
X154994715Y-88103965D01*
X155059680Y-88106174D01*
X155298337Y-88179790D01*
X155298343Y-88179792D01*
X155565101Y-88219999D01*
X155565110Y-88220000D01*
X155834890Y-88220000D01*
X155834898Y-88219999D01*
X156101656Y-88179792D01*
X156101662Y-88179790D01*
X156359461Y-88100269D01*
X156602521Y-87983218D01*
X156785150Y-87858702D01*
X156062294Y-87135846D01*
X156078942Y-87128951D01*
X156209970Y-87041401D01*
X156321401Y-86929970D01*
X156408951Y-86798942D01*
X156415846Y-86782294D01*
X157137703Y-87504151D01*
X157137704Y-87504150D01*
X157191393Y-87436828D01*
X157191400Y-87436817D01*
X157326290Y-87203181D01*
X157424851Y-86952052D01*
X157424857Y-86952033D01*
X157484886Y-86689028D01*
X157484886Y-86689026D01*
X157505047Y-86420004D01*
X157505047Y-86419995D01*
X157484886Y-86150973D01*
X157484886Y-86150971D01*
X157424857Y-85887966D01*
X157424851Y-85887947D01*
X157326290Y-85636818D01*
X157326291Y-85636818D01*
X157191397Y-85403177D01*
X157137704Y-85335847D01*
X156415846Y-86057705D01*
X156408951Y-86041058D01*
X156321401Y-85910030D01*
X156209970Y-85798599D01*
X156078942Y-85711049D01*
X156062294Y-85704153D01*
X156785150Y-84981296D01*
X156602517Y-84856779D01*
X156602516Y-84856778D01*
X156359460Y-84739730D01*
X156359462Y-84739730D01*
X156101662Y-84660209D01*
X156101656Y-84660207D01*
X155834898Y-84620000D01*
X155565101Y-84620000D01*
X155298343Y-84660207D01*
X155298337Y-84660209D01*
X155040538Y-84739730D01*
X154797485Y-84856778D01*
X154797476Y-84856783D01*
X154614848Y-84981296D01*
X155337705Y-85704153D01*
X155321058Y-85711049D01*
X155190030Y-85798599D01*
X155078599Y-85910030D01*
X154991049Y-86041058D01*
X154984153Y-86057706D01*
X154262295Y-85335848D01*
X154208600Y-85403180D01*
X154073709Y-85636818D01*
X153975148Y-85887947D01*
X153975142Y-85887966D01*
X153915113Y-86150971D01*
X153915113Y-86150973D01*
X153894953Y-86419995D01*
X153894953Y-86420004D01*
X153915113Y-86689026D01*
X153915113Y-86689028D01*
X153975142Y-86952033D01*
X153975146Y-86952047D01*
X154020967Y-87068795D01*
X154027136Y-87138392D01*
X153994698Y-87200276D01*
X153933953Y-87234799D01*
X153868990Y-87232589D01*
X153652405Y-87165783D01*
X153652395Y-87165780D01*
X153391788Y-87126500D01*
X153391781Y-87126500D01*
X153128219Y-87126500D01*
X153128211Y-87126500D01*
X152867604Y-87165780D01*
X152867598Y-87165782D01*
X152615742Y-87243469D01*
X152425349Y-87335158D01*
X152356408Y-87346510D01*
X152292274Y-87318788D01*
X152253308Y-87260792D01*
X152251883Y-87190937D01*
X152256120Y-87178135D01*
X152344853Y-86952047D01*
X152344857Y-86952033D01*
X152404886Y-86689028D01*
X152404886Y-86689026D01*
X152425047Y-86420004D01*
X152425047Y-86419995D01*
X152404886Y-86150973D01*
X152404886Y-86150971D01*
X152344857Y-85887966D01*
X152344851Y-85887947D01*
X152246290Y-85636818D01*
X152246291Y-85636818D01*
X152111397Y-85403177D01*
X152057704Y-85335847D01*
X151335846Y-86057705D01*
X151328951Y-86041058D01*
X151241401Y-85910030D01*
X151129970Y-85798599D01*
X150998942Y-85711049D01*
X150982294Y-85704153D01*
X151705150Y-84981296D01*
X151522517Y-84856779D01*
X151522516Y-84856778D01*
X151279460Y-84739730D01*
X151279462Y-84739730D01*
X151021662Y-84660209D01*
X151021656Y-84660207D01*
X150754898Y-84620000D01*
X150485101Y-84620000D01*
X150218343Y-84660207D01*
X150218337Y-84660209D01*
X149960538Y-84739730D01*
X149717485Y-84856778D01*
X149717476Y-84856783D01*
X149534848Y-84981296D01*
X150257705Y-85704153D01*
X150241058Y-85711049D01*
X150110030Y-85798599D01*
X149998599Y-85910030D01*
X149911049Y-86041058D01*
X149904153Y-86057706D01*
X149182295Y-85335848D01*
X149128600Y-85403180D01*
X148993709Y-85636818D01*
X148895148Y-85887947D01*
X148895142Y-85887966D01*
X148835113Y-86150971D01*
X148835113Y-86150973D01*
X148814953Y-86419995D01*
X120025500Y-86419995D01*
X120025500Y-79849994D01*
X149256844Y-79849994D01*
X149256844Y-79850005D01*
X149275434Y-80074359D01*
X149275436Y-80074371D01*
X149330703Y-80292614D01*
X149421140Y-80498792D01*
X149544276Y-80687265D01*
X149544284Y-80687276D01*
X149663355Y-80816619D01*
X149696760Y-80852906D01*
X149874424Y-80991189D01*
X149874425Y-80991189D01*
X149874427Y-80991191D01*
X149934314Y-81023600D01*
X150072426Y-81098342D01*
X150285365Y-81171444D01*
X150507431Y-81208500D01*
X150732569Y-81208500D01*
X150954635Y-81171444D01*
X151167574Y-81098342D01*
X151365576Y-80991189D01*
X151543240Y-80852906D01*
X151648295Y-80738787D01*
X151695715Y-80687276D01*
X151695715Y-80687275D01*
X151695722Y-80687268D01*
X151789749Y-80543347D01*
X151842894Y-80497994D01*
X151912125Y-80488570D01*
X151975461Y-80518072D01*
X151995130Y-80540048D01*
X152121890Y-80721078D01*
X152288917Y-80888105D01*
X152482421Y-81023600D01*
X152696507Y-81123429D01*
X152696516Y-81123433D01*
X152910000Y-81180634D01*
X152910000Y-80283012D01*
X152967007Y-80315925D01*
X153094174Y-80350000D01*
X153225826Y-80350000D01*
X153352993Y-80315925D01*
X153410000Y-80283012D01*
X153410000Y-81180633D01*
X153623483Y-81123433D01*
X153623492Y-81123429D01*
X153837578Y-81023600D01*
X154031078Y-80888108D01*
X154146914Y-80772272D01*
X154208237Y-80738787D01*
X154277929Y-80743771D01*
X154333863Y-80785642D01*
X154350777Y-80816619D01*
X154399110Y-80946203D01*
X154399111Y-80946204D01*
X154486739Y-81063261D01*
X154603796Y-81150889D01*
X154740799Y-81201989D01*
X154768050Y-81204918D01*
X154801345Y-81208499D01*
X154801362Y-81208500D01*
X156598638Y-81208500D01*
X156598654Y-81208499D01*
X156625692Y-81205591D01*
X156659201Y-81201989D01*
X156796204Y-81150889D01*
X156913261Y-81063261D01*
X157000889Y-80946204D01*
X157051989Y-80809201D01*
X157055959Y-80772272D01*
X157058499Y-80748654D01*
X157058500Y-80748637D01*
X157058500Y-78951362D01*
X157058499Y-78951345D01*
X157055157Y-78920270D01*
X157051989Y-78890799D01*
X157049222Y-78883381D01*
X157022559Y-78811894D01*
X157000889Y-78753796D01*
X156913261Y-78636739D01*
X156796204Y-78549111D01*
X156659203Y-78498011D01*
X156598654Y-78491500D01*
X156598638Y-78491500D01*
X154801362Y-78491500D01*
X154801345Y-78491500D01*
X154740797Y-78498011D01*
X154740795Y-78498011D01*
X154603795Y-78549111D01*
X154486739Y-78636739D01*
X154399111Y-78753795D01*
X154350777Y-78883381D01*
X154308905Y-78939314D01*
X154243441Y-78963730D01*
X154175168Y-78948878D01*
X154146915Y-78927727D01*
X154031082Y-78811894D01*
X153837578Y-78676399D01*
X153623492Y-78576570D01*
X153623486Y-78576567D01*
X153410000Y-78519364D01*
X153410000Y-79416988D01*
X153352993Y-79384075D01*
X153225826Y-79350000D01*
X153094174Y-79350000D01*
X152967007Y-79384075D01*
X152910000Y-79416988D01*
X152910000Y-78519364D01*
X152909999Y-78519364D01*
X152696513Y-78576567D01*
X152696507Y-78576570D01*
X152482422Y-78676399D01*
X152482420Y-78676400D01*
X152288926Y-78811886D01*
X152288920Y-78811891D01*
X152121891Y-78978920D01*
X152121890Y-78978922D01*
X151995131Y-79159952D01*
X151940554Y-79203577D01*
X151871055Y-79210769D01*
X151808701Y-79179247D01*
X151789752Y-79156656D01*
X151695722Y-79012732D01*
X151695715Y-79012725D01*
X151695715Y-79012723D01*
X151543243Y-78847097D01*
X151543238Y-78847092D01*
X151365577Y-78708812D01*
X151365572Y-78708808D01*
X151167580Y-78601661D01*
X151167577Y-78601659D01*
X151167574Y-78601658D01*
X151167571Y-78601657D01*
X151167569Y-78601656D01*
X150954637Y-78528556D01*
X150732569Y-78491500D01*
X150507431Y-78491500D01*
X150285362Y-78528556D01*
X150072430Y-78601656D01*
X150072419Y-78601661D01*
X149874427Y-78708808D01*
X149874422Y-78708812D01*
X149696761Y-78847092D01*
X149696756Y-78847097D01*
X149544284Y-79012723D01*
X149544276Y-79012734D01*
X149421140Y-79201207D01*
X149330703Y-79407385D01*
X149275436Y-79625628D01*
X149275434Y-79625640D01*
X149256844Y-79849994D01*
X120025500Y-79849994D01*
X120025500Y-74878711D01*
X123149500Y-74878711D01*
X123149500Y-75121288D01*
X123181161Y-75361785D01*
X123243947Y-75596104D01*
X123277303Y-75676632D01*
X123336776Y-75820212D01*
X123458064Y-76030289D01*
X123458066Y-76030292D01*
X123458067Y-76030293D01*
X123605733Y-76222736D01*
X123605739Y-76222743D01*
X123777256Y-76394260D01*
X123777262Y-76394265D01*
X123969711Y-76541936D01*
X124179788Y-76663224D01*
X124403900Y-76756054D01*
X124638211Y-76818838D01*
X124818586Y-76842584D01*
X124878711Y-76850500D01*
X124878712Y-76850500D01*
X125121289Y-76850500D01*
X125169388Y-76844167D01*
X125361789Y-76818838D01*
X125596100Y-76756054D01*
X125820212Y-76663224D01*
X126030289Y-76541936D01*
X126222738Y-76394265D01*
X126394265Y-76222738D01*
X126541936Y-76030289D01*
X126663224Y-75820212D01*
X126756054Y-75596100D01*
X126818838Y-75361789D01*
X126850500Y-75121288D01*
X126850500Y-74878712D01*
X126848344Y-74862332D01*
X177899500Y-74862332D01*
X177899500Y-75137667D01*
X177899501Y-75137684D01*
X177935438Y-75410655D01*
X177935439Y-75410660D01*
X177935440Y-75410666D01*
X177935441Y-75410668D01*
X178006704Y-75676630D01*
X178112075Y-75931017D01*
X178112080Y-75931028D01*
X178194861Y-76074407D01*
X178249751Y-76169479D01*
X178249753Y-76169482D01*
X178249754Y-76169483D01*
X178417370Y-76387926D01*
X178417376Y-76387933D01*
X178612066Y-76582623D01*
X178612072Y-76582628D01*
X178830521Y-76750249D01*
X178983778Y-76838732D01*
X179068971Y-76887919D01*
X179068976Y-76887921D01*
X179068979Y-76887923D01*
X179323368Y-76993295D01*
X179589334Y-77064560D01*
X179862326Y-77100500D01*
X179862333Y-77100500D01*
X180137667Y-77100500D01*
X180137674Y-77100500D01*
X180410666Y-77064560D01*
X180676632Y-76993295D01*
X180931021Y-76887923D01*
X181169479Y-76750249D01*
X181387928Y-76582628D01*
X181582628Y-76387928D01*
X181750249Y-76169479D01*
X181887923Y-75931021D01*
X181993295Y-75676632D01*
X182064560Y-75410666D01*
X182100500Y-75137674D01*
X182100500Y-74862326D01*
X182064560Y-74589334D01*
X181993295Y-74323368D01*
X181887923Y-74068979D01*
X181887921Y-74068976D01*
X181887919Y-74068971D01*
X181838732Y-73983778D01*
X181750249Y-73830521D01*
X181582628Y-73612072D01*
X181582623Y-73612066D01*
X181387933Y-73417376D01*
X181387926Y-73417370D01*
X181169483Y-73249754D01*
X181169482Y-73249753D01*
X181169479Y-73249751D01*
X181050678Y-73181161D01*
X180931028Y-73112080D01*
X180931017Y-73112075D01*
X180676630Y-73006704D01*
X180543649Y-72971072D01*
X180410666Y-72935440D01*
X180410660Y-72935439D01*
X180410655Y-72935438D01*
X180137684Y-72899501D01*
X180137679Y-72899500D01*
X180137674Y-72899500D01*
X179862326Y-72899500D01*
X179862320Y-72899500D01*
X179862315Y-72899501D01*
X179589344Y-72935438D01*
X179589337Y-72935439D01*
X179589334Y-72935440D01*
X179533125Y-72950500D01*
X179323369Y-73006704D01*
X179068982Y-73112075D01*
X179068971Y-73112080D01*
X178830516Y-73249754D01*
X178612073Y-73417370D01*
X178612066Y-73417376D01*
X178417376Y-73612066D01*
X178417370Y-73612073D01*
X178249754Y-73830516D01*
X178112080Y-74068971D01*
X178112075Y-74068982D01*
X178006704Y-74323369D01*
X177935441Y-74589331D01*
X177935438Y-74589344D01*
X177899501Y-74862315D01*
X177899500Y-74862332D01*
X126848344Y-74862332D01*
X126818838Y-74638211D01*
X126756054Y-74403900D01*
X126663224Y-74179788D01*
X126541936Y-73969711D01*
X126394265Y-73777262D01*
X126394260Y-73777256D01*
X126222743Y-73605739D01*
X126222736Y-73605733D01*
X126030293Y-73458067D01*
X126030292Y-73458066D01*
X126030289Y-73458064D01*
X125820212Y-73336776D01*
X125820205Y-73336773D01*
X125596104Y-73243947D01*
X125361785Y-73181161D01*
X125121289Y-73149500D01*
X125121288Y-73149500D01*
X124878712Y-73149500D01*
X124878711Y-73149500D01*
X124638214Y-73181161D01*
X124403895Y-73243947D01*
X124179794Y-73336773D01*
X124179785Y-73336777D01*
X123969706Y-73458067D01*
X123777263Y-73605733D01*
X123777256Y-73605739D01*
X123605739Y-73777256D01*
X123605733Y-73777263D01*
X123458067Y-73969706D01*
X123336777Y-74179785D01*
X123336773Y-74179794D01*
X123243947Y-74403895D01*
X123181161Y-74638214D01*
X123149500Y-74878711D01*
X120025500Y-74878711D01*
X120025500Y-70149500D01*
X120045185Y-70082461D01*
X120097989Y-70036706D01*
X120149500Y-70025500D01*
X184850500Y-70025500D01*
X184917539Y-70045185D01*
G37*
G04 #@! TD.AperFunction*
M02*
